/* XPM */
static char *result[] = {
/* columns rows colors chars-per-pixel */
"60 60 43 1 ",
"  c #AFD4DC",
". c #B4D4DE",
"X c #BAD6DE",
"o c #B7DADF",
"O c #BCD8DF",
"+ c #AFD6E3",
"@ c #AFD8E1",
"# c #B3D6E2",
"$ c #B9D7E2",
"% c #B5D9E3",
"& c #BCDAE4",
"* c #B6D8E8",
"= c #BEDBE9",
"- c #C2DCE5",
"; c #C9DEE6",
": c #C4DEE9",
"> c #C9DFEA",
", c #C6E1E6",
"< c #CAE1E7",
"1 c #C6E1E9",
"2 c #CCE3EB",
"3 c #D2E6ED",
"4 c #DBE7EF",
"5 c #D4E9EE",
"6 c #DBE9EF",
"7 c #CEE5F0",
"8 c #D4E6F1",
"9 c #DCE7F2",
"0 c #D5EAF2",
"q c #DBEAF2",
"w c #DEEFF8",
"e c #DEF1F5",
"r c #DFF1F8",
"t c #E2EBEF",
"y c #E2EDF4",
"u c #E4F2F6",
"i c #EAF4F7",
"p c #E5F4F9",
"a c #EBF6FA",
"s c #E7F8FB",
"d c #EEFAFD",
"f c #F0F7FD",
"g c #F1FAFE",
/* pixels */
"qq##-aggggggggggggy60&@,ddgggggs.#-qqqqqqq8%#0ggggggggdggggg",
"q0$#-agggggggggggdyq0$.-aggggggs.#-qqqqq907##5dgggdggggggggg",
"--wryddggggggggggd2:,qeugggggggauu8&&2qqqq0uppggggdyyaggggau",
"##sgggdggggggggdgg,%opgggggggggggg0#%2qq6qydggggggdqquggggg6",
"O-aggdfddaggggadgg<&;ugggggaggggggu&$200qqydfddgfaaqquggggdu",
"gdggd44944agaqqugadgggggggy66iggdgggd<##8q9q9uggyqqqqugggggg",
"ggdgdq9q66agaqqygdgggggggguq6aggddggg2#%qqqqqpddqqqq9ugddggg",
"ggggaqqypiggg66qup535igggguqqyuudggggrequiw-:qgdyqqqqyuyddgp",
"gddgaq6uggggdq69qq=@opgggguqq9qqgggggggggge.#0gdqqq6qq96addt",
"ggadaqquggdsawqq80:&-pgggguqq88qggggggggidiO&6gdy9qqq088aad6",
"gdtuqq6pgdywqq07$&5iidggggpq0=%-dggdgggggggipdgdqqqqq7#$ugd,",
"gg6006qsggqqqq07#.egggdgggp60&#-ggdgggggggggfdddwq9qq<.#egp&",
"ga<1111qggiyy>1133idgippggauu635ggaiyiuugggggu33660;>783sdd5",
"gd&.%##0ggggi-o1ggggay6yggggggddgga9qqqqggfga5#.8q0%#2dggggg",
"gd-&%O$0dgggu-O2ggggdqqydgaggggggga00qyqdgdgg3$$0q8&%3gggggg",
"ggpppppagggggppaggggayqqqyyqysggfgw&$2qqqttggsssqq0ppggggggg",
"ggdggggdffggggggggggdqqqqqq09sggggw.@2qqqqqgggggy9qdfdgggggg",
"uidggggdfaaaagggggaiiqqqqqqww0qyggu<2223qqyggggg323dgdipaaaa",
"qqdgggduttqqyfggggyq0q9qqqq96&%$ggggd<##06yggggd&#&ddi66qqtd",
"q9dgfggu4909qfggggy0qq4q9w096=#&ggggd<#%8qqggggd-#-aguqqq6ya",
"qqqyyfgdia;&;agggggaaqq0&==&-0uugggggiur==;wyidgyyugguqquaag",
"9qqqydgdgd-.Oaggggggaw07#%%.orggfgfgdgga$%-0qidaggggauq6aggg",
"qq9qyiaigg2;<aggdgggs32<;;,,<udgggaaiafd<,-720qedggggu82agaa",
"qq9qqq6yggddgggggggga-%-ddddgdgggga4qiggddu.##@.ugggg8#.egay",
"qq0q000usdggggggggggs=$;ggdgggggagp9qiddgguO%%%Xpgggg6%ougiq",
"qq;&&=&-:;pggddayuagdueugggggggdyywqqqyydgseeequaggggserggs<",
"00$#+%#%%.pggggi46aagggggggggggd49qq9qqqgdggggggggggggggggs=",
"77>>11,,,,pggiap9qiggggffaaaidgdyywq9873dgggggggsaaggggggga2",
"%%pddaggsaggatqqqqagggga69qqqddgdda6q:%$iggggggdyqydggggggda",
"%osggaddddfga6qqq3ifdgga6qq9qaddgga60:&$igggdgddy6qadgggdsdd",
"eedddggipuaggsayqq2<3pga6qqq6yyuggr>-7eegggggiyyqqqwyyyu3;11",
"gsggdagiqqaggggp9q-#&uga6qqqqqqqgg0##0ggggggfiq69qqqqqqq-###",
"ggggfddyqqrruagp381,,sgayytyy380gge-:rdgadfggiyyuyyqq0801-1=",
"ggggdw99qq:&-sge*%0aadggagags,*-dgaiidggqqyggffdidi6q2%%wasa",
"ggggsqqq90&#-agqo egdgggggggs-#&dgdgdggdqqygggfgggay9>+.rgdg",
"gguur999qqq0qsgp00agdggduuaggq0rddggdiuuqq322ygg323par0qsdgg",
"gg6qqqq90qdgdddgggggddga6qugggggdggggyq9qq7##3gd&#&sggggddgg",
"ggqqqqqqq6sgggggdgggggga4qugggggggfggy99qq3%$4gg&*-ggggggggd",
"gd$#&9q<@%udggggdgggggga6qudggggdgdqqqqqqqeaadggddggggggggdy",
"gd&%&8q>#.pgggggdggggddaq9ugggggdga0qqqqqqeggggggdgggggggggq",
"gd332<<233pgdpuiggggdauuw9533idggga0q0qq<12dgappuuudggggipu6",
"gggap%#8ddggit6uggggaq6qq9>.Ougdgga99999*#-dgp66qqqdggfgyqq6",
"ggggp&$0ggigsq6udddgdqqq001%Ouggddsq9900&$;dgu6qqqqadgggwqq0",
"ggggdapdggu6yq66tqsgauq3$%5padgd6q90w1&&usaddy6qqq6qqiggy95-",
"gdggggggggyq6qqwqqpggqq3##3dggggqq0q0,%$aggggyqqqq6q6uggyq8&",
"aiuiiggggay6522222pdaqq62<edgggs<22222<2dggddayuuuw73tgg5222",
"q9q9ygggggy60%+%%.eggtqyggdgggdu##**.eagggggggggggu$%2dg-.&p",
"tq00qdggggyq0&&*$$egaq5eggagfggiO&*%$egggggddgggggu-$5gg,$-a",
"aa,&1aggggiaauuuueigg,&1gguyyiffuuuurdgdggatyiggggdueaggieug",
"fd$.&sggggagggddgdgga-.-gguqtafgddggddgfagg6quggddgggggggggg",
"fg223dddggsiie5uggggd<<5ggu9quaiddggggdgaap6q0qqddgggaiiagaa",
"ggdaggggggq65$o<dggggdddgguq0wqyggggggfdyq6qq>%%sggggi66agdq",
"ggddgggggdr07oo<gggddgggggpqqqqqgadggfgdy6qq01%Xugdgdp66igdr",
"dgyyudgggd2=1etpgguquaggggpqq1=:<:4gdffgiae-=2rudddyu6qqagd<",
"ddqqedgggd&.&sggggu6qaggggu90=.%#+;ggfggddu.%5gdgddqqqqqags&",
"sdwq6uiidg<-;pgaaay6esggggq88>O-==3dgdadgap-&6ggggsqq073aga,",
"q6993# 3dggdgggs66qqqdfggg3#Oeggggggau6qfgggggggdgfqq2% eggg",
"6qq97$.0gggggggaqqqqqagggg3#oegggggggyqqggggggggggdq01#.eggg",
"qq:=;qqpggggggga9qqqqwyuggyqtsggggsuyqqqyyygggggggp>-2e6ddgg",
"qq%%-sgdggdggggs9qqqqq9qdgggggggggp69qqq6qyggggggdu$o2dgdggg"
};
