/* XPM */
static char *result[] = {
/* columns rows colors chars-per-pixel */
"60 60 228 2 ",
"   c #0E0D0D",
".  c #2E2D2C",
"X  c #373736",
"o  c #4D3E2F",
"O  c #44433D",
"+  c #4B473B",
"@  c #504237",
"#  c #644C37",
"$  c #76583C",
"%  c #3F4545",
"&  c #454445",
"*  c #4B4A47",
"=  c #514C46",
"-  c #4F514C",
";  c #545449",
":  c #52524C",
">  c #59544C",
",  c #4E5253",
"<  c #535453",
"1  c #585757",
"2  c #5A5A53",
"3  c #5B5B5B",
"4  c #624F41",
"5  c #675649",
"6  c #765D44",
"7  c #625E55",
"8  c #625E5B",
"9  c #5F615A",
"0  c #7B604D",
"q  c #62635C",
"w  c #6D685B",
"e  c #766353",
"r  c #766A5C",
"t  c #5A5F61",
"y  c #5A6567",
"u  c #596B71",
"i  c #636462",
"p  c #646767",
"a  c #6C6C62",
"s  c #636A6C",
"d  c #6C6C6B",
"f  c #726D69",
"g  c #727266",
"h  c #73736B",
"j  c #7B7A6C",
"k  c #606D70",
"l  c #6B6E70",
"z  c #6D7272",
"x  c #737475",
"c  c #797575",
"v  c #7B7C72",
"b  c #75797B",
"n  c #7C7C7C",
"m  c #826345",
"M  c #9E764D",
"N  c #866953",
"B  c #977656",
"V  c #A37B54",
"C  c #967B65",
"Z  c #807D78",
"A  c #7E807A",
"S  c #A8815A",
"D  c #BA8C5E",
"F  c #848476",
"G  c #878876",
"H  c #84847A",
"J  c #88877E",
"K  c #8A8A7B",
"L  c #AD876D",
"P  c #AB9076",
"I  c #B9987D",
"U  c #CB9867",
"Y  c #C2987A",
"T  c #D4A16D",
"R  c #D5A279",
"E  c #687E83",
"W  c #7D8182",
"Q  c #7B888D",
"!  c #778691",
"~  c #7B929A",
"^  c #848483",
"/  c #8D8E84",
"(  c #878788",
")  c #8C8A8A",
"_  c #918F87",
"`  c #939388",
"'  c #9A9B8C",
"]  c #8E8F91",
"[  c #8C9497",
"{  c #959594",
"}  c #999696",
"|  c #9B9B94",
" . c #969798",
".. c #939A9B",
"X. c #9B9B9B",
"o. c #B89D81",
"O. c #A19E9D",
"+. c #9FA197",
"@. c #A5A497",
"#. c #A4A49D",
"$. c #ABAA9C",
"%. c #B4AF9A",
"&. c #8A9CA5",
"*. c #989EA1",
"=. c #9BA2A5",
"-. c #99A5AA",
";. c #92ACB5",
":. c #A4A3A2",
">. c #A9A5A5",
",. c #ACACA2",
"<. c #A4A9AA",
"1. c #ACABAC",
"2. c #B1ACA9",
"3. c #B4B4A6",
"4. c #B6B6AA",
"5. c #B7BAA9",
"6. c #BBBBAB",
"7. c #B4AFB0",
"8. c #AAB6B9",
"9. c #B5B3B3",
"0. c #BBB9B8",
"q. c #DEA984",
"w. c #D9AA88",
"e. c #DAB596",
"r. c #E0B28E",
"t. c #E5B794",
"y. c #C0BFBE",
"u. c #BFC0AE",
"i. c #ECC09E",
"p. c #C1C1AF",
"a. c #C3C4B4",
"s. c #C8C7B7",
"d. c #C8C8B6",
"f. c #C5C2BC",
"g. c #CCCCBB",
"h. c #D4CBB2",
"j. c #D1D1BF",
"k. c #EDC8A9",
"l. c #F1C9A7",
"z. c #F1CBAB",
"x. c #F2D1B0",
"c. c #F5D4B3",
"v. c #F8D7B6",
"b. c #FCDDBB",
"n. c #98B7C3",
"m. c #ACBAC3",
"M. c #C1BFC0",
"N. c #A8C4CD",
"B. c #BAC3C6",
"V. c #BAC5C8",
"C. c #B6CBD6",
"Z. c #A9D3DF",
"A. c #B3D5DE",
"S. c #BCD2DB",
"D. c #AFD6E2",
"F. c #B3D5E2",
"G. c #BAD7E2",
"H. c #B4D8E4",
"J. c #BBDAE4",
"K. c #C5C2C2",
"L. c #C9C8C9",
"P. c #D2CFCF",
"I. c #D3D3C2",
"U. c #D8D9C6",
"Y. c #D4D3CC",
"T. c #D8D7C9",
"R. c #DCDDCB",
"E. c #C0CBD0",
"W. c #C8D5D9",
"Q. c #D4D6D7",
"!. c #DEDED1",
"~. c #DDDAD9",
"^. c #E1DDCF",
"/. c #FEDEC0",
"(. c #E2DFD2",
"). c #E2DCDC",
"_. c #DFE0CF",
"`. c #E1E0CF",
"'. c #FEE6C9",
"]. c #FEE5CB",
"[. c #E4E1D4",
"{. c #E9E3D7",
"}. c #E7E3DB",
"|. c #ECE5DB",
" X c #EDE8DE",
".X c #F9E8D7",
"XX c #C3DCE4",
"oX c #CCDCE3",
"OX c #C4DEE9",
"+X c #D4DEE2",
"@X c #E6DFE0",
"#X c #CBE2E7",
"$X c #CDE4EB",
"%X c #DBE3E6",
"&X c #D2E5EC",
"*X c #DBE6EC",
"=X c #D5E9EE",
"-X c #DDE9EE",
";X c #D2E6F2",
":X c #D9E7F2",
">X c #D3E9F2",
",X c #DCEAF2",
"<X c #E4E2E2",
"1X c #EAE4E4",
"2X c #E1E9ED",
"3X c #E8EAEB",
"4X c #F1E7E2",
"5X c #F3EAE4",
"6X c #F8EBE7",
"7X c #F4ECEC",
"8X c #FDEEED",
"9X c #F7F0ED",
"0X c #FDF0EF",
"qX c #E2EEF3",
"wX c #FDEFF0",
"eX c #E4F2F6",
"rX c #EAF2F6",
"tX c #EDF8F7",
"yX c #E7F5F9",
"uX c #ECF6FA",
"iX c #EEF9FC",
"pX c #F5F3F3",
"aX c #FDF4F4",
"sX c #FEF8F7",
"dX c #F1F7FA",
"fX c #FEF7F8",
"gX c #F1FAFE",
"hX c #FFFEFE",
/* pixels */
"H.F.iXiXgXgXgXgXgXgXgXgXgXgXgXqXQ.y ;.Z.A.8...& X :.Y.J <.-.&.! & & @.3.}.- & & , &.;.V.uXuXgXiXgXgXgXgXgXgXgXgXgXgXiXqX",
"F.F.yXgXgXgXgXgXgXgXgXgXgXgXgXqX( 0.u W k ) :.7X7X0X1Xf.b ) ) X.1X(.(.0XfXpXpXpX~.) ) ( b x Q.uXiXiXgXgXgXgXgXgXgXgXuXqX",
"OXoXuXgXgXgXgXiXiXiXgXgXuX%X*.l L._.+.B.~.pXhXhXaXsXsXsX1XwXpXaX8X6XpXsXhXhXhXhXfXhXfXpX~.~.^ ] *.%XuXiXgXgXgXgXuXuXuX,X",
"iXuXiXiXgXgX2Xb :.+XuXuX<.c 9.wXwX7X9XsXsXhXhXhXhXhXhXhXfX8X8X8X0XsXhXhXhXhXhXhXhXhXhXhXsXfXfXL.7.( +XuXgXgXiXgXeX,X,X,X",
"gXdXgXgXiXqX( ~.>.n b n 2.7XaXfXhXhXhXhXhXhXhXhXhXhXhXfXaXwX8X8XaXfXaXhXhXhXhXhXhXhXhXhXfXfXaX0XwX).W -XgXgXgXgXqX-X>X-X",
"gXgXrXqXqX+Xn fX4XR.4.Z 0.fXhXhXhXhXhXhXhXhXhXaX8XaX0X8X8X8X8X8X8XaXfXhXhXhXhXhXhXhXhXhXhXfXaXaXwX5XT.^ *XgXgXdXuXuXyX,X",
"gXgX,X:X:XoXn fXwX|.R.5.H M.hXhXhXhXhXhXhXhXhXfXfXfXaX8X8X8X8X8X8X8XaXfXfXhXhXhXhXhXhXhXhXhXhXfXwX4X!._ 8.iXgXiXgXgXiX,X",
"gXgXqX,X:X&.z hXaX6X(.R.(.3 pX8XfXfXhXhXhXhXhXhXfXfXfX8X8X8X8X8X8X8XfXhXhXhXhXhXhXhXhXhXhXhXhXhXfXaX[.I.H B.iXgXiXtXyX,X",
"gXgX,X-X-.:.x fX8X8X^.R.#.y.8X8XaXfXhXhXhXhXfXaX8X8X8X8X6X8X8X6X4X0XhXhXhXhXhXhXhXhXhXhXhXhXhXhXhXaX XF , 3 qXiXeX-X=XJ.",
"gXgX-X-.>.<Xz fX8X).4X6XaX8X8XaXhXhXhXhXhXhXhXhXaX8X8X8X5X(.5X(.4XaXhXhXhXhXhXhXhXhXhXhXhXhXhXhXhXhX8Xd.A eXtXtXeX,X>XG.",
"qX:X=.1.wX7XH ( 0XaXfXaXfXfXhXhXhXhXhXhXhXhXhXhXhXhX8X8X8X[.R.R.{.8X8XaXfXhXhXhXhXhXhXhXhXhXhXhXhXsX6X[.A 8.iXgX$XJ.OX,X",
"*X-.2.pXfXhX3X~.hXhXhXhXhXhXhXhXhXhXhXhXhXfXfXaX8X8X8X8X4X8X^.R.R.{.5X0X8XaXfXfXhXhXhXhXhXhXhXhXhXfX8X X@.Q iXgX#XH.H.eX",
"S.l pXfXhXhXhXhXhXhXhXhXhXhXhXhXhXhXhXhXhXaX0X0X8X8X8X8X[.4XR.R.R.R.R.5XaXfXhXhXhXhXhXhXhXhXhXhXhXfXaX X@.W tXiX;X#X=XyX",
"! K.aXhXhXhXhXhXhXhXhXhXhXhXhXhXhXhXhXhXhXhX0X8X8X8X8X8X|.R.R.R.R.R.R.6X8X8XfXhXhXhXhXhXhXhXhXhXhXaXfX4Xd.i -XiXiXiXiXgX",
"p 7XhXhXhXhXhXhXhXhXhXhXhXhXhXhXhXhXhXhXhXhXhX8X8X8X0X[.R.R.R.R.g.R.R.(.8X8XfXfXhXhXhXhXhXhXhXhXhXhXwX7Xd.q -XiXgXgXgXgX",
"d 7XhXhXhXhXhXhXhXhXhXhXhXhXhXhXhXhXhXhXhXhXhXfX8X8X8X8X[.R.R._.d.g.g.R.|.).aXhXhXhXhXhXhXhXhXhXhXhX4X[.d.9 2XgXgXgXgXgX",
"*.K.fXhXhXhXhXhXhXhXhXhXhXhXhXhXhXsXhXhXfXfXfXfX8X8X8X8X8X[.R.R.j.6.5.j.R.2 aX0XfXhXhXhXhXhXhXhXhXsXfX|.j.q -XgXgXgXgXgX",
"qXd pXhXhXhXhXhXhXhXhXhXhXhXhXhX1X1.pXsXhXfXaX0X8X8X8X6X^.R.R.R.R.a.6.6.u.= aX8X8XfXhXhXhXhXhXhXhXaXaX[.R.9 %XeXiXgXdXuX",
"uXz 1XhXhXhXhXhXhXhXhXhXhXhXhXsXi   ) hXhXhXhX8X8X8X8X8X XR.R.R.R.R.u.6.>.& fXaXhXfXhXhXhXhXhXhXhXhX8X7X^.p oX-XyXgXiX,X",
"gXB. .fXhXhXhXhXhXhXhXhXhXhXhXfX^   1.hXhXhXhXaX8X8X8X8X0X{.R.R.I.g.6.,.:.& fX8XfXhXhXhXhXhXhXhXhXhXsX X5.^ =X-XuXgXiX,X",
"-XC.) 8XhXhXhXhXhXhXhXhXhXhXhXhXfX<XhXhXhXdXhXhX0X0X8X8X0X{.R.d.5.6.6.#.:.< Y.0X8XfXhXhXhXhXhXhXaXaXhX4Xf.^ yXiXiXiXiX2X",
",X*Xx ).9XhXhXhXhXhXhXhXhXhXhXhXhXhXhXpX>.Y.7X).2.0X8X8X0X6X`.R.j.6.6.#.} f Z 8X8X8XhXhXhXhXhXhXhXfX0X0X8X^ Q.uXtX%XiXqX",
",X,X<.< c sXhXhXhXhXhXhXhXhXdXhXhXfXpX:.P.:. .O.7X8X8X6X0X0X XR.R.d.X.X.} H . 1X8X8XfXhXhXfXhXhXhXhXhXfX8X3X^ +X=.p eX#X",
",X,XoXX y hXhXhXhXfXhXhXfX4XX. .0.~.7.K.hXhX<XpXfX8X8X6X`.8X5X_.R.I.3.}  ./ v f 0X8XfXhXhXhXfXhXfXfXfXhXsX0X}.h { l &XA.",
">X>X;X&.9.hXhXwXaX0.P.fXaXK.1.<X0...{ pXhXhXhXhXhXsX8X8X[.[.8X[.g.5.#.| X.K G 1 P.8XfX8X0XhXaXhXfXaXfXhXfX8X8X[.a.y 8.&.",
"J.J.F.A.3 pXfXwX9.y.>.L.L.>.hXhXhXfXhXhXhXhXhXhX8X8X8X8X6XR.[.R.I.6.X.{ | J F > 1X8X0X8X8XaXaXaXfXaX8XhXhXfX8XT.6.% 3 ..",
"F.F.D.~ 1.^ P.0.0.hXdX>.1.pXhXhXhXhXhXhXhXhXhXhXfX0X8X8X6X[.R.4XR.6.| K _ H F q aX8X8XsXfX8X0X8X8XhXfXhXhXaX0X|.A u.H 8.",
";X;XXXb 3XdX:.0.hXhXhXhXhXhXhXhXhXhXhXhXhXhXhXhXhXaX8X(.[.R.R.[.^.g.| G G G j f wX8XaXhXhXaX8XfXsXfXhXhXhXfX8X6X`.I.< eX",
"dXdX2Xl hXhXhXhXhXhXhXhXhXhXhXhXhXhXhXhXhXhXhXfX8X0X0X{.R.R.R.R.I.d.| G K K O @X8XfXhXhXhXhXfXfXhXhXhXhXaXsX8X|.R.u.3 yX",
"gXdX-Xl hXhXhXhXhXhXhXhXhXhXhXhXhXhXhXhXfX8XaXfXsX0X0X4XR.R.R.R.@.' J G K K O 1XaXhXhXhXhXhXhXhXhXhXhXhXhXfX0X{.g.u.1 yX",
"gXiXyX) Q.hXhXhXhXhXhXhXhXhXhXhXhXhXfXfXhX0X8X8X8X8X X4XR.R.R.d.= F G G K g n 7XhXhXhXhXhXhXhXhXhXhXfXaX0X8X6X[.d.u.< ,X",
"gXgXuX=.K.hXhXhXhXhXhXhXhXfXhXhXaXhXsXaXfX0X8X8X8X8XR.{.R.R.u.' ; G ` K K > K.sXhXhXhXhXhXhXhXhXhXhXhXfX7XR.^.d.u.u.< -X",
"gXgXeX8.O.wXaXhXhXhXhX0XfXfX0XfX0X0X0X8X8X8X0X8X{.5XR.^.R.R.u.Z q _ X.X.v f fXhXhXhXhXhXhXhXhXhXhXhXhXhXhX XR.d.6.v 1.B.",
"gXgX,X&Xd 1XwXhXhXaXfX8XaXaX8XaX0X0XaXsX0X8X8X8XR.[.R.a.T.R.H p #.X.#.4.3 L.hXfXhXhXhXhXhXhXhXfXhXhXfXhXhXfX XR.a.g 9 . ",
"uXuXqX*Xm.O.wXfXfXfX8X8XhXsXfXfXfXfXaXfXaX[.8X0X{.R.R.6.6.a.& O.X.+.6.H #.aXaXaXhXhXhXhXhXhXhXfXhXhXaXfXsXaX8XR.T.' !.- ",
",X,X:X:XC.) 7X8XfXhXfXfXsXsXhXfXfXhXfX8X8XR.[.4X XI.U.$.` 2 ` 4.:.6.u.= ).8X0XhXhXfXhXhXhXhXfX8XhXhXfX6X8X8X0X(.R.R.| [ ",
",X:X,X,X:Xb Q.8XfXfXaXfXfX|.7XhX9X8X0X0X9XI.U.U.d.$.5.2 v g 3.6.3.6.' ^ 6X8XwXhXaX8XhXhXhXhXhXfXhXhXaX8X|.[.}.R.R.u.n <.",
"OXOX,X,X$XC.p 4X0X8X5X8XaX|.[.9X[.}. X|._.a.$.' ' 9 2 F 6.6.6.5.6.6.= pX8XfX8XaX8X0XfXhXfXfXhXfXhX0X0X8X[.R.R.R.I.<.< eX",
"H.F.>X,X;XF.~ _ T.{.!.6X7X(.U._.g.4.U.R.$.$.* ; q J $.u.6.6.6.6.6.F 9.8X8XsX8XaXhXhXfXwXaX0X0XaXhXsX6X|.R.R.R.I.4.{ z yX",
"J.XX$X&X$XXXXX&./ 3.a.(.R.a a.I.2 < u.,.+ + G / H O 6.6.6.6.6.6.3.q P.7XaXhX8XfXhXhXhXaX8XfXfXsXhXhX6X^.U.a.T.u.#.i 8.eX",
"iXiXJ.H.#XiXiXtX:.. g 6.h J > h n } : 1 K K G _ 9 ' u.p.y.6.6.6.3.X 1 } fXhXhXhXhXhXhXhXfXhXhXfXhXhXaX6XR.p.6.$.X.t m.J.",
"gXgXA.H.#XiXdXuXB.h ' a a 6.,.a 5.,.|  .K G G G 2 @.g.U.h.6.6.6.3.q G 2.hXhXhXhXhXhXhXhXhXhXhXfXaXhXfX8X[.g.6.X.X.t C.J.",
"gXiXyXyXyXiXgXB.v u.6.' u.5.u.u.6.6.4.,.{ _ G j 2 j.R.R.j.p.j.p.6.5.1 fXsXhXhXhXhXhXhXhXhXhXhXfX8X8X0X0X[.R.3.} X.y J.,X",
"gXgXiXgXiXiXiX( +.6.6.s.j.5.a.5.I.6.6.,.X.#./ + 6.R.R.R.g.j.U.y.6.j 0.sXsXhXhXhXhXhXhXhXhXhXhXhX8X4X X8X[.U.3.X.x ~ J.eX",
"yXyXgXgXgXdXgX%Xx I.d.R.j.I.R.g.U.5.6.+.1.X.v a g.R.R.R.U.U.I.5.3.q 7XfXfXhXhXhXhXhXhXhXhXhXhXhXsX5XR.^.^.U.y.X.y W.$XyX",
"-X-XgXgXgXgXuXW I.^. X_._.R.R._.R.a.6.4.6.+.: $.R.R.R.R.R.R.a.6.3.q fX0XfXaXfXhXhXhXhXaXhXhXhXhXsX0X{.R.U.U.6.^ [ iXgXgX",
">X>XuXgXgXgXE.) 4X8X6X6X0X`.R.R.R.d.6.5.3.H X R.R.R.R.R.a.6.5.6.H :.aXaXaX8XfXhXaXhXfX8XhXhXhXhXhX0X{._.d.R.6.^ ..uXgXgX",
"J.J.uXgXuX2Xn 7XaX8X0X0X8X`.`.R.j.u.5.6./ c j. XR.R.R.j.6.6.6.a.: }.8X0X8XaXfX8XhXhXfXaXhXhXhXaXsX0X{.j.p.j.6.X.,  .iXgX",
"H.A.uXiXiXQ.( sXhXaXwXfX4X(.0X|.j.R.6.| j 4X4X XR.T.g.a.6.,.5.a.= (.7X{.8X8X8X8XaXhXaX0XfXhXhXfX8X8X{.g.6.4.+.X.< qXiXgX",
"#X#XtXgXiXb %XhXhXaXfXhXwXaX8X4XR.R.| x 9X8X8X|.[.g.,.6.6.+.3.5.: T.!.[.8X8X8XfX8XfXfXfX8X8XfXaX8X8X(.I.6.#. .^ [ yXuXiX",
"iXgXgXiXW.b sXhXhXfXhXhXaXfX8X4XR.R.j u.8X8X8X4X(.6. .X.X...} } : R.T.6X8X0X8X8XfX8XsXhXaX8XfX8X8X(.d.6.6.:. .^ [ >X:XuX",
"iXgXgXiXV.z :.hXhXhXhXhXfXhX8X XR.U.q }.8X0X9X[.I.,.] 3 {  .X.n h R.[.8X0X X0XfXhXaXhXhXaX5X|.8XT.a.5.6.#.} X.p W.,X,XiX",
",X-XiXgXdX%XZ hXhXhXhXhXhX0X5XR.R.I.2  X X5X5XR.d.w s y u t 1 & f T.^. X[.' |.aXhXsXsXsX8X{.R.I.4.v ,.#...X.s Q.#XA.J.eX",
",X,XiXgXgXE. .sXhXhXhXfX8X[._.^.g.U.j 6.{.4X^.I.3.J p ;.Z.N.n.8.d #.I.d.j > s.{.8Xc ).8Xy.I.I.4.7 N 8  .X.= @ * N.D.J.eX",
":X,X&X$X>Xz Y.5X8XhXaX8X[.R.R.I.6.6.$.w ^.j.T.4.6.O.O.i C.$X&X&Xl #.6.a P I a s.@.e H K.6 a y.5 V z.4 ] #.= U 0 ] =X,XyX",
",X,XA.D.#Xz T.R.3.|.|.[.4.H j.5.6.6.| 5 6.6.d.6.y.O.X.E ] iXgXuXl } > o.b.l.5 ' $ t.%.w L L = V r.b.k.5 O 6 U S X.uXgXgX",
";X>XOXJ.$X8.H #.+ 5.R.4.e P w p.u.| e Y w u.6.5.5.X.X.*.< rXgXiXl 7 L x.b.c.Y # U l./.h.k.i.B N l.b.b.L m $ U S *.dXgXuX",
"H.J.eXyXyXd e C c.e @.r c.b.o.= J e c.r.L h u.$.X.X.} :.: tXgXiX8.= t.'.'.c.q.m V l.b.b.b.w.V N '.v.b.k.L $ U V *.gXiXqX",
"F.A.yXiXuXd w.b.b.c.N z.b.v.r.r.N v.b.r.B G g > O.8 > n 5 W.gXgXW.5 t.].].c.q.$ V z.'.'.x.R M N .X].'.z.Y V U S X.gXiXqX",
"&X-XgXgXgXd e.].'.v.# z..Xv.w.m o.v.e.B 0 o S 6 > M D # S X.dXdX%X# q.z.v.t.q.6 D r.t.c.t.R M N c.v.c.l.R U T M 9.gXgXrX"
};
