/* XPM */
static char *result[] = {
/* columns rows colors chars-per-pixel */
"60 60 221 2 ",
"   c #0E0D0D",
".  c #2D2D2C",
"X  c #373735",
"o  c #4C3F30",
"O  c #44433D",
"+  c #4A4A3F",
"@  c #504237",
"#  c #644C38",
"$  c #76583C",
"%  c #494845",
"&  c #4B4C4B",
"*  c #524B44",
"=  c #4E504E",
"-  c #545449",
";  c #52524C",
":  c #59544C",
">  c #4C5252",
",  c #545453",
"<  c #575757",
"1  c #5B5A53",
"2  c #5B5C5C",
"3  c #624F41",
"4  c #665549",
"5  c #765D44",
"6  c #625E55",
"7  c #625E5B",
"8  c #5F6158",
"9  c #7B604D",
"0  c #62635C",
"q  c #6D685B",
"w  c #766353",
"e  c #766A5C",
"r  c #575F60",
"t  c #5A6367",
"y  c #636462",
"u  c #6C6C62",
"i  c #66696A",
"p  c #6B6C6B",
"a  c #726D69",
"s  c #727266",
"d  c #74746B",
"f  c #7B7A6C",
"g  c #6C6E72",
"h  c #6D7274",
"j  c #6D7278",
"k  c #747475",
"l  c #7C7D72",
"z  c #757979",
"x  c #7B7C7C",
"c  c #826345",
"v  c #9E764D",
"b  c #846753",
"n  c #8A6C54",
"m  c #977656",
"M  c #A37B54",
"N  c #967B65",
"B  c #807D78",
"V  c #7F827A",
"C  c #A98159",
"Z  c #BA8C5E",
"A  c #848476",
"S  c #878876",
"D  c #85847A",
"F  c #8A8A7B",
"G  c #AD876D",
"H  c #AB9076",
"J  c #B9987D",
"K  c #CB9867",
"L  c #C2987A",
"P  c #D4A16D",
"I  c #D5A279",
"U  c #7F7F81",
"Y  c #7A8387",
"T  c #7D9097",
"R  c #848383",
"E  c #8C8D83",
"W  c #868889",
"Q  c #8D8A8B",
"!  c #918F87",
"~  c #919085",
"^  c #939389",
"/  c #9A9B8C",
"(  c #8E8F91",
")  c #8B9699",
"_  c #959594",
"`  c #979797",
"'  c #999796",
"]  c #9B9B95",
"[  c #949A9C",
"{  c #9C9B9A",
"}  c #B89D81",
"|  c #A19E9E",
" . c #9FA198",
".. c #A3A396",
"X. c #A4A49D",
"o. c #A9A79E",
"O. c #ABAA9C",
"+. c #B4AF9A",
"@. c #809DA4",
"#. c #979EA2",
"$. c #8EA5AD",
"%. c #9AA3A7",
"&. c #9CB4BC",
"*. c #A3A3A2",
"=. c #A9A5A5",
"-. c #ACACA2",
";. c #A6A9AA",
":. c #ACABAC",
">. c #B1ACA9",
",. c #B4B4A6",
"<. c #B8B9A7",
"1. c #B6B6AA",
"2. c #B7B9AB",
"3. c #BBBBAB",
"4. c #ABADB0",
"5. c #ABB5B9",
"6. c #B5B3B2",
"7. c #BBB9B8",
"8. c #DEA984",
"9. c #D9AA88",
"0. c #DAB596",
"q. c #E0B28E",
"w. c #E5B794",
"e. c #C0BFBE",
"r. c #BFC0AE",
"t. c #ECC09E",
"y. c #C1C1AF",
"u. c #C3C4B4",
"i. c #C8C7B7",
"p. c #C8C9B7",
"a. c #C6C3BC",
"s. c #CCCCBB",
"d. c #D1D1BF",
"f. c #EDC8A9",
"g. c #F0C7A6",
"h. c #F1CAA7",
"j. c #F1CBAB",
"k. c #F5D4B3",
"l. c #F8D7B6",
"z. c #FCDDBB",
"x. c #9CB8C3",
"c. c #A8BCC4",
"v. c #B5BDC2",
"b. c #C1BFC0",
"n. c #BAC4C7",
"m. c #B9C9D2",
"M. c #AED2DD",
"N. c #B3D3DE",
"B. c #BBD4DE",
"V. c #B4D6E2",
"C. c #BBD6E3",
"Z. c #B5D9E3",
"A. c #BDD9E3",
"S. c #C5C2C2",
"D. c #C8C9CA",
"F. c #D2CFCF",
"G. c #D3D3C2",
"H. c #D8D9C6",
"J. c #D4D3CC",
"K. c #D8D7C9",
"L. c #DCDDCB",
"P. c #C3CDD2",
"I. c #CCD7DD",
"U. c #D5D4D6",
"Y. c #DEDED1",
"T. c #DDDAD9",
"R. c #E1DDCF",
"E. c #FEDEC0",
"W. c #E2DFD2",
"Q. c #E1DCDC",
"!. c #DFE0CF",
"~. c #E1E0CF",
"^. c #FEE6C9",
"/. c #FEE5CB",
"(. c #E4E1D4",
"). c #E9E3D7",
"_. c #E7E3DB",
"`. c #ECE5DB",
"'. c #EDE8DE",
"]. c #F9E8D7",
"[. c #C2DCE4",
"{. c #C6DCE7",
"}. c #CCDDE4",
"|. c #D2DDE5",
" X c #E6DFE0",
".X c #C8E2E8",
"XX c #CCE3EC",
"oX c #D4E5EB",
"OX c #D9E5E9",
"+X c #DBE7EC",
"@X c #DCE9EE",
"#X c #D6E6F1",
"$X c #DAE7F1",
"%X c #D5EAF3",
"&X c #D7ECF3",
"*X c #DBEAF2",
"=X c #E3E2E2",
"-X c #EAE4E4",
";X c #E2EAEE",
":X c #E9EAEB",
">X c #F1E7E2",
",X c #F3EAE4",
"<X c #F8EBE7",
"1X c #F5ECEC",
"2X c #FDEEED",
"3X c #F7F0ED",
"4X c #FDF0EE",
"5X c #E3EEF3",
"6X c #FDEFF0",
"7X c #E5F1F6",
"8X c #E9F3F6",
"9X c #E5F4F9",
"0X c #EBF5FA",
"qX c #EEF9FC",
"wX c #F5F3F3",
"eX c #FDF4F4",
"rX c #FEF8F7",
"tX c #F2F7FC",
"yX c #FEF7F8",
"uX c #F1FAFE",
"iX c #FFFEFE",
/* pixels */
"*X*XV.V.[.qXqXuXuXuXuXuXuXuXtXtX8XY P.OXXXx.@.> % *.J.E v.D.P.5.> > ] ,._., < > i n.c.x.V.%XqXqXuXuXuXuXuXuXuXuXuXuXuXuX",
"*X%XV.V.[.0XuXuXuXuXuXuXuXtXtX8X( 6.h W j Q | 1X1X1X-Xa.x ! Q | -XW.(.4XyXwXwXwXT.Q Q W t p I.9XuXuXuXuXqXuXuXuXuXuXuXuX",
"[.[.&X9X5XtXqXqXqXqXuXuXqXOX#.g D.Y.=.a.T.wXiXiX6XyXyXrX-XeXeX2X2X<XwXrXiXiXiXiXiXiXyX3XT.T.R ( %.;X8X5X5X0XuXuXuXuX0X7X",
"Z.V.0XuXtXqX5Xz *.|.qX8X;.k 6.6X2X<XwXyXrXiXiXiXiXiXiXiXyX6X6X2X4XrXiXiXiXiXiXiXiXiXiXyXyXyXyXD.6.Q OX@X*X7XuXuXuXuXuX@X",
"B.[.0XuXqX5XW T.-.x z x >.1XyXyXiXiXiXiXiXiXiXiXiXiXiXiXeX2X2X2XeXyXeXiXiXiXiXiXiXiXiXiXyXyXeX4X2XQ.Y .X#X5XuXuXuXuXqX7X",
"uXqXuXuX0XI.z yX>XK.6.D 7.rXiXiXiXiXiXiXiXiXiXeX6X2X2X4X2X2X2X2X2XeXyXiXiXiXiXiXiXiXiXiXiXyXeXeX2X<XK.x }.5XuXuXuXuXuXuX",
"uXuXuXuX9X}.x yX2X`.L.3.D b.iXyXiXiXiXiXiXiXiXyXyXyX6X2X2X2X2X2X2X2XeXyXyXiXiXiXiXiXiXiXiXiXiXyX6X>XY.^ ;.5XuXuXuXuXuXtX",
"uXuXqXuX8X[ k iXyX<XW.K.W.2 wX2XyXyXiXiXiXiXiXiXrXyXyX2X2X2X2X2X2X2XyXiXiXiXiXiXiXiXiXiXiXiXiXiXiX4X(.G.x v.5X5XqXqXqX9X",
"uXuXqXqX;.*.h yX2X2XR.L.o.e.2X2XeXyXiXiXiXiXyXeX2X2X2X2X<X2X2X<X,X6XiXiXiXiXiXiXiXiXiXiXiXiXiXiXiXeX'.A > < {.+X0XqXqX;X",
"uXuX0X4.;.=Xg yX2XQ.>X<XeX2X2XeXiXiXiXiXiXiXiXiXeX4X2X2X,XW.,XW.'.eXyXiXiXiXiXiXiXiXiXiXiXiXiXiXiXyX2Xp.x oX%X%X9XqXqX*X",
"tXqX%.,.6X3XD W eX4XyXyXyXyXiXiXiXiXiXiXiXiXiXiXiXiX2X2X2XW.L.L.(.4X2XeXyXiXiXiXiXiXiXiXiXiXiXiXiXrX2X(.V &.V.C.9XqX0X.X",
"qX;.:.3XyXiX:XT.iXiXiXiXiXiXiXiXiXiXiXiXiXyXyXeX2X2X2X2X>X2XR.L.L.(.<X4X2XeXyXyXiXiXiXiXiXiXiXiXiXeX2X`. .U N.V.9XqX0XA.",
"+Xk wXyXiXiXiXiXiXiXiXiXiXiXiXiXiXiXiXiXiXeX4X4X2X2X2X2X(.>XL.L.L.L.L.<XeXyXiXiXiXiXiXiXiXiXiXiXiXyXeX'...U oXoX9XqXqX&X",
"#.b.eXiXiXiXiXiXiXiXiXiXiXiXiXiXiXiXiXiXiXiX4X2X2X2X2X2X`.L.L.L.L.L.!.<X2X2XyXiXiXiXiXiXiXiXiXiXiXeXrX>Xs.8 +XqXuXqXuXuX",
"p 6XiXiXiXiXiXiXiXiXiXiXiXiXiXiXiXiXiXiXiXiXiX4X2X2X4X(.L.L.L.R.p.L.L.W.2X2XyXyXiXiXiXiXiXiXiXiXiXiX6X,Xi.8 *XuXuXuXuXuX",
"i 1XyXiXiXiXiXiXiXiXiXiXiXiXiXiXiXiXiXiXiXiXiXeX2X2X2X2X(.L.L.!.p.s.s.L.`.Q.eXiXiXiXiXiXiXiXiXiXiXiX:X(.p.8 @XuXuXuXuXuX",
"[ S.yXiXiXiXiXiXiXiXiXiXiXiXiXiXiXrXiXiXyXyXyXyX2X2X2X2X2X(.L.L.d.3.3.d.~.: eX2XyXiXiXiXiXiXiXiXiXrXrX`.d.0 ;XuXqXuXuXuX",
"@Xp wXiXiXiXiXiXiXiXiXiXiXiXiXiX-X:.wXrXiXyXeX4X2X2X2X<XR.L.L.L.L.y.3.3.u.% yX2X2XyXiXiXiXiXiXiXiXeXeX(.~.1 OX7X0X8X0XqX",
"+Xp -XiXiXiXiXiXiXiXiXiXiXiXiXrXy   Q iXiXiXiX2X2X2X2X2X'.L.L.L.!.L.r.3.=.% eX6XiXyXiXiXiXiXiXiXiXrX6X2XR.u I.%X*X*X@XqX",
"$Xc.` yXiXiXiXiXiXiXiXiXiXiXiXyXR   :.iXiXiXiXrX2X2X2X2X4X).L.L.G.s.3.-.*.% rX1XyXiXiXiXiXiXiXiXiXiXyX`.<.Y *X*X*X@X5X0X",
"$Xm.W 1XiXiXiXiXiXiXiXiXiXiXiXiXtX-XyXiXiXyXiXyX4X4X2X4X4X).L.p.<.3.3.X.*., J.2X2XyXiXiXiXiXiXiXrXyXyX>Xa.R oX*X9X0X0XtX",
"*X*Xg Q.3XiXiXiXiXiXiXiXiXiXiXiXiXiXiXrX*.U.1XQ.>.4X2X4X4X<X~.L.G.3.3.X.` a B 2X2X2XiXiXiXiXiXiXiXyXeX4X1XW m.@X7XOXtXuX",
"*X*X;.< k rXiXiXiXiXiXiXiXiXiXyXiXrXwX| U.#.' X.1X2X2X>X4X4X'.L.L.u.| { ` D . -X2X2XyXiXiXyXiXiXyXiXiXyX2X-XY m.%.i qX0X",
"*X&X|.X t iXiXiXiXyXiXiXyX-X[ ` 7.T.6.b.iXiX=XwXyX2X4X>X~.2X,X~.L.G.,.' ` E l a 4X2XyXiXiXiXyXiXyXyXyXiXrX2X_.i / k 0X@X",
"*X*X#X#.6.iXiX6X6X7.F.yXeXS.:.=X7.[ _ wXiXiXiXiXiXyX2X2X(.(.2X(.s.3.{ ] ' F S 1 F.4XyX2X4XiXeXiXrXeXyXiXyX2X2X_.u.g n.%.",
"*X&X{.C.r wXyX6X6.n.=.D.D.;.iXiXiXiXyXiXiXiXiXiX2X2X2X2X<XL.W.L.G.3.{ _ { F A ,  X2X2X4X2XeXeXeXyXeX2XiXiXyX2XK.2.& 8 T ",
"&X%XC.T :.R F.7.7.iXrX;.=.wXiXiXiXiXiXiXiXiXiXiXyXeX2X2X2XL.L.>XL.3.{ F ~ S A 7 eX2X2XrXyX2X4X2X4XiXyXiXiXeX2X`.V 3.V $.",
"#XXXC.j :XtX*.7.rXiXiXiXiXiXiXiXiXiXiXiXiXiXiXiXiXeX2XW.(.!.L.(.R.s.] S S F f a 6X2XeXiXiXeX2XyXrXyXiXiXiXeX2X<X!.G.; .X",
"Z.N.OXg iXiXyXiXiXiXiXiXiXiXiXiXiXiXiXiXiXiXiXyX4X4X4X).L.L.L.L.d.i./ S F F O  X2XiXiXiXiXiXyXyXiXiXiXiXyXyX4X`.!.r.< 9X",
"Z.N.OXg iXiXiXiXiXiXiXiXiXiXiXiXiXiXiXiXyX2XeXyXrX4X4X>XL.L.L.L.O.] F S F F O -XeXiXiXiXiXiXiXiXiXiXiXiXyXrX4X).s.r.< 0X",
"5X&X9XW U.iXiXiXiXiXiXiXiXiXiXiXiXiXyXyXiX2X2X2X2X2X`.>XL.L.L.p.+ A S S F s x 1XiXiXiXiXiXiXiXiXiXiXrXeXeX2X<X(.u.r.> A.",
"uXqXqX%.S.iXiXiXiXiXiXiXiXyXiXiXeXiXrXeXyXeX2X2X4X<X!.(.L.L.r./ - F ~ F F : S.rXiXiXiXiXiXiXiXiXiXiXiXeX1XL.R.p.r.u.> M.",
"uXuXuX7.| eXeXiXiXiXyXeXyXyX4XyXeX2X2X2X2X2X2X2X).<XL.L.L.L.r.l 0 ^ { { B p eXiXiXiXiXiXiXiXiXiXiXiXiXiXiX'.L.u.3.l $.$.",
"uXuXqXqXk :XeXiXiXeXrX2XeXeX2XeX4X2XeXyX4X2X4X2XL.(.L.u.K.K.D p *.` | <.7 D.yXyXiXiXiXiXiXiXiXyXiXiXyXiXiXyX`.L.i.s 2 . ",
"uXuXqXqXn.{ 2XyXyXyX4X2XiXrXyXyXyXiXeXrXeX(.2X4X(.L.L.3.3.u.% [ ` ] 3.D X.wXyX4XiXiXiXiXiXiXiXyXiXiXeXyXrXeX2X~.H./ !.= ",
"uXuX7X7XP.W 1XeXyXyXyXiXrXrXiXyXyXyXyX2X2XL.(.>X'.H.H.O.^ 1 ^ 1.=.3.y.; Q.2X4XiXiXyXiXiXiXiXyX2XiXiXeX<X2X2X4XW.L.L.] ` ",
"uXuX*X@X*Xz U.2XrXyXeXyXyX`.1XiX2X2X4X2X3XG.G.H.u.+.<.1 l s ,.3.,.3./ R 2X2XeXiXeX2XiXiXiXiXiXyXiXiXeX2X`.(.(.L.L.r.x ;.",
"uXqX*X%X+X[.p ,X4X2X>X2XeX`.(.3XY._.'.'.(.u.O./ / 8 1 A 3.3.3.3.3.3.& 4X4X4X2XeX2X4XyXiXyXyXiXyXyXeXeX2X(.L.L.!.G.-., 0X",
"uXqXA.Z.C.#X#.Q K.`.L.2X1XW.H.~.p.<.H.!.O.O.* - 8 E O.3.3.3.3.3.3.A 6.2X4XrX2X4XiXiXyX6XeX4X4XeXiXrX<X`.L.L.L.G.1.^ j ;X",
"uXqXA.V.C.*X+X[ E ,.i.W.K.u u.G.8 , 3.O.+ + S ! R O 3.3.3.3.3.3.,.0 F.1XeXiX4XyXiXiXiXeX2XyXyXrXiXiX<XR.H.u.K.r.X.t n.*X",
"uXuXoXXX.XXX.X.X) . s 3.d D 1 d B ' ; 1 F F S ~ 2 ..3.y.3.3.3.3.,.X < ' yXiXiXiXiXiXiXiXyXiXiXyXiXiXeX<XL.y.3.O.{ 8 n.@X",
"uXuXqXqX9XZ.V.XXn.d / u u 3.-.q <.;.' ` E S S S 1 ..s.L.G.3.3.3.,.q S >.iXiXiXiXiXiXiXiXiXiXiXyXyXyXyX2X(.s.3.{ { 8 m.@X",
"uXuXtXuX9XA.C.5.l r.3./ r.3.r.r.3.3.<.-._ ! S f : G.H.L.H.3.G.3.3.<.< yXrXiXiXiXiXiXiXiXiXiXiXyX2X2X4X4X(.L.,.' [ i &X&X",
"uXuXuXuXqX0X9XR ..3.3.i.d.<.u.2.G.3.3.-.] X.E O 3.K.L.L.s.G.L.y.3.f 7.rXrXiXiXiXiXiXiXiXiXiXiXiX4X>X>X2X~.L.,.{ z #.#X[.",
"uXqXuXuXuXuXtX5Xk H.p.L.G.G.L.p.H.2.3. .-.{ k u d.L.L.L.H.L.d.<.,.0 1XiXyXiXiXiXiXiXiXiXiXiXiXiXrX<XK.~.L.H.3.{ t {.%XC.",
"0X8X8X8X0XuXqXR G.R.'.~.!.L.L.!.L.u.3.,.3. .; O.L.L.L.L.L.K.u.3.,.2 yX2XyXeXyXiXiXiXiXeXiXiXiXiXyX2X(.!.L.L.3.R ( XXXXXX",
"*X*X*X*X5XtXn.Q >X2X<X<X4X~.L.L.L.p.2.3.,.R X !.L.L.L.L.r.3.3.3.D =.eXeXeX2XyXiXeXiXyX2XiXiXiXiXiX4X).!.p.L.3.R Y M.C.9X",
"5X*X%X%X*X@Xx 1XeX4X2X4X3X~.(.L.d.r.3.2.E l s.>X!.L.H.d.3.3.3.u.; _.1X2X2XeXyX2XiXiXyXeXiXiXiXeXrX4X`.d.y.G.2.%.> Y [.9X",
"0X0XA.Z.XXI.W rXiXeX6XyX>XW.4X`.d.L.3.] f >X>X'.L.H.s.u.2.-.3.u.* W.1XW.2X2XeX2XeXiXeXeXyXyXiXyX2X2X`.s.3.2. .{ , oX7X0X",
"tXqXA.V.A.k _.iXiXeXyXiX6XeX2X>XL.L.] k 3X2X2X`.(.s.-.3.3. .,.2.& L.W.(.2X2X2XeXeXeXeXyX4X2XyXeX2X2X(.s.3.X.` R [ uXtXuX",
"qXqXXX.Xv.z tXiXiXyXiXiXeXyX2X>XL.L.f r.2X4X2X'.(.3.` { ` ` ` ' ; L.L.<X4X4X2X2XrX2XrXiXeX2XyX2X2XR.p.3.3.X._ R [ tXqX0X",
"tXtXqX0Xn.h *.iXiXiXiXiXyXiX2X'.L.H.0 _.2X4X2X(.G.=._ < ` ` { U s L.W.6X2X>X4XyXiXeXiXiXeX<X`.2XK.u.3.3.X.' { t I.qXqX*X",
"uXuXqXuX0XOXx iXiXiXiXiXiX2X<XL.L.K.1 '.-X<X>XL.s.0 h g h t < & p H.R.'.(./ `.eXyXrXrXyX2XW.L.G.1.f >.| ` ` i P.0XuXqX5X",
"qXqX7X7X7XD.` rXiXiXiXyX2X(.!.L.i.H.d 3.`.'.R.G.1.Q p v.%Xm.x.x.t o.d.i.f : i.).2Xk =X1Xe.G.G.3.6 n 7 { #.* o % I.tX0X.X",
"qXqX*X*X@Xh K.>X4XiXwX2X(.L.L.d.r.3.O.q R.G.H.<.3.|  .y m.V.N.Z.r X.3.q H J u i.O.w D S.5 u 3.7 M j.* ( | * K 9 [ qX0X[.",
"qXqX*X%X@Xh J.L.>.`.`.(.2.D G.3.3.3.] 4 3.3.i.<.3.{ { Y Y {.B.I.t ` 1 } E.h.3 / $ w.+.q G G * M q.z.f.6 o c K M [ qX0X.X",
"$X@X$X*X#X$.l  .@ 1.Y.1.w H q r.3.] w L q e.<.<.3.] ' *.& &XqXqXg 6 G j.z.k.L # K h.^.0.h.t.m n g.z.z.N 5 $ K C #.tXtXuX",
"%X@X*X*XXXr w N k.w ..e k.z.} * F w k.q.G d r.O.| _ ` *.& @XqXuX7.: w./.^.k.8.c M h.z.^.z.8.M b ^.z.z.h.G $ K M [ qXtXuX",
"&X$X{.{.{.i 9.l.z.k.b j.z.l.q.0.n l.z.w.N A s - | 0 - x 4 P.qXtX;X4 w.]./.l.8.$ C j.^.^.j.I M b ]./.^.k.I v K M [ qXuXuX",
"*X%XZ.Z.C.p 0.].^.l.# j.].l.8.c } k.0.m c o M 5 : v Z # C ` qXtX;X# 8.j.l.w.8.$ C q.w.k.w.I M b k.l.l.g.I K P m 4.qXuXuX"
};
