/* XPM */
static char *result[] = {
/* columns rows colors chars-per-pixel */
"60 60 42 1 ",
"  c #B4D4DE",
". c #BAD5DF",
"X c #B1D8DF",
"o c #B9DADF",
"O c #AED9E4",
"+ c #B3D6E2",
"@ c #B9D6E3",
"# c #B3D8E4",
"$ c #BCDAE4",
"% c #BDDBE9",
"& c #C3DCE5",
"* c #C8DFE6",
"= c #C5DEE9",
"- c #CADFEA",
"; c #C6E1E7",
": c #CAE1E6",
"> c #C7E1EB",
", c #CCE3EC",
"< c #D2E6ED",
"1 c #DCE7EE",
"2 c #D4E9EE",
"3 c #DBE9EF",
"4 c #CDE4F1",
"5 c #CEE8F3",
"6 c #D3E6F1",
"7 c #DCE7F3",
"8 c #D5EAF2",
"9 c #DBEAF2",
"0 c #D7EEF8",
"q c #DBEDF8",
"w c #DEF1F5",
"e c #E2EEF4",
"r c #E5EEF8",
"t c #E4F2F6",
"y c #EAF3F7",
"u c #E5F4F9",
"i c #EBF5FA",
"p c #E6F8FB",
"a c #EEFAFD",
"s c #F0F6FC",
"d c #F1FAFE",
"f c #F8FCFE",
/* pixels */
"#+pddddddddddddy33%Ootddaddda*+@q9939939@#>addddddddddddddse",
"++iddddddddddddi39%#oeddddddp:#@09339909##;addddddadddddddie",
"=*idddddddddddat6,,;:ydaddddi<&;64<99999==2addddyiidddddsipe",
"iiddaddddddaddd9##waaaaddddddiap++>99999iaadddddq9rdddade999",
"ddddddddddddddd3  eddaddddddddds  &09993ddddddddq9esddddt339",
"ddtereeyddtttadu99yadddaetpdaadd33,&=,99rriadyer99eaddddyyt9",
"dde7999tdd99eaaadddddddy39tddadddd8 #,3199waat9999taaddadda9",
"dd999e9ydde39iaiuuadddda39tiaaadddw%=6ee669aat99999aaaadaip3",
"ddq9eaadade9337,  wadddi39779iddddddddda +*adt9993371edde13$",
"dd99eaadda99909,OXwddddi9998qidddddddadd +*sdt9993990taat38@",
"ee99eaayee996&$,qtaadddi99=$&tdadddddddfeeyaat99996%$2ad,%&9",
"9933eddy39996@+-addddddi99=#@wddddddddddaddddt9999,@#,dd;#$t",
">,,,2adyte<,>,,9dayyiddirt2,<tddytityidddsy99333,4,<,3dd2,<i",
"++@+>addaa&+%uaddde39idddddaaada99399tddddw@+=90$#&pdiddaaad",
"@$@@,aadaa:o*iddddt39iaaaadssddd75979yaaddw$@,88$@;idddddddd",
"wwwwtaddddtwtdddda933eeeeeidddda$%,999eeaaatwq79wwuadddddddd",
"dsfdddfdddddddddddt999999qtdddda O&09973addddy97addddddddddd",
"dsfdaiyyiyddaddaypq9999999999idd::,,,273daadd9,,idiyiiiysddy",
"ddddi33177iddddi9893999999=O wdadd2 +,93dddda2X iai99239yda9",
"aaddi33389addddi2999999099-+@edddd9.#,89dddda2o idi99933ydae",
"99ddaaa3@.taddadiae9<&@#@@2pidddaaisp,o.qetadappddi99eaiddae",
"97idaaa<+ udddddddq98$@##X2dddddddddd,+.09radsddady99tddadd3",
"99rtysde<<pddddddd2-&<<<<2taddddeyydae<<==,,<tddddt,&9adute:",
"9999eadddddddddddd>+@taaadadddda33tdadaa ##O :adddw$#,ddt32o",
"26658tuiddaaddiadd,%&yddaddddiai97qaiddd&$&%&3ddddt=%<dd95<&",
"$@#$$%&2dddaieetddptisddaadddte99999eyddtptytaddddipuidd,%&w",
"++# XX ,ddddie9eddddddddddddie97777q9idddadddddadaddfddd;X&u",
"<<52225wddytt97edddddyrtpuiddytt976>:9dddddddyytaddddddd3<2y",
"dddddaasdde3993tddddie3993uadadd39,##0dddddadt91addddddaddds",
"dddadaaddae39999ypddae9999uaadda28,@@9dddddait91padddipppysa",
"ddadye3tdaddi99,. edae9997993ida @,aadddddp3799999319,..+X%t",
"ddady33uddddie9,# wdi97393999iaa #:addddddi3997699990,+ ++$t",
"ddtt9994>>pdu>%,wwiddyiiii<%;waaweuddiresdiiiiya996==,qt9wty",
"dd93979>++tdt%#;adddddddda,+$wdadaaddt63sfdddddd976+O,dadaaa",
"ii99979,&&pau,;2addddiiidd2;>tddddiiye33qqyaduwwte8,=8dddddd",
"9999q99waaaaaaaadaadae3edddaaaadddy9e990@@:aa2@.paaaiaaddddd",
"9999897tdddddddddddda99edddddddsddt79998+#:ad2++idddsdddadds",
"==796=&3dddsdaadddddie9qadddddddrre9q99989eddu89ddddddddteyi",
"#+616@+,dddddaddddddde39dddsddda79997999dddddddddddddddde99i",
"$&<<,&=2aaaiaddaddiite7etwpddadd298996<,aadipyapaddddiiie99t",
"aa@+;paadde33adddae33906  3ddadd97977=+ aay39393pddddy98976$",
"aao :adddd99eadddat39985+o2ddddd77q97=  adi39993addddu998q8$",
"ddipiddi9w99339tddt36=@;uupddt9999,$%6ypddp970993eesdy99=@%w",
"ddaddadt9999999edaw38$#%aaddd398994++8ddadi3799133eady99&+%t",
"yyaddddy33,,,,,9dde33<:<addda2,,,,>::tddadiretrt,42adt,,,:<u",
"33iddddt90%X##+>dde33addddddp&++#+,addddddadadda$.&pd2# 0ddd",
"88iddddy9q$$$%@,ddw29isdddddp;@$%@<asdddaaaddddd&o:ydwo@tddf",
"%&iddddiiittwtwysd,$;uayeeydatttwwpdddddeetdddddtwyaaawtysad",
"# uadddddddaaddddd:Xotaa99tddddddddsdadd19edddaddddadddddddd",
";:adaddatp9wwadddd3:<ydy79tpyadddddadiyi99099tddddaiypddiiia",
"adddaddt39$#oudddsddddda79991iddadddar9997,+X<dddaa33tdde13a",
"adddddat80$ *yaddadddddy79779ididdaddt9998,X.<ddaai91rdde00i",
"99addda2+@tadddi38iadddp79=++@@odddsddaa.o:aaaad99999rdd: $t",
"92aadda2  tassdu93idddda79=++++oddaddaad +*idadd99999eda:Xou",
"99<,3ddp22iaatte97ydddap*=<28222daiytidd22tddadde96-;2ddw23y",
"70@X;addsadaa99792iddadt +2dddddddy19yddaadddddd97,$X,dddddd",
"65=&,adddaddie9999tisddt&&3addddaat99tiidddddddd66,=&2adddaa",
"$@ttiaddddddie999999eidatuiddddd399393e9dddddddd&$>wuyaaadat",
"  pdddddddddye9977q93sdsdddddddd17991777dddddddd$o&iddddddp3",
"<2ddfffffffddsyiiyiiyfdffffddffdiyyysyyyfffdffdd923dfdffffds"
};
