/* XPM */
static char *result[] = {
/* columns rows colors chars-per-pixel */
"30 30 26 1 ",
"  c #B5D4DE",
". c #B5D5E2",
"X c #B9D6E2",
"o c #BDDBE5",
"O c #BFDCE8",
"+ c #C0DDE5",
"@ c #C2DEEA",
"# c #C7E0E7",
"$ c #C5E1EA",
"% c #CBE3EC",
"& c #CFE9EE",
"* c #D1E6EE",
"= c #D4E9EE",
"- c #DBE8EF",
"; c #D4E7F0",
": c #D5EAF1",
"> c #DCEBF2",
", c #DFF0F5",
"< c #E2EEF5",
"1 c #E4F1F6",
"2 c #E8F3F7",
"3 c #E6F3F8",
"4 c #EBF5FA",
"5 c #EEF9FD",
"6 c #F0F7FA",
"7 c #F1FAFE",
/* pixels */
".4777775>o&777:.>>>>.:77777771",
":7777774@*17772:+*>>:37724774<",
"74447452%2772577%%*>3563>3771<",
"7>><7><54675>4557%%>:33>-46751",
"7>355>:;.365:-167777 :3>>><5<%",
">>44>>%+3555>+;77777154>>@$7@&",
"+@>64$&<71474>371<477>&>@*>7>1",
"&&<77;<77><23576%:>37>&>;<7777",
"775556775>>>>,36##=-752&555476",
"77<>>575>>>>>o&77%O>77, 41>-51",
"-75>.3775>%o.,5655>X,3557<<751",
"><45<6777$&>>476<44>O@*77:%7<*",
"@@*>67447><77753>>47**>77,>7&%",
"%@$;75<>7764554<>;>777547777%>",
"67757->>571::455=$%7773-555555",
"7511773*.34-->15.>7771>>>>;..&",
"71>*o4:@25554$:5254>7555>%$334",
"1>>>:51>77437>,5731>%3<%3>>577",
"%>;=7777772>77574<>:%<1%577645",
"o*@%7557751>4577:>>;55557755>1",
"5X:55>457,>; 157>>%.5<>>775>>$",
"5565>>><7>%o454>>@%471:>-24>o*",
"1774>$@%5<>,57>$@%176544@>1+=3",
"%5551**:6&>625>*;1664566*14%57",
"o45741477%=5>3576755>>37755755",
"7774>X=57775>><7764>>$#571<7>1",
"-57, 355-475>oo 7655X-77>>>7+=",
">#,5<51<>574o-<173371677>%%712",
"$*27771>>125*2773><<6777%%,774",
"$5777752<15777771<217777%>7774"
};
