/* XPM */
static char *result[] = {
/* columns rows colors chars-per-pixel */
"60 60 216 2 ",
"   c #14171B",
".  c #161926",
"X  c #0F1433",
"o  c #151A33",
"O  c #1B1F37",
"+  c #141B3A",
"@  c #1F222A",
"#  c #23242A",
"$  c #262C29",
"%  c #2C2C2B",
"&  c #302E2E",
"*  c #2E302A",
"=  c #262836",
"-  c #2A2D34",
";  c #373939",
":  c #3C413D",
">  c #121A42",
",  c #192244",
"<  c #1F2950",
"1  c #303549",
"2  c #353848",
"3  c #3B3F4A",
"4  c #293359",
"5  c #1D2E6A",
"6  c #2A3D69",
"7  c #323D68",
"8  c #21387B",
"9  c #3E434A",
"0  c #3D4257",
"q  c #37426C",
"w  c #344575",
"e  c #41454D",
"r  c #49514F",
"t  c #454655",
"y  c #444A52",
"u  c #4D535C",
"i  c #54575B",
"p  c #535959",
"a  c #605F5D",
"s  c #5C6058",
"d  c #444965",
"f  c #555B62",
"g  c #5A5E66",
"h  c #495574",
"j  c #575A75",
"k  c #5C6164",
"l  c #5B6169",
"z  c #596477",
"x  c #64686B",
"c  c #6B7169",
"v  c #636D76",
"b  c #646B7D",
"n  c #706E73",
"m  c #6C7173",
"M  c #687179",
"N  c #71757B",
"B  c #767C7B",
"V  c #364D8D",
"C  c #344E92",
"Z  c #3B5AA2",
"A  c #475885",
"S  c #74498B",
"D  c #78548F",
"F  c #6E5D90",
"G  c #7A5993",
"H  c #52678E",
"J  c #46649A",
"K  c #6E7886",
"L  c #757B84",
"P  c #787E89",
"I  c #6C6791",
"U  c #6B7594",
"Y  c #6C7C97",
"T  c #687B99",
"R  c #757F9D",
"E  c #4464A4",
"W  c #4A6AA4",
"Q  c #486DAE",
"!  c #4F73BE",
"~  c #5377BB",
"^  c #7D7DA7",
"/  c #577AC8",
"(  c #835A94",
")  c #885A98",
"_  c #88689B",
"`  c #9168A7",
"'  c #8977A7",
"]  c #9474AA",
"[  c #877DB8",
"{  c #987ABB",
"}  c #6F8085",
"|  c #7A8284",
" . c #788488",
".. c #7B838C",
"X. c #6E879F",
"o. c #778599",
"O. c #7C839C",
"+. c #799490",
"@. c #7E87AB",
"#. c #7A8DB5",
"$. c #6683DD",
"%. c #838A89",
"&. c #8B908E",
"*. c #848993",
"=. c #8A8E93",
"-. c #89939A",
";. c #8C939C",
":. c #919698",
">. c #949B9D",
",. c #94A691",
"<. c #A9BB9F",
"1. c #8589A7",
"2. c #8897A7",
"3. c #9197A3",
"4. c #959BA4",
"5. c #999EA5",
"6. c #8F86B0",
"7. c #8895B5",
"8. c #9394B4",
"9. c #929ABD",
"0. c #A394B7",
"q. c #9CA3A5",
"w. c #93A8A6",
"e. c #9AA2AB",
"r. c #9CA6B6",
"t. c #A8ACA9",
"y. c #B5B8AC",
"u. c #A6ACB1",
"i. c #A7AAB6",
"p. c #A5B2B6",
"a. c #ADB4B6",
"s. c #ACB3BC",
"d. c #B1B6BB",
"f. c #B6BDBA",
"g. c #BCC1BD",
"h. c #8D8FC2",
"j. c #A495C6",
"k. c #AD9ED0",
"l. c #A3AAC8",
"z. c #B8A3CB",
"x. c #A9BAC5",
"c. c #ACB6C9",
"v. c #B5BEC3",
"b. c #B7B9CA",
"n. c #ADB7D1",
"m. c #B4BCD3",
"M. c #C1B2CD",
"N. c #ACC2CB",
"B. c #BBC6C7",
"V. c #B4C3CC",
"C. c #BBC3D2",
"Z. c #B7C9D1",
"A. c #AFD3DE",
"S. c #B4D4DE",
"D. c #BAD5DF",
"F. c #B1D8DF",
"G. c #B9DADF",
"H. c #AED9E5",
"J. c #B4D6E2",
"K. c #B9D7E3",
"L. c #B3D8E4",
"P. c #BBDAE4",
"I. c #BCDBE8",
"U. c #C2CAC9",
"Y. c #C3D1CD",
"T. c #D1D8C9",
"R. c #C4CBD7",
"E. c #C7C7DC",
"W. c #C6D3D5",
"Q. c #CBD7D6",
"!. c #C6D1DC",
"~. c #CBD5DB",
"^. c #D4DED6",
"/. c #D1D9DD",
"(. c #C9CBE7",
"). c #D1C8E8",
"_. c #C3DCE5",
"`. c #C8DFE6",
"'. c #C5DEE9",
"]. c #CBDEEA",
"[. c #D2DDE2",
"{. c #D1D5E9",
"}. c #D2DBEC",
"|. c #E3DFF0",
" X c #C5E0E6",
".X c #CAE1E6",
"XX c #C6E1EA",
"oX c #CCE3EC",
"OX c #D6E1E4",
"+X c #D2E6ED",
"@X c #DBE5ED",
"#X c #D4E9EE",
"$X c #DBE9EE",
"%X c #CDE4F2",
"&X c #CEE8F3",
"*X c #D2E6F1",
"=X c #DCE7F3",
"-X c #D5EAF2",
";X c #DBEAF2",
":X c #DEECF9",
">X c #DEF1F5",
",X c #DFF6FB",
"<X c #E0E7EB",
"1X c #E1EBEE",
"2X c #E5E9F4",
"3X c #E2EEF4",
"4X c #E5EDF9",
"5X c #E4F2F6",
"6X c #EAF3F7",
"7X c #E5F4F9",
"8X c #EBF5FA",
"9X c #E7F9FC",
"0X c #EEFAFD",
"qX c #F0F4FB",
"wX c #F1FAFE",
"eX c #F8FCFE",
/* pixels */
"L.J.9XwXwXwXwXwXwXwXwXwXwXwXwX6X$X$XI.H.P.>XwXwX0XwXwXwX0X`.J.J.:X-X;X$X;X;X;X>XF.L.oX9XwXwXwXwXwXwXwXwXwXwXwXwXwXwXwX3X",
"J.J.7XwXwXwXwXwXwXwXwXwXwXwX0X8X$X;XI.L.G.5XwXwX0XwXwXwX0X XL.P.;X;X$X;X:X-X;X;XJ.L.XX0XwXwXwXwXwXwXwXwXwXwXwXwXwXwX8X3X",
"'.`.8XwXwXwXwXwXwXwXwXwXwXwXwX5X+X%XoX X X6XqXwXwXwXwXwX8X+X_._.%X*X+X;X;X;X;X;X].'.#X0XwXwXwXwX6X8X8XwXwXwXwXwX8X8X8X;X",
"0X8XwXwXwXwXwXwXwXwX0XwXwXwXwX;XL.L.>X0X0XwXwXwXwXwXwXwXwX8X0X9XJ.L. X;X;X$X;X;X8X9XwXwXwX0XwXwX:X;X3X0XwXwX0XwX5X;X;X;X",
"wXwXwXwXwXwXwXwX0XwXwXwXwXwXwX$XF.S.$XeX0XwX0XwXwXwXwXwXwXwXwX0XS.G.I.:X;X;X;X$X0XwXwX0XwXwXwXwX;X;X3X0XwXwXwXwX3X$X$X;X",
"wXwX6X3X3X3X3X6XwXwX5X5X5X0XwX7X$X;X6X0XwXwX0X0X3X5X8XwXwXwXwXwX$X;XoX_. XoX;X=X4X3X8X0XwX6X3X3X;X;X3X0XwXwXwX0X6X6X7X;X",
"wXwX3X;X;X;X=X5XwXwX;X;X3X0XqXwXwXwXwXwXwXwXwX0X$X;X6XwXwX0XwXwXwXwX*XL.L.XX$X$X;X;X3X0X0X7X=X;X;X;X5X0XwXwXwXwX0XwX0X3X",
"wXwX;X;X;X:X;X6XwXwX5X$X;X8X0X9X7X6X0XwXwXwXwX0X$X;X3X0X9X0X0XwXwXwX;X_.'.*X3X3X-X*X;X0XwX7X;X;X;X;X;X0X0X0X0X0X0X0X7X;X",
"wX0X:X;X3X0X0XwX0XwX3X;X;X;X;XoXL.A.>XwXwXwXwX8X;X;X=X;X;X8XwXwXwXwXwXwX0XwXwX0XS.L..X8X0X7X=X;X;X$X=X$X=X3X0XwX1X@X#XP.",
"wXwX;X$X3X0X0XwXwX0X;X;X;X-X;XoXA.A.>X0XwXwXwX8X;X;X:X-X-X0XwXwXwXwXwXwXwXwXwXwXS.D.].0X0X7X;X;X;X;X;X;X;X5X0X0X5X3X-XP.",
"3X;X;X;X3X0XwX6X3X3X;X;X*X_.I.oX5X5X0X0XwXwXwX8X+X;XoXK._.5XwX0XwXwXwXwXwXwXwXeX1X>X5X0XwX4X;X;X;X;X*XP.P.#X0XwXoXP.'.;X",
";X;X;X$X3X0XwX6X;X;X;X;X#XP.J. X0XwXwXwXwXwXwX8X;X;X'.J.P.5XwX0XwXwXwXwXwXwXwXwXwXwXwXwXwX5X;X3X;X-X&XK.L.oXwXwX'.L.P.>X",
"XXoXoXoX#XwXwX6X5X3X}.oXXXoXoX$X0XwX6X7X8XwXwX0X3X3X-X].oX5XwXwX6X6X7X7X7XqXwXwXwXwX0X#X-X;X$X;XoXoXXX+XoX$XwX0X#XoX+X7X",
"S.L.J.F.XX0XwXwX0X0X_.L.I.7XwXwXwXwX5X$X;X8X0XwXwXwXwX0X0X0XwXwX;X=X;X=X;X5XwXwXwXqX;XP.J.XX;X-XP.J._.0XwX0XwXwX0XwXwXwX",
"P.P.K.P.XX0XwXwX0X0X XG. X8XwXwXwX0X3X$X;X8X0X0XwX0XwXwXwXwXwXwX-X-X;X;X;X6XwX0XwXwX>XP.P.XX;X;XI.K.XX6XwXwXwXwXwXwXwXwX",
">X:X>X>X5XwXwXwXwXwX5X5X5XwXwXwX0X0X3X$X=X3X3X3X3X3X6X0XwXwXwX0XK.I.oX;X;X;X5X;X0XwX0X5X5X-X=X;X>X>X7XwXwXwXwXwXwXwXwXwX",
"wXwXwXwXwXwXwXwXwXwXwXwXwXwXwXwXwX0X5X;X;X;X;X;X;X;X7XwXwXwXwX0XS.L._.;X;X;X;X$XwXwXwXwXwX6X;X=X0XwXwXwXwXwXwXwXwXwXwXwX",
"wXwXwXwXwX8X6X6X8X6XwXwXwXwXwX0X8X8X:X;X;X;X;X;X;X;X-X;X3X6XwX0X X XXXoX+X-X=X$X0XwXwX0XwX;XoXXX0X0X0X6X8X6X8X6XwXwXwX6X",
"wXwXwXwX8X$X$X;X=X=X8XwXwXwXwX8X=X-X;X$X;X;X;X;X;X;X'.L.S.5XwX0XwXwX$XS.J.XX;X$XwX<X;.u    .J.J.7XwX8X;X;X#X;X$X6XwX0X;X",
"wXwXwXwX8X1X;X$X-X;X0XwXwX0XwX6X;X;X-X;X=X=X:X:X:X-X'.L.P.;XwXwXwXwX;XD.J.%X;X-X/.L t b = ..J.S.6XwX8X;X;X;X$X$X6XwX0X;X",
"=X;X0XwX0X0X0X#XK.D.5XwXwXwXwXwX8X0X3X;X*X_.K.K.K.K.*XOXQ.^././././.~.~.~.Z.N.x...1 ' *.1 -.7X9XwXwX6X;X;X3X0X8XwXwX0X1X",
"=X=X0XwXwXwX0X#XS.S.7X0XwXwX0XwXwX0X:X;X*XP.J.F.A.A.+Xm # # @ @ @ @ # & % % $ $ e *.l.l.3 >.qXwX0XwX8X;X;X5XwXwX0XwXwX;X",
";X=X3X5X6XqXwX5X+X+X8XwXwXwXwXwXwXwX#XXX X#X#XN.f u u N ..M b b b b *.i.g.g.d.u.P d 3.3.K x t.wX0XwX5XoX_.;X0XwX7X5X5X.X",
";X;X;X;X3X8XwX0XwXwXwXwXwXwX0XwXwXwXXXS.G.p.| -.} k u e.~.W.R.R.E.E.{.4X0X1Xm.s.N   2 3 e # i wXwXwX>XP.L.oXwXwX3X$X#XG.",
"+X*X%X&X#X,X5X8XwXwX0XwXwX0X0X0XwXwXXX} m l e z Z.B.c.!.;X0X8X|.b.i.z.).m.n.c.P i r   v  ...a.wXwXwX3X'.I.+XwXwX;X#XoX].",
"P.P.P.P.P._._.#X0XwXwX0X0X2X3X5XwX3Xp.i 3  .r.n.=X7X4X4X{.M.M.z.6.I ^ l.8.r.i.n q.B.$ U.7X0XwXwXwXwX0X7X7X0XwXwXoXP.'.>X",
"J.L.L.H.F.L.L.oXwXwXwXwX8X;X;X3X1Xq.9 ..3.Z.=X7X=X{.{.).0.G ( D j.9.@.7.c.s.x :.wX/.; t.3XwXwXwXwXwXwXwXwXwXwXwX XL.G.9X",
"+X+X+X+X+X+X+X>XwXwX6X6X5X;X;X$X=.y -.R.3X,X4X4X).0._ ) ( ( k.6.@.X.2.s.f.g >.6XwX0Xg.; q.8X5X5X0XwXwXwXwXeXwXwX;X+X#X8X",
"wXqXwXwXwX0XwX0XwXwX;X$X;X;X=Xn i =.R.3X3X}.).z.` ) S S ` j.6.#.X.2.x.p.r >.<XwXwXwXv.: 4.6X$X$X0X0XwXwXwXwX0X0X0XwXwXqX",
"eXwXwX0XwX0X8X0XwX0X3X$X;X;X$X; x ~.6X6Xr.6.] ) S D { [ [ 7.T Y 2.V.>.u 3.`.wXwXwX<Xi t.[.7X=X$X9X0X0XqXwX6X9X0X0X6X6XwX",
"0X0X0XwX8X3X$X6XwXwXwXwX0X[.P i 4.<X8X6XM.] S G { ' h.#.X.X.7.x.Z.q.| &.wXwXwXwXd.n =.~.=X;X=X;X;X;X$X3X;XoXD.S.J.F.P.5X",
"wXwXwX0X8X;X$X5X0XwXwXwX8X~.3 B u.c.}.2XqX6.A F j.^ X.+.#.r.~.[.t.m &.3XwXd.e.e.b 2 *.5.W.;X;X-X;X;X;X;X-XoXJ.J.J.J.P.5X",
"wXwX5X5X;X;X;XoXXXXX7XwX7XN.y p.5.K !.].:XR d I 1.o.Y e.Y.^.g.t.a &.<XwXV.0 + + < 4 O O -.>X8X8X;X;X*X'.'.%X>X;X5X;X5X0X",
"wXwX;X;X=X=X-XoXL.J.7XwX5Xp :.[.@XK.n.c.E.R j 1.m.C.Q.^.T.y.* ; Y.wXwXOXo h W W C 5 V w o >.wX0X3X=X%XJ.H.oXwX0X0X0X0X0X",
"6X8X;X;X;X:X;XoX_.'.7XwX6Xf :.[.(.m.n.l.9.U h b Q.T.^.%.s B U.W.8XwXwX[.o J $.$.$.! Z V > ;.>X>X3X3X-X]._.+XwXwXwXwXwXwX",
";X;X;X;X;X;X;X5X0X9X0X0X0Xl 3.m.C.l.7.7.Y U z g g.c p g.W.$XwXwXwXwX8X~., J w E $.! 8 5 + +.K.G.9X0X0X0X0X0X0XwXwXwXwXwX",
";X;X;X=X;X;X;X5XwXwXwXwXwXf P r.1.O.U T o.j 1 = m w.>.OXeXwXwXwXwXwXC.O.J / W J Q Q 8 6 . ..L.L.8XwXwXwXwXwXwXwX0XwXwXwX",
"'.'.;X=X%X'._.+XwXwXwXwXwXq.g u t 2 3 3 d L -.-.u.1XwXwXwX0XwXwX4X4X3.> ~ ~ #.w.+.U w 4 t v.-X-XwXwXwXwXwXwXwXwX4X4X5X0X",
"L.J.-X;X+XK.J.+XwXwXwXwXwX2X%.g g g g g l v.;X;XwX0X0XwXwXwXwX0X;X;X2.+ Z J -.<.,.K q + 5.wXwXwX0XwXwXwXqXwXwXwX3X;X;X0X",
"P._.oX+XoX'._.-X0XwX8X8X8XwXwXwXwXwX0X9X6X3X=X3X5X5X8X0XwX0XwXwX#X;X-.X w J H z h A 7 O 5.8X8X9X0XwXwXwXwX0X0X9X;X$X;X5X",
"0X0XP.L. X9X0X0XwXwX;X$X3XwXwX0XwXwX1X$X$X;X:X%XS.F.$X0XwX0XwXwX;X;X4.O q r.m.i.9.@.0 1 e.=X$X#X9X0XwXwXwX8X;X-X;X=X-XP.",
"wX0XD.S. X0XwXwXwX0X3X;X3X8XwXwXwX0X5X;X;X-X-X&XJ.G.#XwXwXwXwXwX=X=X}.4.  ; : ; - - = 3.`.=X;X$X0XwXwXwXwX7X;X;X-X:X-XP.",
"wX0X7X9X8XwXwX8X;X;X;X;X$X;X;X3XwXwX>X;X-X_.K._.7X7X0X0X0X5X;X;X;X;XoXS.v m B L | | &.W.=X-X;X;X$X$X1XwXwX6X;X;X'.J.I.>X",
"wXwXwXwXwXwXwX5X;X;X;X;X;X;X;X3X0X0X5X$X-XI.L._.0XwXwXwX0X1X;X-X;X;XoXJ.P.;XwXwX0XwX7X$X;X;X;X=X;X;X5X8XwX8X;X;X'.J.I.5X",
"6X6X0XwXwXwXwX6X;X;XoXoXoXoXoX-X0XwX5X;X$X+X.X+X0XwXwXwX0X#XoXoXoXoXXX.X.X3XwXwX0XwX0X3X3X7X3X7X%X&X#X8XwX5XoXoXoX.X+X6X",
"$X$X0XwXwXwXwX5X;X-XP.F.L.K.K.XX0XeX1X$X1X8X0XeXwXwXwXwX7X_.L.L.L.J.oX0XwXwXwXwXwXwX0XwXwXwXwX0XP.L._.9XwX#XL.S.-XwXwXwX",
"-X-X0XwXwXwXwX5X3X:XI.P.P.P.P.oXwXqX5X-X;X0XqXwXwXqXwXwX0X XP.P.P.P.+XwXwXwXwXwX0X0XwXwXwXwXwXwX~.P..X6XwX$XG.G.5XwXwXwX",
"I.P.6XwXwX0XwX8X0X6X5X5X>X5X>X7X0XwXoXL. X5X0X0X;X3X6XwX0X5X>X3X5X>X9XwXwXwXqXwX3X3X3X0XwXwXwXwX5X5X5X0XwX0X>X5X0XwXwXwX",
"L.S.8X0XwXwXwXwXwXwXwX0X0XwX0XwXwXwX XS.P.5XwX0X;X;X7XwXwXwXwXwX0X0XwXwX0X0XwXwX;X;X3XwXwXwXwX0XwXwXwXwXwX0XwXwXwXwXwXwX",
"XX X8XwX0XwX0X0X6X8X;X>X>X0XwXwXeXwX$X.XoX8XwX6X=X;X5X7X8X0XwXwXwXwXwXwXwX8X6X8X;X=X-X;X>X5XwXwXwXwX0X8X6X0X0XwX8X7X8X0X",
"wX0XwXwXwXwXwX5X;X-XP.L.G.9X0XwXwXwXwXwX0XwXwX8X;X;X;X;X$X8XwXwXwXwXwXwXwX3X=X;X;X=XoXF.F.+XwXwXwX0X8X;X1X3XwXwX3X=X$X0X",
"wXwXwXwXwXwX0X7X-X-XP.F.~.9XwXwX0X0XwXwXwXwXwX0X=X=X=X;X;X8XqX0XwX0XwX0X0X5X;X;X;X-XoXG.D.+XwX0XwX0X8X;X;X3XwXwX5X-X-X0X",
";X;X0XwXwXwX0X#XK.K.5X0XwXwXwX6X$X$X6XwXwXwXwX0X=X;X'.J.J.J.K.P.wX0XwXwXwXwX0X0XD.K. X8X0X0XwXwX;X=X;X;X;X3XwX0X XK.P.7X",
";X#X0XwXwX0XwX#XS.S.5X0XwXwXwX9X;X;X7X0XwXwX0X0X;X;X'.J.J.L.L.G.wXwXwXwXwX0X0XwXS.F.`.0XwX0XwXwX;X;X-X;X=X3XwXwX XF.P.5X",
";X;XoX+X;X0XwX7X+X+X6XwX0X3X3X3X-X;X0X0XwXwX0X7X`.'.+X#X$X-X+X#XwXwX8X3X3X8XwXwX#X#X5XwX0XwXwXwX;X;X-X]. X-XwXwX1X#X$X6X",
":X-XG.F. X0XwXwXwX0XwXwX9X;X;X=X-X$X6XwXwXwX0X5XS.J.#X0XqXwXwX0XwXwX6X3X;X6XwXwXwX0XwXwXwX0XwXwX3X;XoXP.L.oXwXwXwXwXwXwX",
"*X&X'._.oX0XwXwXwXwXwXwX0X=X;X;X;X;X7X0XwXwXwX7X_._.;X0XeXwXwXwX8X0X5X;X;X5X9X8XwXwXwXwXwXwXwX0X-X+XoX'.G.#XwXwXwXwX0X0X",
"P.K.>X7X8XwXwXwXwXwXwXwX8X3X;X;X;X;X;X=X3X8XwX6X5X6X0X0XwXwXwX0X;X;X;X$X=X1X3X;XwXwXwXwXwXwXwXwX_.K.'.>X5X8X0XwX0XwX0X5X",
"F.D.7XwXwXwXwXwXwXwXwXwX0X3X;X;X=X=X;X=X1X8XwXwXwXwXwXwXwX0XwX0X$X=X;X$X=X=X2X=XwXwXwX0XwXwXwXwXP.G._.0XwXwXqXwXwXwX9X3X",
"+X+XwXeXwXeXeXeXeXeXeXwXwX6X6X8X8X8X8X6X6XwXeXwXeXwXeXeXwXeXeXeX8X6X8X6X6X6X6X6XwXeXeXwXeXeXeXwX;X#X$X0XeXeXeXeXeXeXwX8X"
};
