/* XPM */
static char *result[] = {
/* columns rows colors chars-per-pixel */
"60 60 221 2 ",
"   c #040508",
".  c #050A19",
"X  c #0E121A",
"o  c #141516",
"O  c #1E1C17",
"+  c #141519",
"@  c #16181B",
"#  c #1B1B1A",
"$  c #211D16",
"%  c #292617",
"&  c #2F2B18",
"*  c #040C27",
"=  c #0C152A",
"-  c #141928",
";  c #050F32",
":  c #091437",
">  c #151E36",
",  c #1F2024",
"<  c #1B2034",
"1  c #272728",
"2  c #3B3723",
"3  c #23243A",
"4  c #2F3335",
"5  c #373839",
"6  c #403F3E",
"7  c #7B5C1F",
"8  c #645224",
"9  c #061441",
"0  c #09194C",
"q  c #091B55",
"w  c #172849",
"e  c #0E2052",
"r  c #172754",
"t  c #373A43",
"y  c #242E51",
"u  c #263655",
"i  c #323759",
"p  c #0A1E61",
"a  c #0B2064",
"s  c #0D236C",
"d  c #122465",
"f  c #142969",
"g  c #1B3565",
"h  c #0F2771",
"j  c #132A74",
"k  c #192F76",
"l  c #142D7D",
"z  c #1B3677",
"x  c #2E3868",
"c  c #34396A",
"v  c #3B4450",
"b  c #354768",
"n  c #2F4673",
"m  c #2E487A",
"M  c #464A4E",
"N  c #464C59",
"B  c #4D5458",
"V  c #525657",
"C  c #68675C",
"Z  c #4F596D",
"A  c #5C6366",
"S  c #65696B",
"D  c #696E73",
"F  c #707171",
"G  c #727470",
"H  c #777A7D",
"J  c #8E752C",
"K  c #A97D2B",
"L  c #91843D",
"P  c #AE8E35",
"I  c #D29C36",
"U  c #D6A339",
"Y  c #AF9050",
"T  c #B19852",
"R  c #AE9D72",
"E  c #C7B146",
"W  c #CAB446",
"Q  c #DFB440",
"!  c #E2B844",
"~  c #D8C14A",
"^  c #E8C249",
"/  c #F1D151",
"(  c #F9DE57",
")  c #E6D078",
"_  c #152F81",
"`  c #173184",
"'  c #183383",
"]  c #1D3984",
"[  c #19358C",
"{  c #1C398E",
"}  c #1C3A93",
"|  c #1D3E9B",
" . c #1F419B",
".. c #2E4B83",
"X. c #345289",
"o. c #24489E",
"O. c #2D509B",
"+. c #375897",
"@. c #1F42A4",
"#. c #2246A4",
"$. c #284AA4",
"%. c #244BAB",
"&. c #274DA9",
"*. c #2D55AC",
"=. c #3559A7",
"-. c #274FB0",
";. c #2B55B4",
":. c #2E59B5",
">. c #2F5CBB",
",. c #335BB3",
"<. c #315EBE",
"1. c #3360BE",
"2. c #3E65B8",
"3. c #515F83",
"4. c #52678B",
"5. c #6E7586",
"6. c #797E83",
"7. c #4A68AC",
"8. c #4265B2",
"9. c #5D77BC",
"0. c #6A7CAB",
"q. c #647BB7",
"w. c #3666C5",
"e. c #3768C7",
"r. c #3A6AC7",
"t. c #3B6CCB",
"y. c #3F70CF",
"u. c #416BC3",
"i. c #4874CA",
"p. c #517AC6",
"a. c #4374D2",
"s. c #4979D6",
"d. c #4C7DDB",
"f. c #507FD7",
"g. c #607BC2",
"h. c #7B8287",
"j. c #768B93",
"k. c #7A86A3",
"l. c #7585B4",
"z. c #7590B9",
"x. c #4E80DE",
"c. c #5583D9",
"v. c #6489D3",
"b. c #7394D2",
"n. c #5486E3",
"m. c #5789E7",
"M. c #5B8BE6",
"N. c #5B8DEA",
"B. c #5F91EF",
"V. c #6497F4",
"C. c #689BF8",
"Z. c #7DA3E3",
"A. c #838B90",
"S. c #96999B",
"D. c #8F9AA9",
"F. c #959CA3",
"G. c #9AA3A5",
"H. c #A5A5A5",
"J. c #A1A9AD",
"K. c #A1A9B1",
"L. c #A9B2B3",
"P. c #ABB4BB",
"I. c #ADB9BE",
"U. c #B6B7B8",
"Y. c #C0BD83",
"T. c #C5C790",
"R. c #D8D4AA",
"E. c #879ACA",
"W. c #98ACDA",
"Q. c #ADBDC2",
"!. c #B3BDC2",
"~. c #B9C4C7",
"^. c #BCC5C9",
"/. c #B4D4DE",
"(. c #B8D6DF",
"). c #AED9E5",
"_. c #B4D6E2",
"`. c #B9D6E2",
"'. c #B4D8E4",
"]. c #BCDAE4",
"[. c #BDDEE8",
"{. c #C4C5C7",
"}. c #C3C9CC",
"|. c #CDCDCD",
" X c #C8D1D3",
".X c #D7D8D8",
"XX c #C3DCE5",
"oX c #CBDCE7",
"OX c #C4DEE9",
"+X c #D4DBE8",
"@X c #D9DFF0",
"#X c #C5E0E6",
"$X c #CBE1E6",
"%X c #C6E1EA",
"&X c #CCE3EC",
"*X c #D7E1E6",
"=X c #D3E6ED",
"-X c #DDE5EB",
";X c #D4E9EE",
":X c #DBE9EF",
">X c #CDE4F2",
",X c #D2E6F1",
"<X c #DDE6F2",
"1X c #D5EAF2",
"2X c #DBEAF2",
"3X c #DBEDF8",
"4X c #DDF1F5",
"5X c #E5E5E7",
"6X c #EEEEEE",
"7X c #E5EBF6",
"8X c #E2EEF4",
"9X c #E4F2F6",
"0X c #EAF3F7",
"qX c #E5F4F9",
"wX c #EBF5FA",
"eX c #E7F8FB",
"rX c #EEFAFD",
"tX c #F4F4F4",
"yX c #F3F6FB",
"uX c #F1FAFE",
"iX c #FEFEFE",
/* pixels */
"'._.eXuXuXuXuXuXuXuXuXuXuXuXuX0X:X2X[.).].9XuXuXrXuXuXuXrXXX(.].3X2X2X2X2X2X:X2X'.'.%XrXuXuXuXuXuXuXuXuXuXuXuXuXuXuXrX8X",
"_._.eXuXuXuXuXuXuXuXuXuXuXuXuXwX:X2X[.'.(.9XuXrXuXuXuXuXeX#X'._.3X2X:X;X2X2X3X2X/.'.%XrXuXuXuXuXuXuXuXuXuXuXuXuXuXuXrX2X",
"OXoXwXuXuXuXuXuXuXuXuXuXuXuXrX9X,X,X$X#X$XqXuXuXuXuXuXuXwX=XOX#X,X&X=X2X3X2X2X2XOXOX;XrXuXuXuXuXwXwXwXuXuXuXuXuXyXwXwX2X",
"wXwXuXuXuXrXuXuXuXuXrXuXuXuXuX2X'.'.1XrXwXuXuXuXuXuXuXuXuXuXwXeX'.'.%X2X:X2X2X:XwXrXrXuXuXuXuXuX2X2X8XuXuXuXuXrX8X2X2X2X",
"uXyXuXuXuXuXuXuXuXuXuXuXuXuXuX:X/./.4XuXuXuXrXuXuXuXuXuXuXuXuXwX/.(.].3X3X2X:X;XrXuXrXuXuXuXuXuX2X2X8XrXuXuXrXuX9X:X:X2X",
"uXuX0X8X8X8X8XwXuXrX9X8X9XrXuXqX:X2X0XuXuXuXuXrX8X9X0XuXuXrXuXuX:X2X&XOX#X&X2X<X7X8XwXrXuX0X8X8X2X3X8XrXuXuXuXuX0X0X9X2X",
"uXuX2X2X2X2X<X9XuXuX4X2X8XrXrXrXuXuXuXuXuXuXuXwX:X2XqXuXuXrXuXuXuXuX1X_.'.&X:X:X3X2X9XrXrX8X2X2X2X2X8XrXrXuXuXrXuXuXrX2X",
"uXuX8X2X2X3X2X0XuXuX8X:X2X0XwXwXqX9XrXuXuXuXuXwX2X2XqXrXwXrXrXuXyXuX4X].OX=X8X9X1X,X2XrXrXqX2X2X2X2X8XwXrXrXrXuXrXrXqX:X",
"uXrX4X2X8XrXuXuXrXuX2X2X:X:X<X&X)./.4XuXuXuXuXwX:X2X3X2X:XeXrXuXuXuXuXuXuXrXrXrX/._.$XrXrXqX2X2X2X:X:X2X:X8XrXuX8X-X;X].",
"uXuX2X2X3XrXrXuXrXuX8X2X2X3X3X&X/./.4XuXuXuXuX0X:X3X1X4X4XwXuXuXuXuXuXuXuXuXuXrX/._.$XrXrXqX2X2X2X<X2X3X3X9XrXrX8X8X1X].",
"8X3X2X2X8XrXrXwX2X8X2X2X,XXX].&X4X9XwXrXuXuXh.M t 5.%X[.#XqXuXuXuXuXuXuXuXuXyXiX8X:X9XyXuXqX2X2X2X2X&X].].;XrXuX%X].XX2X",
":X2X:X2X9XuXuX0X2X2X2X2X,X]._.%XrXrXuXuXuXuX XB < m Z B V I.uXrXuXuXuXuXuXuXuXuXrXuXuXuXuX7X2X2X2X3X&X]./.>XuXuX%X'.].9X",
"%X%X&X&X;XuXyX0X9X9X=X%X&X&X&X:XrXuX0XqXwXrXuXS w *.z g m k.J.L.*XeX9X9XqXrXuXuXuXuXwX2X1X2X:X2X&X&X&X&X$X:XuXrX;X&X;XeX",
"_._._._.%XrXuXuXrXrXXX'.].eXuXuXuXuX9X:X:XwXrXS.b z *.1.y.=.y b D.L.P.P.P.:XuXuXuXuX4X]._.%X2X2X].'.OXwXuXuXuXuXuXrXrXuX",
"].].].(.%XrXuXuXrXrXoX(.#X0XuXuXuXuX8X:X4XeXrXrXL.>  .w.y.x.c.c.y X X X - ^.rXrXuXuX2X].`.&X1X3X].'.$XwXuXuXuXuXuXuXuXuX",
"9X3X4X4X9XuXuXuXuXuX9X4X9XuXuXuXrXrX2X:X3X@ + @ w @.1.w.w.r.y.n.c.s.c.c.p.y @ D uXrXwX9X4X2X<X2X3X4X9XuXuXuXuXuXuXuXuXuX",
"uXuXuXyXuXuXuXuXuXuXuXuXuXuXuXuXuXuXh.V Z e f z $.1.y.y.a.s.x.n.M.M.n.m.n.2.+.4.5.*XuXuXuX0X:X2XwXuXuXuXuXuXuXuXuXuXyXuX",
"uXuXuXuXrXwX0X0XwXwXuXuXuXuXuXuX*XS.w : e | -.w.y.a.s.x.x.n.m.m.M.N.B.B.B.B.N.9.m h..XuXrX4X&X%XrXuXrX0XwX0XwXwXuXuXuXwX",
"uXuXuXuXwX:X8X:X<X2XwXuXrXuXuX:XF.< q j } %.w.a.d.x.d.n.m.m.m.N.N.V.C.C.C.C.V.M.8.- G.uXuX;X/./.wXrXwX2X2X:X2X:X0XrXrX:X",
"uXuXuXuX0X8X:X2X1X2XwXuXuXuXuXU.3 0 k ' } w.e.a.s.p.M.m.m.m.m.V.V.V.C.C.C.V.M.c.c.w S.0XrX;X/.(.wXuXwX2X2X,X:X:X0XuXrX8X",
"2X2XwXuXrXwXrX;X`.(.9XuXuXuXuXP.- f ` } %.w.a.x.+.b Z.B.m.n.n.m.M.V.C.C.C.N.X.b Z.9.v F.eXeX9XeXuXuX0X2X2X9XrXwXuXuXrX:X",
"<X2XrXuXrXuXrX;X_./.qXuXuXrXG.t 0 l ` o.<.w.t.x.X.X t 8.i.k.R Y.T.T.|.&X{.b.n X b c.w H rXrXuXuXrXuXwX2X2X9XuXuXrXuXrX8X",
"2X<X8XqX9XyXuX9X=X=XwXuXuXuX6.. a l { &.w.w.r.d.X.    +.,.5.U ! ^ / ) R.) z.x   . 2...Z K.4XuXuXuXuX9X%XoX1XuXuX0X9X9X$X",
"2X2X2X2X8XrXyXrXuXuXuXuXuXrXH * a l  .;.w.w.e.s.+.> > =.*.3.Y Y T T T T T z...- > ,.x.m v =XrXuXuXuX4X`.'.%XrXuX4X:X;X(.",
",X,X,X,X1XqXqXwXuXuXrXrXuXuXH . p _ | ;.w.e.w.e.y.x.x.r.;.#.$.$.$.$.$.$.$.<.a.d.f.t.x.m 5 :XuXuXuXuX9XXX].=XuXuX3X;X&XOX",
"`.].'.`.].].].;XrXuXuXrXwX8XH . p _ | ;.w.w.e.e.r.y.y.e.w.>.<.<.<.<.<.<.<.w.t.y.t.r.x.m t rXuXuXuXuXrXeXeXwXuXuX&X].OX4X",
"/.'.)._./.).'.&XuXuXuXuXwXA.i 0 h ` | %.;.w.w.w.w.e.w.w.w.e.w.w.w.e.e.e.e.e.w.e.r.e.x.m t uXrXrXuXuXuXuXyXuXuXuX#X/.(.eX",
";X;X=X;X;X;X;X9XuXuX0X9X9XM ; s [ [ | @.%.w.e.w.w.w.e.w.e.w.w.w.e.w.e.e.e.w.w.w.e.w.x.m 5 rX9XqXuXuXuXuXuXuXuXuX2X;X;XwX",
"uXyXuXuXrXuXwXyXuXuX9X:X3XM : ` | [ | @.%.<.w.e.w.w.w.w.w.8.v.v.v.v.v.v.v.u.1.t.w.e.s.+.M ^.*X:XrXuXuXuXuXuXrXrXrXuXuXuX",
"uXuXuXrXrXrXrXrXuXrX8X:X2XN g ;.| [ | @.@.%.<.w.w.w.w.w.:.v.-X0X0XwXyX7X7Xg.<.t.w.w.w.a.7.4 ^.2XwXrXwXuXuXrXeXwXwXwXrXwX",
"uXrXrXuX0X9X:X9XuXrXuXuXt ..&.%.| [ [ } @.@.%.%.;.<.%.-.E.+X6XiXiXiXiXiXuX7X+XW.,.w.w.a.8.- ~.2X3X2X:X:X2X&X]./._./.].9X",
"uXuXuXrXwX2X:X9XuXuXuXuXX z %.| } [ _ [ | @.@.@.%.-.@.E.oXtXiXiXiXiXiXiXiXiXiX@XW.8.1.t.,.r A Q.2X1X2X:X3X&X_._._._.].9X",
"uXuXqX9X8X2X2X&X%X%X.XG.w ] @.} ` ` ` ` [ @.@.@.@.-.g.+XtXiXiXiXiXiXiXiXiXiXiXiX<X8.>.w.:.' u 6.~.2X>XOXOX,X4X4X2X4X8XwX",
"uXuX2X:X<X2X2XOX_._.P.= :.%.} ` ` _ ` ` [ @.@.@.@.g.5X6XyXiXiXiXiXiXiXiXiXiXiXiX@X9.<.w.:.} i.r S <X>X'.).%XuXrXuXuXrXuX",
"wXwX2X2X<X,X3X&X%XOXQ.- @.@.[ _ _ s _ ` [ @.@.@.@.g.@X6XyXiXiXiXiXiXiXiXiXiXiXiXyXoX9.;.:.{ :.r D 2X1X$XOX1XuXuXuXuXuXuX",
":X2X3X2X3X2X2X9XG.A 3.z  ._ h s s j _ ` ` [ [ | g.}.5X6X6XtXiXyXiXiXiXiXiXiXiXiXtX6X9.-.:.' $.=.3.S D rXwXrXrXuXuXuXuXrX",
"2X2X2X2X3X<X2X9XA . 0 _ _ h 0 : p _ ` ` ` ` ` { q.5X6X6X6XtXtXyXiXiXiXiXiXyXtXtXtX5X9.%.;.&.| :.O.w o uXuXuXuXuXrXuXuXuX",
"OXOX2X2X,X[.XX=XA * 9 9 9 9 ; : a h _ ` ` ` ' ' 0.6X6X6X6X6X6XtXtXiXyXiXtXtX6X6X6X6XE.8.&.,.f f z g X rXuXuXuXuXqX7X0XwX",
"'./.,X2X=X`._.=XD o + + + + : q p p l ` ` ` ' { l.5X6X6X6X6X6X6X6X6X6X6XtX6X6X6X6X6X6XE.&.,.= X @ @ - uXuXuXuXuX8X2X2XrX",
"].XX&X=X=XXXXX,XrXuXwXwXwXrX6.= c d a j ` ` { 0.|.6X6X6X6X6X6X6X6X6X6X6X6X6X6X6X6X6X6XE.-.*.< J.uXuXuXuXuXwXwXwX3X:X:X9X",
"rXrX]._.#XrXrXrXyXrX8X:X8XrXH - c a p p h ` k A.|.6X6X6X6X6X6X6X6X6X6X6X6X6X6X6X6X6X.Xz.#.o.- G.rXrXrXuXuXqX2X1X<X2X,X[.",
"rXrX`./.%XwXuXuXuXrX2X2X8XwXH + c d p p p h j 5.U..X5X6X6X6X6X6X6X6X6X6X6X6X6X6X6X.X{.l.#.} = D.rXuXuXuXuXqX2X2X3X3X,X`.",
"uXuXeXqXeXuXuXwX:X4X:X2X<XU.Z > c d p 0 0 0 0 N H S.L.U.U.|.tX6X6X6X6X6X6X6X6X6X5X{.U.l.o.z Z Q.8X:X8XuXuXwX2X2XOX_.[.4X",
"uXrXrXuXuXuXuXqX:X2X2X2X2XV 3 c c d q # $ $ % & & 2 2 2 2 G |.5X6X6X6X6X6X6X6X6X5XU.U.0.' - K.*X:X:X4XwXyX0X2X3XXX_.].9X",
"0X0XuXuXuXuXuX0X<X,X>X>X&XN 3 c f p * 6 P ~ W U U ~ W W E L B .X6X6X6X6X6X6X6X5X}.U.0.*.k . 1 I.=X>X;XeXuX9X&X>X&X$X=XqX",
":X:XwXuXuXuXuXqX<X3XQ.j.j.N y f q ; 8 K U U ~ / ( ( ( ( ( ~ L C U.|.|.|.|.|.|.{.~.U.7.j 5 J % L.].(.#XeXuX1X/./.3XuXuXuX",
"1X1XwXuXyXuXuXwX XQ.6.3 3 y f p 0   J I I I I Q ^ ^ ^ ^ ( ( E & H H.H.H.H.H.H.H.S.G v ; % 7 % P.XX(.$XeXuX:X(.(.9XuXyXuX",
"[.].wXuXuXwXuXwX6.4 t i x e 0 q ;   7 K K P K K K K K P P E P % V G G G F F F G S 6 5 4 4 5 6 ~.9X9X9XuXyXrX4X9XwXuXuXuX",
"_./.wXuXrXuXuXuXrXuX}., @ @ o o @ o O O O $ O O O O O O O O % o $ $ # # # # # - 5  X8XuXuXuXrXuXuXuXuXuXuXuXuXuXuXrXuXuX",
"%X$XwXuXrXuXrXrXqXwX*XQ.Q.^.}.}.}.}.!.I.I.^.}.^.!.Q.!.^.^.^.}.}.|.{.}.}.}.^.^.^.^.:X3X1X2X9XuXuXuXuXrXwXwXwXuXrXwXwXwXrX",
"rXrXuXuXuXuXuXqX2X1X]./.#X9XuXuXyXuXuXuXuXyXuXrX:X3X3X2X2XwXuXyXuXuXuXuXuX7X:X:X2X2X&X/.'.=XuXuXuXrXwX:X:X9XuXrX8X2X:XrX",
"uXuXuXuXuXuXrX9X1X3X]./.XX0XuXuXuXuXuXuXuXuXuXeX<X<X<X2X3XwXuXwXuXuXuXwXuX8X2X:X,X3X&X(.(.=XuXuXrXrXwX2X<X9XuXuX4X3X2XwX",
"2X:XrXuXuXuXrX;X`._.9XrXrXuXuX0X:X:XwXrXuXuXuXrX:X<XOX_.`._.].(.uXuXwXuXuXuXrXrX(.(.oXwXrXuXuXuX3X:X2X2X2X8XuXuX#X(.].9X",
"1X:XrXuXuXrXuX1X/./.qXrXuXyXuXwX2X;XwXuXuXuXrXeX:X3XOX_.'.'._.(.uXuXuXuXuXrXrXuX(._.#XrXrXrXrXuX2X;X<X3X:X9XuXrX$X/.(.eX",
"2X2X;X&X:XuXrXqX;X;X0XrXrX9X9X8X2X2XwXrXuXuXuXeXoXOX=X=X1X;X;X;XuXuXwXqX9XrXuXuX;X;X9XuXuXuXuXuX8X:X,X%X%X2XuXuX4X;X:XwX",
"2X3X(.).#XrXuXuXuXrXrXuXwX2X,X<X2X;X0XuXuXuXrX9X/._.;XuXuXuXuXuXuXuX0X:X:XwXuXyXrXrXuXuXuXrXuXuX2X:X,X`./.%XuXuXuXuXuXuX",
",X,XOXXX&XrXuXuXuXuXuXuXwX7X3X3X3X2XqXwXrXuXuXqXXXXX:XrXuXuXuXuXwXrX9X2X2X9XwXwXuXrXuXuXrXuXuXrX2X,X&X[.[.;XrXrXuXuXuXrX",
"'.].3XqXeXuXuXuXuXuXuXuXwX8X2X2X2X2X2X2X8X0XuX0XqXqXwXuXuXuXuXuX2X2X2X:X<X:X8X2XuXuXuXuXuXuXuXuXXX].OX4X9XqXuXuXuXrXrX9X",
"/./.wXuXuXuXuXuXuXuXuXrXwX8X2X2X<X<X2X2X2XrXuXyXuXuXuXuXuXuXuXrX:X2X2X:X7X:X<X<XuXuXuXuXrXuXuXuXXX(.OXwXrXuXuXuXuXrXwX:X",
";X;XuXuXuXiXuXiXiXuXiXuXuX0X0XwXwX0XwXwX0XuXiXuXiXuXiXuXuXuXiXuXwX0XwX0X0XwX0X0XuXuXiXuXiXiXuXuX:X;X:XuXiXuXiXuXuXiXuXwX"
};
