/* XPM */
static char *result[] = {
/* columns rows colors chars-per-pixel */
"60 60 246 2 ",
"   c #15251D",
".  c #13281C",
"X  c #19341D",
"o  c #142825",
"O  c #183628",
"+  c #1F2B31",
"@  c #1A3935",
"#  c #2C322C",
"$  c #333536",
"%  c #453831",
"&  c #1E422A",
"*  c #1D4237",
"=  c #27492B",
"-  c #2F4F31",
";  c #284A37",
":  c #345A3A",
">  c #3B633C",
",  c #47413D",
"<  c #56453B",
"1  c #303C43",
"2  c #413E44",
"3  c #1E464D",
"4  c #244846",
"5  c #37474A",
"6  c #285549",
"7  c #375B45",
"8  c #3C4D5A",
"9  c #2A5A56",
"0  c #325354",
"q  c #2D604D",
"w  c #3A6447",
"e  c #386758",
"r  c #295C66",
"t  c #255E71",
"y  c #2D6469",
"u  c #336766",
"i  c #3A706F",
"p  c #2C6777",
"a  c #326B75",
"s  c #346978",
"d  c #3A7479",
"f  c #484848",
"g  c #564C44",
"h  c #454D54",
"j  c #515754",
"k  c #695D4F",
"l  c #426B4A",
"z  c #4E6D4F",
"x  c #436A56",
"c  c #4A765A",
"v  c #69635D",
"b  c #4D5C62",
"n  c #4E686E",
"m  c #497666",
"M  c #547D69",
"N  c #5A6C7A",
"B  c #477876",
"V  c #577B78",
"C  c #6C706F",
"Z  c #757879",
"A  c #82776C",
"S  c #4E8042",
"D  c #558368",
"F  c #508575",
"G  c #598579",
"H  c #65946A",
"J  c #63877A",
"K  c #679578",
"L  c #8B857D",
"P  c #2C6C87",
"I  c #346C83",
"U  c #37758A",
"Y  c #2D7899",
"T  c #387C97",
"R  c #377EA1",
"E  c #486B8B",
"W  c #457888",
"Q  c #54748E",
"!  c #567988",
"~  c #447C92",
"^  c #657984",
"/  c #737C83",
"(  c #667E91",
")  c #3C829E",
"_  c #3B85A6",
"`  c #3C8DB2",
"'  c #4A8488",
"]  c #598986",
"[  c #5C928E",
"{  c #488697",
"}  c #43839B",
"|  c #558B96",
" . c #5B9598",
".. c #65898A",
"X. c #79858B",
"o. c #798F8F",
"O. c #699689",
"+. c #688998",
"@. c #689997",
"#. c #749A98",
"$. c #77A88A",
"%. c #76A598",
"&. c #78B190",
"*. c #4384A2",
"=. c #498BA6",
"-. c #448CAC",
";. c #538EA6",
":. c #4C91AE",
">. c #5394AD",
",. c #5B97A8",
"<. c #4A8FB2",
"1. c #4C93B3",
"2. c #4993B7",
"3. c #5295B4",
"4. c #5C9CB4",
"5. c #549ABB",
"6. c #579CB9",
"7. c #748EA2",
"8. c #689AA7",
"9. c #7999A7",
"0. c #5EA2BB",
"q. c #69A3A8",
"w. c #78A7A8",
"e. c #7EB0A0",
"r. c #6AA8B7",
"t. c #63A3BB",
"y. c #77ABB5",
"u. c #79B2BA",
"i. c #559EC2",
"p. c #59A3C4",
"a. c #5DA3C4",
"s. c #63A6C2",
"d. c #66A9C6",
"f. c #6BADCA",
"g. c #73AEC5",
"h. c #6DB1CC",
"j. c #74B2C5",
"k. c #73B4CC",
"l. c #7AB8C8",
"z. c #6DAFD0",
"x. c #73B4D1",
"c. c #76B8D1",
"v. c #7BBBD3",
"b. c #7DC0D4",
"n. c #858B8D",
"m. c #95928C",
"M. c #858E92",
"N. c #8A8F91",
"B. c #8B9294",
"V. c #8A959B",
"C. c #94999B",
"Z. c #86B18E",
"A. c #A7A29B",
"S. c #889AA4",
"D. c #959EA3",
"F. c #85A9A9",
"G. c #9BA4A8",
"H. c #8CB8AB",
"J. c #84ABB5",
"K. c #94ABB3",
"L. c #87B7B8",
"P. c #95B9BB",
"I. c #A1A7A9",
"U. c #A9AFB2",
"Y. c #AAB4B8",
"T. c #B4BABC",
"R. c #96C5B1",
"E. c #95C3BA",
"W. c #A5CDB8",
"Q. c #87BBC6",
"!. c #97BCC4",
"~. c #83BED3",
"^. c #A7BCC2",
"/. c #B6BEC3",
"(. c #8CC2C8",
"). c #94C4CC",
"_. c #98C5C8",
"`. c #89C5D7",
"'. c #85C3D9",
"]. c #93C7D4",
"[. c #9BCBD3",
"{. c #94CCDD",
"}. c #9ACEDA",
"|. c #9DD2DC",
" X c #A7C7CB",
".X c #B6C7CA",
"XX c #B1D4CB",
"oX c #A7CCD4",
"OX c #A8D5D6",
"+X c #A4D4DC",
"@X c #ABD5DC",
"#X c #B3D4DD",
"$X c #B8D7D9",
"%X c #BBE3D6",
"&X c #93CDE0",
"*X c #9BD5E3",
"=X c #A5DAE4",
"-X c #A7D9E6",
";X c #ADDBE3",
":X c #B3D6E2",
">X c #B3DBE4",
",X c #B8DAE5",
"<X c #BCDAE4",
"1X c #ABE2EB",
"2X c #B8E5E7",
"3X c #B2E2EB",
"4X c #BAE4EC",
"5X c #B5E6F2",
"6X c #BCEAF3",
"7X c #BEF1FA",
"8X c #C7CFD3",
"9X c #C7D7DA",
"0X c #C9E5DE",
"qX c #C4DCE4",
"wX c #C9DDE5",
"eX c #C5DEE9",
"rX c #D5DEE2",
"tX c #CCE2E5",
"yX c #C4E4EB",
"uX c #C6E7EA",
"iX c #CCE3EB",
"pX c #D3E5EC",
"aX c #DAE5E9",
"sX c #D3E9ED",
"dX c #DBEAED",
"fX c #D5F1ED",
"gX c #C3EDF3",
"hX c #C9ECF3",
"jX c #D2E6F1",
"kX c #DBE7F3",
"lX c #D4EBF2",
"zX c #DCEAF2",
"xX c #CDF2F5",
"cX c #C7F3FA",
"vX c #DDF1F5",
"bX c #D7F7FB",
"nX c #E1EDEF",
"mX c #E2EEF4",
"MX c #E3F2F5",
"NX c #EBF3F6",
"BX c #E5F4F8",
"VX c #EBF5FA",
"CX c #E4FAF9",
"ZX c #EEF9FD",
"AX c #F1FAFE",
"SX c #F5FAFC",
/* pixels */
":X:XZXZXAXAXAXAXAXAXAXAXAXAXAXVXdXfXeX;X<XBXZXZXZXZXSXVXtX$XBXuX!.!.wXzXzXzXzXzX>X>XiXZXAXAXAXAXAXAXSXAXAXAXAXAXAXAXVXmX",
":X:XBXAXAXAXAXAXAXAXAXAXAXAXZXVXdXkX<X:X<XMXSXZXAXAXAXaX$XsXAXbXeX!.K.pXkXzXzXzX:X:XyXZXAXAXAXAXAXVXVXAXAXAXAXAXZXAXZXmX",
"eXwXVXAXAXAXAXAXAXAXAXAXAXAXAXBXjXjXiXyXtXMXAXAXAXSX0XXXvXCXbXbXjX*XJ.!..XkXzXzXeXeXsXVXAXAXAXAXVXVXVXAXAXAXAXAXSXNXBXmX",
"ZXVXAXAXZXAXZXAXAXAXZXAXAXVXAXzX:X:XzXZXZXZXAXAXZX0XsX<XyXbXbXbXeX}.g.Q.q.).qXkXVXZXAXSXAXAXAXAXmXkXmXAXAXAXAXZXMXkXzXzX",
"SXSXAXAXAXAXAXAXAXAXAXAXAXAXAXzX:X#XvXAXZXAXZXVX9XlXgX,XxXbXbXbX4XQ.4.t.f.'.Q.9XZXAXAXZXAXAXAXAXzXzXmXZXAXAXZXAXmXdXdXzX",
"AXAXMXmXmXmXmXVXAXAXMXMXMXZXZXBXzXkXNXAXAXNXsXtXsXyX4XoX5XbXcX5XhX{.;.>.s.s.{.}.eXmXVXZXAXVXmXBXzXzXmXZXAXAXAXAXVXVXBXkX",
"AXAXmXkXzXzXkXMXAXAXzXzXmXVXZXZXAXSXSXAXZX$XoXfX3XlXoXQ.gX7XbX7X~.g.,.~ >.6.`.{.{.^.kXVXAXBXkXzXzXzXMXZXZXAXAXZXAXAXAXkX",
"AXAXzXzXzXmXzXNXAXAXzXzXmXVXVXVXMXVXVXZXVXXX XsXuX;X+XQ.*XgXbXcX-Xt.~ ~ <.=.d.k.} ..K.BXVXBXzXzXzXzXzXZXZXZXZXAXZXVXBXzX",
"ZXAXzXzXmXZXZXAXZXAXvXkXzXzXkXiX:X#XvXZXZX9Xy.iXuXQ.Q.u.[.5X6X-X|.h.>.{ T s ` 6.T ! K.NXAXBXzXzXzXzXkXdXkXmXAXAXnXdXsX<X",
"AXAXzXzXmXZXZXAXZXAXmXkXzXzXzXjX:X@XvXAX9X9.@.P.Q.w.@.@.w.g.,X{.f.{ } U r I U p B !.qXSXAXBXzXzXkXzXzXzXzXmXAXZXMXmXkX<X",
"mXmXzXzXmXZXZXVXzXMXzXkXkX<X<XwXvXMXdX.X..! #.] B V V ] ] ,.*X~.j.;.,.y p r d a n 9.9XSXAXBXkXzXzXzXjX<X<XlXZXAXiX,XqXlX",
"zXlXzXzXmXZXAXmXzXzXdXkXjX,X:XwXzX9XXXV.V J D b 7 x l x c ] Q.l.4.| | u u 6 e 9 9 B +.^.9XkXkXkXzXzXjX:X:XuXAXAXwX:X<XMX",
"yXwXiXiXlXZXSXNXMXMXpXiXiXiXwX X^.P.F.J l x z l : > > w e B ] y.q.d B e e u i q r a T B ! K..XkXiXiXwXjXiXzXZXZXlXiXsXBX",
":X:X:X:XeXZXSXAXZXZXqX>X<XBX9XF.!._.w.%.H.K H x > l = e D K F F F q w w ' =.| ' W } 1.<.5.E ^ jX,X>XeXVXAXAXAXAXAXZXZXAX",
"<X,X<X<XiXZXZXAXZXZXtX$XeXVXAX.XQ.|.2X%X%XXXF.K H w w K [ @.G  .i : & D  .0.4.4.j.k.z.p.2.*.Q.kX<X,XeXVXAXSXAXAXAXAXSXAX",
"vXmXzXMXBXAXAXAXAXAXMXvXBXAXwX_.uXCXCXVX;XOXL.R.R.%.@.[ E.[.&.@.e 6 e m q.j.x.d.x.p.'.'.~.0.;.#XvXvXNXVXAXZXAXAXAXAXAXAX",
"AXAXAXAXZXAXSXAXAXAXAXAXAXZXyX_.0XvXxXbX5X}.[.2X_.$Xr.).+X1X(.r.w.F F ' r.d.v.p.v.p.b.x.`.f.;..XZXAXAXAXAXZXAXAXAXAXAXSX",
"AXAXSXAXZXNXNXNXNXVXAXAXAXMXP.$XvXOXvX2X6X>X4XxX;X3XQ.;X6X|.;X`.t.t.j.>.r.`.b.x.i.z.a.v.4.].>.,.mXAXVXVXVXNXVXVXVXAXAXVX",
"AXAXSXAXVXkXdXnXkXkXVXAXAXVXW.BXOX<XlX+X).|.vXgXxX+X-X5X{.*X1X|.{.t.a.3.'.b.{.d.<.p.i.v.6.i.Q.!.VXZXVXzXzXlXkXdXVXAXVXmX",
"AXVXSXAXVXdXkXzXlXzXVXAXZXdX$X XL._.;X[.(.sXvX2XuX4Xl.l.*X7X7X&Xk.{.~.s.{.a.{.&X<.` i.d.-.T Q.#XVXZXNXzXzXdXdXkXVXAXZXzX",
"kXzXAXAXZXVXZXlX<X#XdXwXoX_.(.@X+X+X!.+Xy.OXvXBX(.2Xl.-XbXcXcX6X0.|.3X&X5.c.*Xh.Y Y _ R -._ ~ y.:XmXNXkXzXmXVXZXAXSXZXkX",
"kXkXZXAXAXAXZXsX:X#X^._.oX2X2XOX(.P.w.J.y.).vXxXoXl.u.gXgX5X3X{.b.].(.'.:.c.{.5.P _ Y T 1.:.1.*.~ 8.mXkXzXMXAXAXZXAXZXmX",
"zXkXMXMXNXAXAXMXsX9XK.y.$XoX@X).L.J G x J.J.oX).j.w.l.}.b.=X_.{ q.(.{ =.) Y p.` P T P ) p 4.6.z.*.I $XwXeXzXZXAXNXMXmXtX",
"kXzXkXkXmXVXAXZXVX.XL.%X_._.;X#.D 5 w x ..O.w.] ! ] F.w.u.u.u.d ]  .I P d p 3 U P r y i u d { >.4.E |  X:XiXAXAXmXsXsX<X",
"sXlXjXjXlXBXBXVXSXVX$X_.J.#XL.w.#.c c x x G ] m x D G  .,. .B e e u a u i y r y y 9 6 * 6 4 | W ;.s.9.oXeXsXAXAXvXkXjXeX",
"<X<X:X<X<X<XqXsXZXMX XL.(.).[.)._.O.c D M x 6 > : - w c F F M q 6 e u 6 * O 6 6 * & & ; 9 r T <.U ;.pXVXNXVXAXAXwX<XqXzX",
"#X:X:X;X:X;X:XiXdX_.(.3X3X@X$X Xw.K o.K O.J ..D : > > l w S c 7 q d B F i e e * O & = q B | >.5.5.;.!.VXSXAXAXAXyX@X<XvX",
"sXsXjXsXsXsXsXzX@X[.2XuXvX2X%X%.#.G K %.$.w.R.&.l w l S H H > * i  .,. .F ' u 9 q * 4 ' { t.s.v.f.a.5.Q.BXAXAXSXzXsXlXVX",
"VXSXAXAXSXAXZX$X).3XvXxXCX[.R.K %.Z.Z.Z.y.|.%XOXR.F K K &.D D S [ ,.r.0.r.4.} t ,.' p { -.z.5.~.x.~.s.>.$XAXAXVXAXAXSXSX",
"AXSXSXZXZXVXMX!.Q.uXfXuXuX%Xu.R.R.R.H.w.E.].7X[.1X,.R.W.$.&.K ) { k.h.a.h.v.-.R _ t._ _ ` d.a.f.s.f.g.>.Q.mXVXVXVXNXVXAX",
"ZXZXZXAXVXkX$XF.uXuX).xX_.(._.%XXXXX_._.|.xXxX7X*X1X2XR.u.R.q._.f.5._ {.p.'.b.-.` d.d.z.5._ 5.-.x.<.z.f.-.4.g.!.:X#X<XMX",
"SXAXAXAXVXsX X!.2X(.[.OXE.%. XOX0X[._.q.OXfX1XgX1Xb.l.b.1X%X(.4.{.*Xc.~.6.}.d._ 2.p.a.c.x.g.:.2.p.3.*.f.a.p.<.( @X:X<XMX",
"AXAXMXpXoXQ.Q.Q.}.}.[.L.e.V #.u.8Xe.L.y.4XgXbX].sXr.r.fX6X7X2Xu.{.{.{.) r.Q.4.t 1.*.c.3.'.*.s.6.} 1.) a.-.d.} W ^.zXvXVX",
"AXAXmXP.r.).;X=XOXy.Q.#.O.] O...Z.c G ] L.uXvX@XQ.' L.XX(.xXr.`.{.;.q.) T | B f E W q.{ l.{ P T a ) ) =.>.*.s.} 9.VXZXAX",
"VXVXwX9.| +X(.Q.u.J.%.@.m O.G w > - ; ; @._.XX_.V 0 @.@.w.gX:.>.1X{ 9 4 3 1 4 @ 1 5 r t ' | a i i a U P 5.U U ~.dXAXAXAX",
"kXkX^.w.|.w.O.e.n K e x x Z z - - % $ # % b ..! % f b #.q.|.;.;.'.U 4   o o o @ @ @ 4 @ u 3 4 @ 6 9 ' U ) 9..XmXAXAXZXAX",
"kXkXzXXXL.W %.m x c > - 7 ; # - = X X # $ $ 8 ; 5 $ $ C V b $ j v 0 4 + +   . o @ O & * 4 * O . o @ B r P J.kXAXZXAXAXAX",
"yXeXkXiX^.] B D m c w , l 7 : > : # # X O ; x - 7 7 ; z g < $ j f 5 + @ O   O & O O O * * ; 3 @ @ * 6 3 t U +.zXzXmXBXVX",
":X:X4X+.| y.8.#.%.O.M M M m 7 w x l : ; ; z w w z ; = - - f = ; 6 6 @ O o X X X * * * 6 4 6 9 y a y p s P *.T E g.iXzXVX",
"qX!.(.r.r.-XOXXXXXW.$.$.M J 7 x M x l M V G D e c = & - : w 7 & = = ; O o . & . ; 3 y d a U U d *.} >.:.3.<.R P t.J.kXmX",
"CXF.{ |.gXxXxX@XOXOX_.w.H.%.#.O.O.G O.e.(.(.e.F c & = : w q q : = = q - O & ; - 9 3 t a  .U 2.T 5._ 2.R z.d.x.5.T ~ qX<X",
"ZXP.r.1XOX|.6X{.6X].;X_.$X_.E.H.O.O.H.OX2X;XE.&.c w > = m F m q w q u e u 9 q e d ) p r =.P 6.5.2.-.2.i.3.d.<.d.:.;.:X<X",
"AXmX0X].h.xX'.|.1X3X6X6X6X).#XL.H.F.E.1X7X1X2X(.[ D D : ' L.&.K F d d '  .a u d { { ) y { a } a.5.d.i.i.R t.=.U y. X<XvX",
"AXVX0Xw.q.1X1X6X6XbX3XgX=XQ.=XOX2X X).5XcX5X5Xu.q.&.K F u.r.b.e.O.) { j.4.q.a a 0.r.=.) y p p ,.1.x.f.x.i.4.| #.!.:X,XBX",
"NXNXNXMX0XJ.[.gX).bX=X4XQ.{.+X6X2X3X[.gX7X7X1Xb.[.R. .[ u.1Xh.].l.) ,.r.h.0.U ) { j.0.,.d p y { *.x.3.f.:.@._.#XqXtXiXMX",
"dXdXVXVXnX0XL.y.].gXy.].}.cXbXhX2X|.3XbX1X7X*Xb.l.q.u.`.|.&X&X0.b.b.5.h.c.(.>.{ { 4.k.u.,.p  .@.| t.} } J.tX#X#XzXZXAXAX",
"lXlXVXSXZXdX9XP.w.P.y.@XgXxXbX-X6X).=X7XgX].7Xr.r.=X1Xl.b.5X*X`._ ` ` {.p.b.q.d a ) u.0.8.W #.dX.X).P.$XdXkX$X<XBXAXSXAX",
"<X<XVXAXAXNXfXtX0XXX@XoXOXxX4X=X1Xu.L.xX7Xu.u.H.*X7X1Xd.1X1X1X1X0.p l.3.h.(.q.d a a ,.0.~ $XAXZXMXvXmXSXSXVXvXMXZXZXAXAX",
">X:XBXAXAXAXZXnXdXtX Xq.6XuX;XoXL.XX_.@Xl.L.9Xw.y.k.*Xb.l.`.{.'.b.a U ~ c.).} r u r  .>.J.AXZXAXAXAXAXAXAXAXAXAXAXAXAXAX",
"iXtXVXAXZXAXAXVXMXvX0XP.3X=Xq.$XrXAXpX<X!.9X.X^ ! { *Xk.} `.`.) ) a + P 1.g.3 1 5 8 n E K.MXZXSXAXAXZXVXVXVXAXZXVXBXVXZX",
"ZXAXSXZXZXAXAXMXzXzX,X XE.(.P.AXSXSXAXAXMX9XY.V.C v 7.y.b l.! b # % 2 8 I s + + $ h n 7.K.uXAXSXAXZXVXdXdXMXAXZXMXkXkXVX",
"ZXAXSXZXAXAXAXCXlXlX<X#X$XtXNXSXZXVXrXT.I.C.V.n.v A f k , C < < # # % f h h h C / Z Z V X.Y.VXZXZXZXVXzXkXMXAXAXvXzXzXVX",
"kXzXZXAXAXAXZXlX:X:XMXZXAXAXAXNXkXkXrX9XY.I.S.X.A A g k % A g % % 2 g h 2 b 8 X.K.S.V.G.T.8XnXSXmXkXzXzXkXMXAXAXwX:X<XBX",
"zXzXVXAXAXZXAXsX:X#XBXAXAXVXAXmX9X8X8X8XT.Y.S.B.I.L A Z % k g < % g b ^ h 1 h g X./ X.V.C.G.U./.9XpXkXzXkXMXAXAXiX#X<XBX",
"zXzXiXsXdXAXAXBXsXpXVXAXVXMXmX8XG.V.N.N.C.T.!.D.D.G.I.m.k v k k g b ^ / E 1 ^ C n.X.C.I.C.C.C.T..XrXkXeXyXlXAXSXvXsXfXVX",
"kXlX<X@XuXZXAXAXSXZXSXVXpX/.G.V.D.M.N.B.D.C.D.Z 7.S.S.D.Z A C v v Q Q Q E E N D.I.D.T.U.D.D.T./././.K.^.@XiXZXSXSXAXSXAX",
"jXjXeX<XuXZXAXAXZXAXAXAXmX8XU.V.M.X.n.M.n.N.B.N.o.7.7.( ( ( C b ^ E E Q E E E n.m.B.B.N.M.N.N.n.X.7.D.!.$XsXZXZXAXAXAXZX",
",X<XMXBXZXAXSXAXAXAXAXAXZXkXkXwX.XY.G.D.n.n.N.n.M.S.9.S.7.( ^ ^ Q Q / / ( ^ N / N.B.U./.A.I.U./.K.^.qXmXCXZXAXAXAXZXZXMX",
"#X#XBXAXSXAXSXAXAXSXAXZXZXmXzXkXkXkXjX/.n.C.C.m.N.N.M.M.V.( Q Q Q / n.n.N.N.D./.T.8XNXNXmXNXNXSX$X#XqXNXSXSXSXSXAXAXZXkX",
"sXkXAXSXSXSXSXSXSXSXSXSXSXNXNXZXNXVXVXmXrXrXrX/./.T.T./.I.V.E E ( B.I.8X8X8XkXNXSXSXSXSXSXSXSXSXkXsXkXSXSXSXSXSXSXSXSXVX"
};
