/* XPM */
static char *result[] = {
/* columns rows colors chars-per-pixel */
"60 60 248 2 ",
"   c #15251D",
".  c #13281C",
"X  c #19341D",
"o  c #142825",
"O  c #183628",
"+  c #1E2C30",
"@  c #1A3935",
"#  c #2B312C",
"$  c #333637",
"%  c #453831",
"&  c #1E422A",
"*  c #1D4237",
"=  c #27492B",
"-  c #2F4F31",
";  c #284A37",
":  c #345A3A",
">  c #3B633C",
",  c #47413D",
"<  c #56453B",
"1  c #303C43",
"2  c #413E44",
"3  c #1E464D",
"4  c #244846",
"5  c #374749",
"6  c #285549",
"7  c #375B45",
"8  c #254C58",
"9  c #3C4D5A",
"0  c #2A5A56",
"q  c #395753",
"w  c #2D604D",
"e  c #3A6447",
"r  c #386758",
"t  c #295C66",
"y  c #255E71",
"u  c #2D6469",
"i  c #346766",
"p  c #3A706F",
"a  c #2C6777",
"s  c #326B75",
"d  c #336978",
"f  c #3A7479",
"g  c #484848",
"h  c #564C44",
"j  c #4F5353",
"k  c #485557",
"l  c #695D4F",
"z  c #426B4A",
"x  c #4E6D4F",
"c  c #436A56",
"v  c #4A765A",
"b  c #6A635D",
"n  c #4D5C62",
"m  c #546664",
"M  c #497666",
"N  c #547D69",
"B  c #446B78",
"V  c #5A6C7A",
"C  c #487876",
"Z  c #577978",
"A  c #6C6E6C",
"S  c #74797B",
"D  c #82776C",
"F  c #4E8042",
"G  c #558368",
"H  c #508575",
"J  c #598579",
"K  c #65946A",
"L  c #63877A",
"P  c #679578",
"I  c #8B857D",
"U  c #2C6C87",
"Y  c #346C83",
"T  c #34748D",
"R  c #397689",
"E  c #2D7899",
"W  c #397C97",
"Q  c #377EA1",
"!  c #486B8B",
"~  c #447A88",
"^  c #55748F",
"/  c #567988",
"(  c #487892",
")  c #6C7C88",
"_  c #3D819C",
"`  c #3B85A6",
"'  c #3C8DB2",
"]  c #4A8488",
"[  c #598986",
"{  c #5C928E",
"}  c #448394",
"|  c #43839B",
" . c #4B889A",
".. c #558D97",
"X. c #5B9598",
"o. c #66888A",
"O. c #7C878C",
"+. c #699689",
"@. c #739D82",
"#. c #678897",
"$. c #7B8A94",
"%. c #689997",
"&. c #749A98",
"*. c #77A88A",
"=. c #76A598",
"-. c #78B190",
";. c #488AA5",
":. c #448CAC",
">. c #538EA5",
",. c #4C92AE",
"<. c #5896AA",
"1. c #4A8FB2",
"2. c #4C93B3",
"3. c #4993B7",
"4. c #5295B4",
"5. c #5C9DB4",
"6. c #549ABB",
"7. c #579CB9",
"8. c #6799A6",
"9. c #6D96AC",
"0. c #7699A5",
"q. c #5EA2BB",
"w. c #69A3A8",
"e. c #77A7A8",
"r. c #7EB0A0",
"t. c #6AA8B7",
"y. c #63A3BB",
"u. c #78ABB5",
"i. c #79B2BA",
"p. c #559EC2",
"a. c #59A3C4",
"s. c #5DA3C4",
"d. c #63A6C2",
"f. c #66A9C6",
"g. c #6BADCA",
"h. c #74AEC6",
"j. c #6DB1CC",
"k. c #74B3C5",
"l. c #73B4CC",
"z. c #7AB8C8",
"x. c #6DAFD0",
"c. c #73B4D1",
"v. c #76B8D1",
"b. c #7BBBD3",
"n. c #7DC0D4",
"m. c #848B8E",
"M. c #95928C",
"N. c #888F92",
"B. c #8C9294",
"V. c #8A9699",
"C. c #93999C",
"Z. c #85AE90",
"A. c #A8A29C",
"S. c #889AA5",
"D. c #939DA2",
"F. c #86A9AB",
"G. c #9BA4A8",
"H. c #91B3AF",
"J. c #87AAB2",
"K. c #87B6B8",
"L. c #98BBBE",
"P. c #A2A8AA",
"I. c #A4AEB2",
"U. c #ABB3B5",
"Y. c #A8B6BC",
"T. c #B3BABC",
"R. c #96C5B1",
"E. c #94C3BB",
"W. c #A6CCB9",
"Q. c #87BBC6",
"!. c #95BBC3",
"~. c #83BED3",
"^. c #AABCC3",
"/. c #B5BEC4",
"(. c #8CC2C9",
"). c #94C4CC",
"_. c #98C5C8",
"`. c #89C5D7",
"'. c #85C3D9",
"]. c #96CAD6",
"[. c #9BCBD3",
"{. c #94CCDD",
"}. c #9CD2DC",
"|. c #A8C7CA",
" X c #B7C5C9",
".X c #A8D5C8",
"XX c #B7D8CA",
"oX c #A6CDD5",
"OX c #B5CDD4",
"+X c #A8D5D6",
"@X c #A4D3DC",
"#X c #ACD5DB",
"$X c #B5D7D9",
"%X c #BBD5DC",
"&X c #BBE3D6",
"*X c #93CDE0",
"=X c #9BD5E3",
"-X c #A5DAE4",
";X c #A7D9E6",
":X c #ADDBE3",
">X c #B4D6E2",
",X c #BAD6E2",
"<X c #B3DBE4",
"1X c #BCDAE3",
"2X c #B9DDE9",
"3X c #ABE2EB",
"4X c #B8E5E7",
"5X c #B2E2EB",
"6X c #BBE4EC",
"7X c #B5E6F2",
"8X c #BCEAF3",
"9X c #BEF1FA",
"0X c #C2CED4",
"qX c #C6D7DA",
"wX c #CFD7D9",
"eX c #C9E3DD",
"rX c #C2DCE4",
"tX c #CADEE6",
"yX c #C3DEE9",
"uX c #D7DEE0",
"iX c #C5E4EA",
"pX c #CCE3EB",
"aX c #C8E7E9",
"sX c #D2E4E4",
"dX c #D3E6EC",
"fX c #DBE6EC",
"gX c #D4EAED",
"hX c #DBE9ED",
"jX c #D5F1ED",
"kX c #C3EDF3",
"lX c #C9EDF3",
"zX c #D8E6F2",
"xX c #D4EAF2",
"cX c #DBEAF2",
"vX c #CDF2F5",
"bX c #C7F3FA",
"nX c #DDF2F5",
"mX c #D7F7FB",
"MX c #E2EBEF",
"NX c #E2EDF3",
"BX c #E4F2F5",
"VX c #E9F3F6",
"CX c #E5F4F9",
"ZX c #EBF6FA",
"AX c #E4F9F9",
"SX c #EEF9FD",
"DX c #F0F7FB",
"FX c #F1FAFE",
/* pixels */
"cXcX,X>XyXZXSXFXFXFXFXFXFXFXFXFXFXFXNXhXzX1X:XrXFXFXSXZXhXsXAXaX!.!.,XcXcXcXcXcXzXcXxX>X>XxXFXFXFXFXFXFXFXFXSXFXFXFXFXFX",
"cXxX,X>XrXZXFXFXFXFXFXFXFXFXFXFXFXFXNXcXzX1X#XrXFXFXSXfX$XgXFXmXyX!.J.zXcXcXcXcXcXcXpX>X>XxXFXFXFXFXFXFXFXFXFXFXFXFXFXFX",
"yXrXxXnXNXSXSXFXFXFXFXFXFXFXFXFXFXFXpX2XyXxXnXBXFXDXeX$XmXAXAXmXlX@XJ.!._.pXcXcXcXcXcXnXBXCXFXFXFXFXSXNXNXZXFXFXFXSXSXNX",
">X>XSXFXFXFXFXSXFXFXFXFXFXFXFXSXFXFXpX>X1XAXDXFXSXeXsX1XiXmXAXbX6X=Xu.h.8._.tXcXcXcXNXFXFXFXFXFXFXFXSXzXcXBXFXFXFXFXSXMX",
"%XrXZXFXFXSXFXSXSXSXFXFXFXZXSXFXFXFXpX%XtXCXFXSXqXgXpX2XvXmXmXmX2X~.9.y.g.'.K.1XcXcXNXDXDXSXSXFXZXFXZXcXcXBXFXFXFXFXSXBX",
"FXFXFXFXSXfXfXzXfXfXZXFXZXcXcXNXDXSXFXFXFXZXaXsXgXkX2X}.7XmXbX7X8X].<.4.f.f.*X}.1XxXcXcXzXBXFXFXNXcXcXzXzXCXFXFXFXFXFXFX",
"FXFXFXFXSXcXcXcXcXhXSXFXSXcXcXNXFXFXFXFXDX0XOXjX4XgX].!.kX9XmX9X`.h.<.( ,.7.`.*X].^.pXzXcXCXFXSXNXzXcXcXcXBXFXFXSXFXSXFX",
"FXFXFXFXZXcXcXNXZXVXZXFXDXcXcXNXBXBXgXpXpX.X_.gXiX:X@XQ.=XlXmXbX;Xy.( ( 1.;.f.l.| o.J.yXyXcXFXFXNXzXcXcXzXNXVXNXSXSXFXVX",
"FXFXSXFXSXcXzXCXFXFXFXSXSXcXcXzXzXcX1X:X1X%Xu.pXaX(.Q.i.].2X8X;X=Xk.,.;.W d :.7.R #.H.#X,XzXFXSXNXcXcXcXhXcXzXzXZXSXSXMX",
"FXFXSXSXZXcXfXCXFXSXSXZXZXcXzXcXzXxXyX1X!.&.%.Q.Q.w.%.{ u.h.5X{.f. .} R t Y T a / qXNXqX1XcXFXSXcXcXcXcXcXxXzXxXZXSXSXhX",
"FXFXhXNXcXhXcXCXFXSXNXcXcXcXcXpX,X,XdX Xo.o.+.) Z Z Z +.[ <.}.~.k.>.X.s y t f s B F.sXNXAXZXFXFXNXcXzXcXcXpX>X>XBXFXZXrX",
"FXFXhXxXcXcXcXCXFXFXnXcXcXcXcXiX#X|..X$.L Z Z M 7 c z r v [ z.Q.5.....i i 6 r 0 0 B #.^.wXNXSXSXNXcXcXcXcXpX>X>XBXFXAXrX",
"FXSXpXiXyXpXyXcXFXDXVXNXNXtXyX|.L.^.e.o.z c x z > : > > r C [ u.w.C M r r i p 0 0 d ~ ! / I.OXpXcXzXzXiXpXpXdXzXCXSXSXgX",
"FXSX%X>X>X>X>XxXFXFXFXFXZXrXL.F.!.!.r.&.F.P K z > z = v G P H H C w w e ]  ...] ] ;.:.,.6.R V OXxXcXxX>X>XpXFXFXFXFXFXFX",
"FXSXrX1X<X1X,XxXFXFXFXFXCXrX1X!.(.oX$X4X&XXXZ.L K e e H +.%.J { p : 4 F X.q.5.q.k.l.j.a.3.;.u.,XzXxXxX1X>XdXFXFXFXFXFXFX",
"FXFXCXCXBXCXBXSXFXFXFXFXSXCXqX_.4XAXAXAX:X#XQ.E.R.=.w.{ E.].-.%.i w r M w.k.c.f.c.a.'.'.~.s.>.rXcXcXcXBXCXFXFXSXFXFXFXFX",
"FXSXFXFXFXFXFXSXFXFXFXFXFXSXpX_.eXAXvXnX5X}.[.4X_.$Xt.).=X-X(.i.w.H H ] t.t.b.a.b.a.n.c.`.f.>.qXNXzXcXFXFXFXFXFXFXFXFXFX",
"VXZXSXFXFXFXFXZXVXVXZXZXZXhXL.$XnX+XnX<X8X<X2XnX:X3XQ.:XkX}.-X`.t.y.k.5.f.`.'.x.p.x.s.b.7.].<.8.tXpXdXFXFXZXZXVXZXZXZXZX",
"zXzXSXFXFXFXFXCXMXMXcXcXNXVXW.BX@X1XvX@X).-XmXlXvX}.;X8X{.=X-X=X{.y.s.4.~.v.{.f.3.a.3.'.7.q.(.%X1X>X1XZXFXZXzXcXcXcXMXSX",
"cXzXSXFXFXFXFXBXfXzXcXxXcXfX$XoXK._.<X[.Q.aXBX6XaX6Xz.z.=X9XkX*Xl.{.b.d.{.f.*X*X' ` p.g.1.Q [.CXrX>XrXSXFXNXcXcXcXhXcXZX",
"cXcXNXNXNXFXFXSXZXZXrXoX_._.).#X@X@X).@Xu.#XmXCX).4Xz.;XmXbXbX8Xq.}.3X*X6.v.=Xj.Q U ` Q :.` ( u.OXxXBXSXFXBXzXcXCXZXZXFX",
"cXcXzXzXcXSXFXFXFXFXL.!.oX4X<X#X_.K.e.J.u.!.cXvX[.z.i.kXbX7X:X{.n.].(.`.,.c.{.6.U ` E W 2.,.2.;.W #.CXFXFXBXcXzXZXDXDXFX",
"cXcXcXNXNXZXZXZXFXcXJ.F.$XoX#X).K.L L c J.u.|.!.K.t.z.{.n.-X_. .w.(.;.;._ E a.' U W U _ a 5.6.x.;.Y rXDXFXNXdXdXAXFXSXZX",
"cXcXcXcXcXcXhXBXDX XH.<X_._.<X&.J - 7 c +.%.e.{ / o.F.e.i.i.i.f [ X.f Y d a 8 T T y u p i f  .>.5.R #.uXSXxX>X#XBXFXDXcX",
"zXcXzXzXcXzXxXnXSXCX$X_.J.:XQ.e.+.v N c z H [ M r G J { <.X.C r r p s i i u 0 u u 6 6 * 6 4 ..! >.d.J.uXFXzX,X,XBXFXSXcX",
"zXcXrXyX2XyXyXyXrX1X|.J.Q.[.).).[.o.v N N v 5 e > - e v H H G w 6 r i 6 * O 4 6 * & & ; w t W 1.T >.dXDXFXVXBXcXZXFXZXpX",
"cXxX2X,X<X>X>X>XoXK.(.5X3X+X$X.Xe.P @.P +.J +.N : : > z e F v 7 6 f H H p i w * O & & r C ..4.7.6.>.!.DXFXFXFXFXFXFXSX1X",
"dXpXyXyXiXyXiX1X[.[.4XaXnXaX&X&.&.J L =.Z.e.R.-.e z z F K K > * p <.X.X.[ H p 0 0 * 6 ] } q.f.c.g.d.6.~.CXFXFXFXFXFXZXpX",
">X>XAXSXZXDXDXOX).4XnXvXnX[.R.@.=.Z.Z.Z.e.}.:X.XR.H K P -.G G F { <.t.q.t.<.} y X.] a ;.:.x.6.~.c.~.y.<.%XFXFXFXFXFXSXZX",
">X%XAXFXDXDXVX_.Q.4XaXlXjX$Xi.R.R.R.R.r.E.).kX}.3X<.R.W.*.-.P _ } l.l.s.l.b.:.` ' y.` _ :.x.s.g.s.h.f.4.Q.CXFXFXSXSXSXSX",
"nXnXSXSXSXSXwXF.4XjX).lX).(.(.XXXX.X_._.}.vXvX9X=X3X4XE.i.R.w._.f.7.' {.a.'.n.' ' f.f.j.4.Q p.1.b.1.h.g.1.5.Q.0XtXyXpXyX",
"FXSXSXFXSXBX%X(.iX(.[.+XE.=..X+XeX[._.8.-XjX3XvX3Xn.z.n.3X&X(.5.{.=Xv.~.7.{.f.` 3.a.s.c.x.h.1.3.p.4.:.g.s.p.1.#.%X>X>X>X",
"SXFXFXNX$XQ.Q.Q.}.{.].K.r./ =.J.XXr.K.i.4XlXmX`.jXt.t.aX4XkX4Xk.{.{.{._ h.Q.<.a 2.;.z.4.~.;.d.6.| 2.` y.:.f.| ~ !.rXrXrX",
"FXFXSX Xu.`.:X@XoXu.K.e.+.[ %.J Z.v J o.Q.iXnX#XQ.] L.XX(.vXt.`.{.<.8._ W ..B g B R t.| z. .U W a _ _ ;.,.;.d.| 0.NXZXZX",
"FXFXhXe...+XQ.!.i.K.=.+.m @.J e > - ; $ %.|.OX_.V k X.%.t.vX,.4.3X .u 4 3 1 4 @ 1 5 t t } ..s p i s R U 6.T T k.pXFXFXFX",
"FXSX/.e.{.e.%.r.N [ q c c L x - , # - % # n o.Z , g c &.w.@X....'.R *   o o o @ @ * 3 @ i 3 @ @ w 0 ] T _ 0.^.pXCXSXFXFX",
"FXFXfX$XK.~ =.v c v : - q - # - = X X X $ $ q ; 5 $ $ A Z m # j A q 4 + + . . o @ O & * 6 * O o . O C t U J.fXFXSXSXFXFX",
"FXSXfXdX^.[ H N M m z : 7 e : > : = X # # ; c : 7 7 ; x g h $ n g $ + @ O . O & O O O * ; * 4 @ * * 4 8 t Y 8.cXZXFXFXFX",
"FXZX:X..[ u.0.%.&.P N N N v 7 e z k 7 = ; r e e z - = - - g = ; 4 0 ; o o X X X & * * 0 4 6 0 u a a d d T ` E ! z.cXZXNX",
"FX%X(.t.f.-X+X+XXXW.*.*.N P q c N c z Z N J G z c = & - : 7 7 = = ; * O o . X X 4 3 t f s f _ s ;.( ,.,.4.1.` U 5.!.CXcX",
"DXF.} }.kXvXjX3X-X+X_.e.H.=.&.+.@.J +.i.E.E.r.H v & = : w w : : = = r = O & ; ; 0 3 u a X.T 3.E 6.` 3.Q c.f.c.6.W ( tXhX",
"DX!.t.5X@X-X4X{.7X].:X_.$X[.E.H.+.+.F.+X4X3X(.-.v e > = M H H w r w w r u w w r f _ a t  .T 7.6.3.:.3.6.4.f.1.f.2.>.qXcX",
"FXBXeX{.j.vX`.}.:X3X8X8XkX(.+XK.F.F.E.:X9X3X3XK.{ G G : ] K.-.P H p f ] X.s i f .._ _ u } d  .s.6.f.p.p.Q d.>.T i.OXxXzX",
"FXZXeXe.%.3X-X8XkXmX<XbX-X(.-XoX4X.X[.7XbX7X7Xi.w.-.P H i.t.(.w.%._  .z.5.w.s s 5.t.;._ u a a <.1.c.g.c.p.4...V.OXgXxXrX",
"FXFXZXNXqXJ.{.kX).mX-X8XQ.{.-XiX4X:X].kX9X9X3Xn.[.R.%...k.3Xi.{.z._ <.t.k.q.R _ ;.i.q.<.f s u } ;.c.1.g.2.%.XXhXsXxXxX1X",
"VXZXVXBXhXeXK.i.[.8Xu.).].bXmXbX5X}.8XmX3X9X=Xk.z.w.i.`.}.*X*Xq.n.n.q.j.v.n.<. ._ q.k.i.<.a X.%.X.y.| | 9.sXDXFXgXpXtXdX",
"MXzXcXhXMXhXqXL.u.E.i.#XiXmXbX;X8X).3X8X9X].9Xi.t.-X3Xz.n.7X=X'.` ' ' `.a.n.w.f p _ i.y.8.~ &.fXdXqX^.!.oXdXSXFXrX>X1XBX",
"cXcXxXxXcXZXjXsXeXXX+XoX@XxX7X:X4Xi.i.vX9Xi.i.i.=X9X3Xt.3X3X3X3Xy.a z.4.l.(.w.s s s <.7.( %XFXFXFXSXBXrX1XgXSXFXpX1X1XZX",
"ZXZXrX1XtXZXSXNXsXsX|.e.6XkX:XoXK.OX|.#XQ.u._.e.u.h.=Xb.z.`.{.'.n.s Y W v.Q. .t i i X.<.F.VXFXFXFXFXSXBXnXVXFXFXVXBXBXDX",
"FXFX1X#X1XSXSXSXSXVXjXE.<X-Xw.OXsXSXVXpX|._.F.V /  .=Xz. .'.'.` _ s $ Y 2.h.8 1 5 9 B ! G.NXFXSXSXSXFXFXFXFXDXFXFXFXFXFX",
"FXFXtXpXdXSXSXSXFXDXZXsX_.(.H.BXSXFXFXFXNX|.G.$.S b 9.9.k z.[ n # $ % 9 Y d + # $ k A S./.zXcXcXSXFXFXFXFXZXSXVXZXFXZXZX",
"FXFXSXSXSXFXFXFXFXFXcXcXdXoX+XpXSXSXuXT.P.C.V.$.b D h l , A < < # # g 2 g 9 j S S ) S O.V.!.#X%XCXFXFXFXFXVXMXhXZXFXSXNX",
"FXFXSXFXDXFXFXFXFXFXcXcXlX1X%XtXDXDXfXwXU.P.S.S I D h l % D < < % 2 g j 1 k 9 O. XI.C.C.I.^./.OXNXFXFXFXSXZXxXcXSXFXSXcX",
"FXFXNXCXBXFXFXFXFXSXpX2XyXcXNXNXMXuX0X XI.U.S.V.A.O.A D % l h h % g n A n 1 9 h C.B.N.O.) S.I.^.uXVXFXNXcXcXcXcXZXFXAXpX",
"SXSXcXcXcXDXFXFXFXSXrX>XrXCXDXwXU.C.m.O.N.T.!.D.D.G.A.M.l b l h h n V m.V 9 ) b B.B.V.$.) $.A.U.0XVXDXcXcXzXcXcXZXFXAX1X",
"SXSXcXcXhXBXCXSXSXFXtXrXOX XI.A.P.M.N.m.B.C.D.) S.S.S.C.) D A b b ^ ! ^ ! ! ! D.G.D.Y.S.$.D.U./.0X0X/.OXdXzXxXdXZXDXSXpX",
"xXgXzXNXdX>X#XgXSXFXFXSXBXwXW.D.m.O.O.O.O.N.N.B.D.9.) 9.) ) ) b ) ! ^ ! ! ! ! O.B.B.B.M.N.N.N.N.M.C.P. XdXyX,X#XNXFXFXFX",
"hXcXzXzXxX,X>XxXSXFXDXFXDXFXDXfX XY.G.D.m.N.N.N.N.S.0.) 9.) ) ^ ^ ^ O.m.) ^ A ) N.B.U.U.G.A.U./.T.uXVXcXxXpX>X>XBXFXFXFX",
"cXcXtXyXyXcXcXCXFXFXFXFXFXFXFXZXzXzXdX XB.V.m.m.N.B.N.O.$.^ ^ ! ^ O.m.m.N.N.D./.U. XMXVXMXVXDXDXSXDXCXyXiXpXnXjXZXFXFXFX",
"cXcX>X>XrXZXFXFXFXFXFXFXFXFXFXZXzXzXNXdX0XqX/././.U.U./.P.N.! ^ ) C.I./.0X0XtXzXfXzXMXDXDXDXDXDXDXDXCX1X$XpXFXFXSXSXFXFX"
};
