/* XPM */
static char *result[] = {
/* columns rows colors chars-per-pixel */
"60 60 217 2 ",
"   c #14171C",
".  c #161926",
"X  c #0F1433",
"o  c #151A33",
"O  c #1B1F37",
"+  c #141B3A",
"@  c #1F222A",
"#  c #23242A",
"$  c #262C29",
"%  c #2D2D2B",
"&  c #302E2E",
"*  c #262836",
"=  c #2A2D34",
"-  c #343637",
";  c #3A3C3C",
":  c #3C413D",
">  c #121A42",
",  c #192244",
"<  c #1F2950",
"1  c #2A2D40",
"2  c #363A48",
"3  c #293359",
"4  c #373D52",
"5  c #1D2E6A",
"6  c #323D68",
"7  c #21387B",
"8  c #3E444D",
"9  c #3D4253",
"0  c #3B4059",
"q  c #37426C",
"w  c #344575",
"e  c #41454B",
"r  c #4C514E",
"t  c #464954",
"y  c #4A5254",
"u  c #4C525C",
"i  c #545856",
"p  c #56595F",
"a  c #605F5D",
"s  c #5C6058",
"d  c #444965",
"f  c #555C62",
"g  c #5B5E66",
"h  c #565E69",
"j  c #495574",
"k  c #575A75",
"l  c #5B6064",
"z  c #5A626A",
"x  c #5A6775",
"c  c #64686B",
"v  c #6B7169",
"b  c #646B7D",
"n  c #696E78",
"m  c #706E73",
"M  c #647275",
"N  c #6B7174",
"B  c #677379",
"V  c #6C737B",
"C  c #707472",
"Z  c #73787D",
"A  c #364D8D",
"S  c #344E92",
"D  c #3B5AA2",
"F  c #475885",
"G  c #74498B",
"H  c #78548F",
"J  c #6E5D90",
"K  c #7A5993",
"L  c #52678E",
"P  c #46649A",
"I  c #6B6A87",
"U  c #6C7B86",
"Y  c #777E86",
"T  c #787F81",
"R  c #757E8B",
"E  c #6C6791",
"W  c #6B7594",
"Q  c #6C7C97",
"!  c #687B99",
"~  c #757F9D",
"^  c #4464A4",
"/  c #4A6AA4",
"(  c #486DAE",
")  c #5377BB",
"_  c #7D7DA7",
"`  c #577AC8",
"'  c #835A94",
"]  c #885A98",
"[  c #88689B",
"{  c #9168A7",
"}  c #8977A7",
"|  c #9474AA",
" . c #877DB8",
".. c #987ABB",
"X. c #768388",
"o. c #7B828B",
"O. c #6E879F",
"+. c #76849A",
"@. c #7D829D",
"#. c #799490",
"$. c #7E87AB",
"%. c #7A8DB5",
"&. c #6683DD",
"*. c #858A8A",
"=. c #858B96",
"-. c #8D9294",
";. c #89979B",
":. c #8C959B",
">. c #91979B",
",. c #949698",
"<. c #939B9E",
"1. c #94A691",
"2. c #A9BB9F",
"3. c #8589A7",
"4. c #8898A7",
"5. c #959AA4",
"6. c #949AA7",
"7. c #9A9FA6",
"8. c #8F86B0",
"9. c #8895B5",
"0. c #9394B4",
"q. c #929ABD",
"w. c #A394B7",
"e. c #9BA2A5",
"r. c #9AA2AA",
"t. c #94AAA9",
"y. c #9BA9B6",
"u. c #A4A9A8",
"i. c #B5B8AC",
"p. c #A4ACB3",
"a. c #AAAFB3",
"s. c #A4A7B9",
"d. c #AFB5B7",
"f. c #A7B6BA",
"g. c #ACB3BB",
"h. c #B7BDBA",
"j. c #BCC1BD",
"k. c #8D8FC2",
"l. c #A495C6",
"z. c #AD9ED0",
"x. c #A3AAC8",
"c. c #B8A3CB",
"v. c #AABBC5",
"b. c #ACB6C9",
"n. c #B6BAC8",
"m. c #ADB7D1",
"M. c #B4BCD3",
"N. c #C1B2CD",
"B. c #ACC2CA",
"V. c #B7C2C9",
"C. c #AECAD8",
"Z. c #BBC3D2",
"A. c #B5CAD5",
"S. c #BACCD4",
"D. c #AFD4DC",
"F. c #B4D4DE",
"G. c #BBD6DE",
"H. c #B7DADF",
"J. c #BCD8DF",
"K. c #AFD6E4",
"L. c #AFD9E2",
"P. c #B3D6E2",
"I. c #B9D6E2",
"U. c #B4D9E3",
"Y. c #BCDAE4",
"T. c #B4D8E8",
"R. c #BEDBE9",
"E. c #C2CACD",
"W. c #C3D1CD",
"Q. c #D1D8C9",
"!. c #C4CBD7",
"~. c #C7C7DC",
"^. c #C5D3D6",
"/. c #CCD7D5",
"(. c #C5D1DC",
"). c #CBD5DB",
"_. c #D2DBD6",
"`. c #D2D9DE",
"'. c #C9CBE7",
"]. c #D1C8E8",
"[. c #C2DCE5",
"{. c #CADDE5",
"}. c #C4DEE9",
"|. c #CADEEA",
" X c #D3DEE2",
".X c #D2D7EB",
"XX c #E3DFF0",
"oX c #C6E1E5",
"OX c #CBE1E6",
"+X c #C6E1E9",
"@X c #CCE3EB",
"#X c #D7E1E6",
"$X c #DAE2E6",
"%X c #D2E6ED",
"&X c #DBE6EE",
"*X c #D5E9EE",
"=X c #DBE9EF",
"-X c #CDE5F0",
";X c #D4E6F2",
":X c #DDE7F3",
">X c #D5EAF2",
",X c #DBEAF2",
"<X c #DFEDF9",
"1X c #DEF1F5",
"2X c #DFF4FA",
"3X c #E1E7EB",
"4X c #E2EAEF",
"5X c #E5E9F6",
"6X c #E2EDF4",
"7X c #E4F2F6",
"8X c #EBF4F7",
"9X c #E5F4F9",
"0X c #EBF6FA",
"qX c #E7F8FB",
"wX c #EEFAFD",
"eX c #F0F6FB",
"rX c #F1FAFE",
/* pixels */
",X,XI.P.}.qXrXrXrXrXrXrXrXrXrXrXrXrX6X=X>XY.L.Y.wXrXwXrXrXrXrXwXF.P.}.,X,X,X=X,X,X:X-XU.U.*XrXrXrXrXrXrXrXrXwXrXrXrXrXrX",
",X>XI.P.[.qXrXrXrXrXrXrXrXrXrXrXrXwX6X<X,XY.F.[.rXrXrXrXrXrXwX9XF.P.[.,X>X,X,X,X,X,X-XP.P.*XrXrXrXrXrXrXwXrXrXrXrXrXrXrX",
"[.R.>X7X6XwXrXrXrXrXrXrXrXrXrXrXrXwX@XR.+X>X1X7XrXrXrXrXrXrXrXwX6X7X-XY.Y.@X<X,X,X,X,X1X2X9XrXrXrXrXwX6X7X9XrXrXrXrX0X6X",
"P.I.qXrXrXrXwXrXrXrXrXrXrXrXrXwXrXrXoXU.H.7XrXrXrXrXrXrXrXrXrXrXrXrX1XP.U.@X,X,X=X,X6XrXrXrXrXrXrXrXwX,X,X7XrXrXrXrXrX6X",
"H.(.wXrXrXwXrXwXwX0XrXrXrXwXrXwXrXrXOXJ.{.7XrXrXrXrXrXwXrXwXrXwXrXrX7XY.U.@X,X*X,X,X6XrXeXwXrXrXeXrX9X,X,X7XrXrXrXrXwX6X",
"rXwXrXrXwX&X&X:X&X&X0XrX9X,X=X6XrXwXrXrXrXrXrXrXrXrX6X=X=X8XrXrXwXrXrXrXrX+XP.U.>X,X,X,X:X7XrXrX6X,X,X,X:X7XrXrXrXrXrXrX",
"rXrXrXrX0X,X:X,X,X=X0XrXrX,X,X7XrXrXrXrXrXrXrXrXrXrX7X,X,X8XrXrXwXwXrXrXrXOXU.T.>X,X:X<X,X9XwXwX,X,X,X,X,X9XrXrXrXwXrXwX",
"rXrXrXrX0X,X,X<X9X8XeXrXrX=X=X,X7X7X*XOX*XwXrXrXrXrX7X,X,X6X7X7XwXrXrXrXrX7X,X,X8X7X,X[.[.,XrXwX6X,X,X,X,X6X6X6XwXwXwX8X",
"rXwXwXrX0X,X,X7XrXrXrXwXwX=X=X:X*X,XR.U.U.qXrXrXrXrX7X,X,X:X,X,XrXrXrXrXrXrXrXrXwXwX1XH.P.>XrXwX,X,X,X,X=X=X,X&X9XwX8X4X",
"rXrXwXwX0X,X&X9XrXrXwXwXwX,X,X>X>X>X}.Y.[.7XrXrXrXrX7X,X,X>X-X,XrXrXrXrXrXrXrXrXwXwX9X(.[.,XrXwX6X&X,X,X<X>X;X;XwXwXwX,X",
"rXrX4X1X,X=X,X9XwXwX6X<X,X,X>X-XU.I.*X8X8XrXwXrXwXrX7X,X>X[.U.[.wXrXwXrXrXrXrXrXrXrXrX7X7X8XrXrX,X,X,X,X,X@XI.U.9XwXwX[.",
"rXrX=X>X>X=X,X9XrXwX,X,X,X<X>X-XF.I.1XwXrXrXwXrXrXrX7X,X>X[.P.[.rXrXwXrXrXrXrXrXrXrXrXrXrXrXwXwX6X,X:X,X>X@XF.F.1XrXqX[.",
"rXwXOX}.OX+X+X,XrXrX7X7X6X|.+X+X*X%X9XrXrX8X7X8XrXrX0X7X7X*X>X*XrXrX0X8X7X7X7X7XrXrXrXrXwX1X%X%X,X=X>X|.|.@X*X%XqXwXwX*X",
"rXwXJ.H.P.P.P.>XrXrXrXrX8X[.H.oXrXrXrXeXwX6X=X,XrXrXrXrXrXrXwXwXrXrX8X,X,X,X:X,X8XrXrXrXwX%XP.F.>X,X*XT.T.@XrXrXrXrXrXrX",
"rXwX[.U.T.Y.U.>XrXrXrXrX9X[.J.@XrXrXrXrXwX,X,X6XwXrXwXwX0XrXrXrXwXrX0X:X>X,X4X,XwXwXrXrXrX=XY.U.>X>X;XY.U.%XrXrXrXrXrXrX",
"rXrX7X9X9X7X8XwXrXrXrXrXrX7X7XwXrXrXrXrX0X6X,X,X,X6X6X,X6XwXrXrXrXrX<XY.U.@X,X,X,X7X4XrXrX9X9X9X,X,X<X1X7XrXrXrXrXrXrXrX",
"rXrXrXrXrXrXrXwXrXrXrXrXrXrXrXrXrXrXrXrXwX<X,X,X:X=X,X,X,X9XrXrXrXrX<XD.U.@X<X,X:X,X6XrXrXrXwXrX,X:X6XrXrXrXrXrXrXrXrXrX",
"9X9XwXrXrXrXwXwXeX8X8X9XeXrXrXrXrXrX8X8X7X<X,X,X,X,X,X,X>X,X=X6XrXrX7XOXOXOX@X%X*X,X,XrXwXwXrXrX#X@X*X0XrXwX9X7X9X0X9XeX",
":X=XwXrXrXeXrX7X3X4X:X:X6XrXrXrXrXrX6X,X,X,X:X,X,X,X,X<X=X[.T.J.rXrXrXrXwXOXP.P.*X`.=.y   -.rXwXY.P.[.0XrX9X&X=X,X,X=XwX",
",X,XwXrXrXrXrX7X&X:X>X,X<X0XrXrXrXrX6X,X>X,X&X,X,X>X>X<X>XY.L.[.rXrXrXeXwXOXU.T.S.V 9 I = ,.rXwXR.P.[.wXrX6X,X,X,X=X6XwX",
":X:X,X6X6XrXrXwX0XqX|.Y.{.9XrXrXrXrXrX0X9X<X,X>X[.I.R.C.B.S.^.^.`.`.`.`.`./.).(.R 2 } =.= :.wXwX7X7X7XrXwX7X,X:X9X8X0XrX",
",X,X,X,X6XwXwXwXrXwX[.F.Y.qXrXrXrXwXrXrXrX,X>X%XF.K.K.z # # @ @ @ @ # & % % $ $ e @.x.x.e <.wXrXrXrXwXrXrX7X,X,XeXrXrXrX",
",X,X,X,X6X8X8X8XrXrX@X[.#X9XrXrXrXrXrXrX9X;X@XB.f t y V o.n b b b b =.d.j.j.d.p.T u 3.4.I c e.*XwXrXrXwXrX6X;X@X9XrXrX9X",
"<X,X,X:X,X,X=X7XrXrXrXrXrXrXrXrXrXwXrXrXwXt.x X.Y h u r.).^.^.!.~.!.].5X0X,XZ.g.Z   2 8 e # y F.9XrXrXrXwX>XP.F.9XrX0X4X",
"&X,X,X,X>X>X>X7XqXwXrXrXrXrXrXrXrXwX8X,.Z z 9 c !.n.b.(.<XqXeXXXn.w.M.'.M.m.b.R p r   z X.U ;.G.7XrXrXrXrX=XU.J.7XrXwX>X",
",X>X[.[.Y.R.Y.}.+X{.8XwXwXwXrX0X6X#Xg.f 8 o.y.m.,X9X9X6X.XN.N.c.8.E } l.0.y.s.N e.W.$ V.>X1X1X7XwXrXrXwXrX9X1X1X0XrX8XOX",
",X>XY.P.U.P.P.U.K.P.7XrXrXrXrX9X{.5.2 o.5.A.,X9X:X.X].].w.H ' H l.q.%.6.b.d.c *.rX_.; u.7XwXrXrXwXwXrXwXrXrXrXrXrXrXwX[.",
"@X-X+X}.+X+XoXoX+XoX7XrXrX8XwX=X*.t :.^.4X1X<XXX].w.[ ] ' ' z.8.$.+.4.v.n.l :.{.wXrXj.: e.rXrXrX8XwXwXwXrXrXrXrXrXwXwX@X",
"T.P.qXwXwXwX0XeXwX9XrXrX0X6X:Xm p =.!.5X6X.X].c.{ ] G G { l.8.%.Q 4.v.p.y =.C.I.8XrXj.; <.rXrXrX6X=X6XwXrXrXrXrXwXrXwX9X",
"U.H.qXrXeXwXwXrXwXwXrXrXwX=X:X; c !.8X8Xy.8.| { G H .. . .9.! Q 4.B.4.i p.C.I.I.9X3Xi u. XrXrXrX6X,X,XqXwXrXrXrXwXwXqXrX",
"1X1XwXwXwXwXrX8X7X6XwXrXrX$X*.y 5.3XeX8XN.| G K ..} k.%.O.O.9.v.S.e.Z X.[.-X6X6Xa.m -.5XrX9X6X6X,X:X=X1X6X6X6X7X%X|.+X+X",
"wXwXwXrXrXwXrX7X,X,X8XrXrX$Xe Z p.g.&X:XeX8.F J l._ O.#.%.y.). Xa.C -.C.D.f.r.r.b 2 :.p.$X7X=X,X:X,X,X,X,X=X,X<X[.P.P.P.",
"wXrXrXrXrX9XeX6X:X<X1X7X9X/.y a.r.V '.@X6X@.d E 3.$.U t.W._.V.2.a ,.#X[.y.0 + + < q + O ;.,X1X,X6X6X6X,X,X*X;X;X+XoX[.}.",
"rXrXrXrXwX,X,X4X,X,X[.T.[.f ,. X#X(.v.m.'.~ k 3.M.V././.Q.i.% - E.rX8X#X@ w ( / A 5 A w o <.rXwXrX8X8X,X<X@XY.U.<X9XwX9X",
"rXrXrXrXqX<X:X:X:X>X[.P.Y.f :.).'.m.m.x.q.W j b /.Q._.*.s C y.f.wXrXwX$X+ P O.&.` ( D A > 5.rXrXwXrXwX6X:X}.U.U.2XrXwXrX",
"rXrX7X7X6X,X,X<X>X,X>X,X>Xh 5.Z.A.x.9.9.! W x f j.v i j./.OX>X1XwXwXwX=X> ( S ^ &.` 7 7 X :.rXrX%X@X%X9X7X1X>X>X9XwXrXrX",
"rXrX,X=X,X,X,X>X>X,XqXrXrXg R y.3.$.W W +.k 1 * N <.>.$XrXrXrXrXwXwXE.3.P ) / P ( ^ 7 6 . ;.wXwXY.P.Y.qXrXrXeXrXwXwXrXrX",
"rXrX,X,X,X,X,X,X>X=XwXrXrX7.g u t 2 2 4 d o.7.<.e.OX7XrXrXrXrXrXrXrXr., ( &.%.t.#.W w 3 9 h.rXwX[.T.[.wXrXrXrXrXrXrXwXrX",
"rXwXU.P.Y.;X,XOXU.F.7XrXrX5X*.g g g g g c E.rX0X*X,X7XwXrXrXrXrXwXrX6.> S P ;.2.1.U q + 6.wXrXrXwXwXrXrXrXrXrXrXrXrXwX6X",
"rXwXY.I.Y.:X,X|.P.P.7XrXrXeXeXeXwXrXrXrXrXrXrX0X,X,X8XrXrXwXeXrXwXrX6.X w P L x F F 6 O e.rXwXrXrXwXrXrXrXrXrXrXrXrXrX,X",
"rXrX%X%X@XOX@X|.%X%X8XrXrXqX7X8XrXrXrXrXwX9X7X6X<X5X*X%X*X7XrXrXrXrXr.O d y.V.x.q.3.0 1 g.9X8X7X7X7X7XwXrXrXrXrX8X7X7X,X",
"rXrXwXrX7XU.P.>XwXwXeXwX8X4X=X7XrXrXrXrX0X6X=X,X,X>X}.P.J.7XwXrXrXeX3X6.. - : - = $ * r.4X7X=X=X,X,X,XwXrXwXrXrX6X,X=X=X",
"rXrXrXrX9XY.Y.;XrXrXrXwXwX,X=X7XrXwXrXrXwX6X,X>X;X>X+XU.J.7XrXrXrXrX9X#XV m N B M M o.#XrX6X,X,X,X,X,XwXwXrXrXrX<X,X,X>X",
"rXrXrXrXrX9X9XwXrXrX7X*X,X=X=X=X*X,XwXrX0X6X,X%XI.U.%XwX7XwXrXwX=X,X<X,X,X}.T.Y.9XqXqXrXwX7X:X,X,X,X=X,X,X8XrXrX6X,X*X[.",
"rXrXrXrXrXrXrXrXrXrX,X,X,X,X,X,X,X,X9XrXwX,X,X%XP.P.*XwXrXrXrXwX,X,X,X,X1XR.U.Y.qXrXrXrXrX8X,X,X:X,X:X,X,X7XrXrX6X,X>XY.",
"8X7X8X9X0XrXrXrXwXwX7X=X*X@X-X@X@XOX9XrXwX,X,X=X@XOX1XwXrXrXrXwX@X@X-XOX@XOXOX@XwXrXrXrXwX9X7X6X7X7X6X-X%X4XrXrX*X@X|.@X",
"&X&X,X:X4XwXrXrXrXrX4X,X>XU.K.K.U.P.1XrX0X6X=X6XrXrXwXrXeXrXrX7XP.P.K.T.J.,XrXrXrXrXrXwXwXrXrXrXrXrX7XU.U.OXwXrX[.F.Y.9X",
",X<X>X>X,XwXrXrXrXrX6X6X>XR.U.Y.Y.U.,XrXeX=X*X6XwXwXrXwXrXrXrX8XJ.Y.T.Y.U.,XrXeXrXrXrXwXwXrXrXrXrXrX8X[.U.*XrXrXOXY.[.9X",
"0XwXR.Y.OXwXwXrXrXrX8X8X9X7X7X7X7X1XeXeX8XoXY.oXrXrX7X6X6X0XeXrX1X7X7X7X1XqXrXrXrXeXeX6X4X8XrXrXrXrXwX9X1X8XrXrX7X7X7XwX",
"rXwXJ.P.Y.wXwXwXrXrXwXwXrXrXrXwXrXwXrXrXwX[.U.[.rXrX7X,X=XwXeXrXwXwXrXrXwXrXrXrXrXrXeX,X,X7XrXwXrXwXrXrXrXrXrXrXrXrXrXrX",
"rXeX@XOX%XwXwXwXrXrXwX8X8X,X1X1XrXrXrXrXwX@XOX%XrXrX7X:X,X9X0X9XwXrXrXrXrXrXrXrX9X9X8X,X>X,X>X,XwXwXrXrXrXwX8X8XeXrXrX9X",
"rXrX0XwXwXrXrXrXrXwX,X,X*XU.H.OXrXwXrXrXrXwXwXwXeXrX8X,X,X>X,X6XrXrXrXrXrXrXrXwX6X,X=X,X<XoXU.J.qXrXrXrXwX8X=X=X0XrXwX=X",
"rXrXwXrXrXrXrXrXrXrX1X>X>XH.G.OXrXrXrXrXrXrXwXrXrXrX9X,X,X,X,X,XeXrXwXrXwXrXwX0X6X,X*X,X>X+XU.G.7XrXrXwXwX9X,X=X9XrXwX<X",
"rXwX7X7X7XrXrXrXrXwXOXR.oX,X1X7XrXrX7X,X7XwXrXrXrXrX7X,X,X}.oXR.|.}.%XrXwXrXrXrX0X9X7X[.R.@X1X7XwXwXwX6X1X=X,X,XwXwXwXoX",
"wXwX,X*X,XwXrXrXrXwXY.U.Y.qXrXrXrXrX6X=X,X9XwXrXrXwX7X:X>XR.H.U.I.K.{.rXrXrXrXrXwXrX7XF.U.*XrXwXrXwXwX,X,X,X,X,XwXwXwXJ.",
"wXqX<X,X=X9X8X8XrXrXOX[.[.9XrXwX8XwX7X=X,XwXrXrXrXwX<X;X;X}.J.[.Y.R.%XrXrXrX0X0XwXrX7X[.[.*XrXwXrXrX0X,X,X>X;X@XwXwX8XoX",
"=X*X:X:X@XP.F.*XwXrXrXrXrXrXrXqX=X=X>X,X,X0XrXrXrXrX*XF.J.7XwXrXrXrXrXrXwX6X=X&XeXrXrXrXrXrXrXrXwXrXrX:X,XOXT.F.1XrXrXrX",
",X=X<X:X>XI.F.>XwXwXrXrXrXrXrX9X,X,X,X,X,XqXrXrXrXrX%XP.J.1XrXrXrXrXwXrXwX7X,X<XwXrXrXrXrXrXrXrXrXrX0X<X>X+XP.F.1XwXrXrX",
",X=X}.R.[.,X>X9XrXrXrXrXrXrXrX9X:X,X,X,X,X<X6X6XeXwX6X<X4XqXrXrXrXrXwX7X6X=X:X,X6X6X7XrXrXrXrXrXrXrX7X[.[.@X*X1XwXwXrXrX",
",X:XH.U.[.wXrXwXrXrXwXrXrXrXrXwX,X,X:X,X:X,X,X<XrXwXwXrXrXrXrXrXrXrX9X*X:X,X,X,X=X,X6XrXrXrXrXrXrXrX7XY.H.%XwXrXwXrXrXrX"
};
