/* XPM */
static char *result[] = {
/* columns rows colors chars-per-pixel */
"60 60 221 2 ",
"   c #040508",
".  c #050A19",
"X  c #0E121A",
"o  c #141517",
"O  c #1E1C17",
"+  c #141519",
"@  c #1B1B1A",
"#  c #211D16",
"$  c #292617",
"%  c #2F2B18",
"&  c #040C27",
"*  c #0C152A",
"=  c #141928",
"-  c #050F32",
";  c #091437",
":  c #151E36",
">  c #1F2024",
",  c #1B2034",
"<  c #292B2C",
"1  c #3B3723",
"2  c #23243A",
"3  c #373839",
"4  c #403F3E",
"5  c #6A5523",
"6  c #061441",
"7  c #09194C",
"8  c #091B55",
"9  c #172849",
"0  c #0E2052",
"q  c #172754",
"w  c #383A42",
"e  c #242E51",
"r  c #263655",
"t  c #323857",
"y  c #0A1E61",
"u  c #0B2064",
"i  c #0D236C",
"p  c #122465",
"a  c #142969",
"s  c #1B3565",
"d  c #0F2771",
"f  c #132A74",
"g  c #192F76",
"h  c #142D7D",
"j  c #1B3677",
"k  c #2E3868",
"l  c #34396A",
"z  c #374151",
"x  c #29416E",
"c  c #354768",
"v  c #2E487B",
"b  c #334B78",
"n  c #474A4D",
"m  c #454D59",
"M  c #4D5155",
"N  c #545556",
"B  c #68675C",
"V  c #535B63",
"C  c #5A5F6C",
"Z  c #4E5A73",
"A  c #5B6266",
"S  c #64686A",
"D  c #757265",
"F  c #676D71",
"G  c #6C7379",
"H  c #707071",
"J  c #787C7D",
"K  c #8E752C",
"L  c #A97D2B",
"P  c #91843D",
"I  c #AE8E35",
"U  c #D29C36",
"Y  c #D6A339",
"T  c #AF9050",
"R  c #B19852",
"E  c #AE9D72",
"W  c #C7B146",
"Q  c #CAB446",
"!  c #DFB440",
"~  c #E2B844",
"^  c #D8C14A",
"/  c #E8C249",
"(  c #E8CC5C",
")  c #F1D151",
"_  c #F9DE57",
"`  c #E6D078",
"'  c #152F81",
"]  c #173184",
"[  c #183383",
"{  c #1D3984",
"}  c #19358C",
"|  c #1C398E",
" . c #1C3A93",
".. c #1D3E9B",
"X. c #1F419B",
"o. c #2E4B83",
"O. c #345289",
"+. c #24489E",
"@. c #2D509B",
"#. c #375897",
"$. c #1F42A4",
"%. c #2246A4",
"&. c #284AA4",
"*. c #244BAB",
"=. c #274DA9",
"-. c #2D55AC",
";. c #3559A7",
":. c #274FB0",
">. c #2B55B4",
",. c #2E59B5",
"<. c #2F5CBB",
"1. c #335BB3",
"2. c #315EBE",
"3. c #3360BE",
"4. c #3E65B8",
"5. c #4C648E",
"6. c #6B768E",
"7. c #777D85",
"8. c #4A68AC",
"9. c #4265B2",
"0. c #5D77BC",
"q. c #6A7CAB",
"w. c #3666C5",
"e. c #3768C7",
"r. c #3A6AC7",
"t. c #3B6CCB",
"y. c #3F70CF",
"u. c #416BC3",
"i. c #4874CA",
"p. c #517AC6",
"a. c #4374D2",
"s. c #4979D6",
"d. c #4C7DDB",
"f. c #507FD7",
"g. c #607BC2",
"h. c #7E8285",
"j. c #788AAD",
"k. c #7585B4",
"l. c #4E80DE",
"z. c #5583D8",
"x. c #6489D3",
"c. c #7394D2",
"v. c #5486E3",
"b. c #5789E7",
"n. c #5B8BE6",
"m. c #5B8DEA",
"M. c #5F91EF",
"N. c #6497F4",
"B. c #689BF8",
"V. c #7DA3E3",
"C. c #878F92",
"Z. c #8C959B",
"A. c #97999A",
"S. c #949DA3",
"D. c #9AA5AC",
"F. c #99AAB2",
"G. c #9FB3B9",
"H. c #A5A5A5",
"J. c #A4ACAF",
"K. c #A0A9B0",
"L. c #ABB4BA",
"P. c #B6B7B8",
"I. c #C0BD83",
"U. c #C5C790",
"Y. c #D8D4AA",
"T. c #879ACA",
"R. c #98ACDA",
"E. c #ADB9C2",
"W. c #B5BDC2",
"Q. c #BBC4C7",
"!. c #B4D4DE",
"~. c #BAD7DE",
"^. c #AFD8E2",
"/. c #B4D6E2",
"(. c #B9D6E2",
"). c #B4D9E3",
"_. c #BDDAE4",
"`. c #BEDCE9",
"'. c #C4C5C6",
"]. c #C2C9CC",
"[. c #CDCDCD",
"{. c #CCD6CA",
"}. c #C6CED4",
"|. c #C9D3D7",
" X c #D4D5D5",
".X c gray86",
"XX c #C2DCE5",
"oX c #CADBE5",
"OX c #C4DEE9",
"+X c #C9DEEB",
"@X c #D3DBE7",
"#X c #D9DFF0",
"$X c #C9E1E6",
"%X c #C6E1E9",
"&X c #CCE3EB",
"*X c #D2E6ED",
"=X c #DCE5ED",
"-X c #D5E9EE",
";X c #DBE9EF",
":X c #CDE5F0",
">X c #D4E6F2",
",X c #DDE6F2",
"<X c #D5EAF2",
"1X c #DBEAF2",
"2X c #DEF1F5",
"3X c #DFF1F8",
"4X c #E2E2E2",
"5X c #E4E9EC",
"6X c #EEEEEE",
"7X c #E5EAF5",
"8X c #E2EDF4",
"9X c #E4F2F6",
"0X c #EAF3F6",
"qX c #E5F4F9",
"wX c #EBF6FA",
"eX c #E7F8FB",
"rX c #EEFAFD",
"tX c #F4F4F4",
"yX c #F2F7FB",
"uX c #F1FAFE",
"iX c #FEFEFE",
/* pixels */
"1X1X(./.XXeXuXuXuXuXuXuXuXuXuXuXuXuX8X;X-X_.^._.uXuXrXuXuXuXuXwX!./.XX1X1X1X1X1X1X1X:X/./.-XuXuXuXuXuXuXuXuXrXuXuXuXuXuX",
"1X<X(./.XXeXuXuXuXuXuXuXuXuXuXuXuXuX8X1X<X_.!.XXrXuXuXuXuXuXuXeX!./.XX1X<X1X1X1X1X1X:X(./.<XrXuXuXuXrXuXuXuXuXuXuXuXuXuX",
"XX`.<X9X8XrXuXuXuXuXuXuXuXuXuXuXuXuX&X`.%X<X2X9XuXuXuXuXuXuXuXrX8X9X:X_.`.&X1X1X1X1X1X3XqXqXuXuXuXuXrX8X8XwXuXuXuXuXwX9X",
"/.(.eXuXuXuXuXuXuXuXuXuXuXrXuXrXuXuX%X)._.qXrXuXuXuXuXuXuXuXuXuXuXuX2X/.).&X1X1X1X1X1XrXuXuXuXuXuXuXrX1X1X9XuXuXuXuXuX;X",
"~.XXwXuXuXuXrXrXwXuXuXuXuXuXrXuXuXuX&X~.|.eXuXuXuXuXuXwXrXrXyXrXuXuX9X_._.&X1X<X1X1X7XrXrXrXrXuXrXrXwX1X1X9XrXuXuXuXrX9X",
"rXrXuXuXwX1X,X=X;X;X0XuXwX1X;X8XuXrXuXuXuXuXuXuXuXuX8X;X;XrXuXyXrXuXuXuXrX%X/.).<X1X1X1X,XqXuXuX1X;X1X1X,X9XuXuXuXuXuXuX",
"uXuXuXuXrX1X,X1X;X;XwXuXwX1X1X9XuXrXuXyXuXuXuXuXuXuX9X1X;XwXuXuXrXrXuXuXrX&X/.).1X;X,X1X1XqXrXrX8X,X1X1X1X9XuXuXrXuXuXuX",
"uXuXuXuXrX1X1X1XqX0XuXuXrX1X;X1X9X9X-X&X-XrXrXuXuXuX9X;X1X9X8X9XrXuXuXuXrX9X;X1XqX0X2XXXXX1XuXrX1X1X1X1X1X8X9X8XrXrXuXqX",
"uXuXrXuXwX1X;X9XrXrXuXuXrX1X;X1X1X1X`.^.).qXuXuXuXuX9X,X1X,X1X1XrXuXuXuXuXuXuXuXrXrX2X!./.<XuXuX1X1X1X1X1X1X1X;XwXrXrX5X",
"uXuXrXrXwX1X,X9XuXuXrXeXrX1X1X<X<X<XXX_.$X0XuXuXuXuXqX<X1X<X<X<XuXuXuXuXuXuXuXuXrXrX0X~._.;XuXrX8X1X1X;X1X1X>X>XwXrXwX;X",
"uXrX5X2X1X1X1XqXrXuX9X1X1X1X1X:X)._.;XqX0XrXh.n n h.3X<X>X_.).XXrXuXuXuXuXuXuXuXyXyXrX0XqXyXuXrX1X1X1X1X1X&X/.(.9XuXwX%X",
"uXuX1X-X1X;X<XqXuXuX1X1X1X1X<X:X/.!.2XrXuXrX}.M : v S A A F./.XXuXuXrXuXuXuXuXuXuXuXrXuXuXrXuXrX8X1X,X1X1X%X/./.2XrXeX_.",
"uXrX$X%X+X%X%X2XuXuX0X9X8X+X%X%X*X*X0XuXrXqX9XS 9 =.j s v 6.Z.S.;XrXrXqX9X9XqX0XuXuXuXuXrX2X*X*X1X1X<X%X+X&X-X*XeXrXrX-X",
"uXeX_.!././.!.<XuXuXuXuX9XXX).$XuXuXuXuXrX1X;XC.Z j -.2.y.;.r c D.W.P.L.L.@X1X1XuXuXuXuXrX*X/.!.<X1X>X).(.&XuXuXuXuXuXuX",
"uXuXXX_.).~._.<XrXuXuXuXwXXX~.&XyXuXuXuXrX2X1X2XF.: X.w.y.s.l.z.e X X X = W.1X1XrXrXyXuXrX-X_._.<X<X>X_.).*XuXuXuXuXuXuX",
"uXuXqXqXqXqXqXwXuXuXuXuXrX9XqXwXuXuXuXuXrX+ + X 9 $.w.e.e.e.y.v.z.s.z.z.p.e + F ;X8X8XuXrXwXqXqX1X1X1XqXqXrXuXrXuXuXuXuX",
"uXrXuXuXuXuXuXrXuXyXuXyXuXuXuXuXuXuXh.N V y a j &.3.y.y.a.a.l.b.b.b.b.b.v.9.#.5.G }.7XrXuXuXuXuX8X,X,XuXuXuXuXuXrXuXuXuX",
"qX0XrXuXuXuXrXrXwXwXwXwXwXuXuXuX=XA.e ; 0 ..-.w.y.a.s.l.l.v.b.b.b.m.M.M.M.M.n.p.b C.}.uXuXuXuXuX*X+X<XrXrXrX0X9XwX0XwXyX",
",X1XrXuXuXuXuX9X5X,X,X1X7XrXuX8XH.: 8 f } *.w.a.d.l.d.v.b.b.b.m.m.N.B.B.B.B.N.n.8.= D.uXuXuXuXrX_./._.wXrX0X;X;X1X1X;XwX",
"1X1XrXuXuXyXuX9X=X1X<X1X1XrXuXP.2 8 f ] ..w.e.a.s.p.n.b.b.b.b.N.N.B.B.B.B.N.n.z.p.9 Z.0XuXuXuXrXXX!.XXrXrX9X1X1X1X;X8XrX",
",X1X1X1X9XuXuXrXwXwXOX_.oXeXuXL.= a ] | *.w.a.l.#.c V.M.b.v.v.b.n.M.B.B.B.m.O.c V.p.z Z.9XwXrXrX9X8X9XuXrX9X1X1XqXwXwXrX",
"1X1X1X1X1XuXuXrXuXuXXX!.~.wXD.w 7 h ] +.2.w.t.l.O.X t 8.i.j.E I.U.U.{.+X{.c.x X c p.9 F ;XqXrXuXuXuXrXuXuX9X1X1XwXuXuXuX",
"1X1X1X1X1XwX0X0XuXuX&X$X$XwXJ & u h | :.w.w.e.d.O.    #.;.6.Y ~ ) ( ` Y.` j.k   * 4.o.Z F.;X;X;XrXuXuXrXuX8X:X&X0XrXrXwX",
"1X1X1X1X1X1X;X9XyXuXrXuXuXuXJ . u g ..>.w.w.e.s.#., : ;.-.Z T T R R R R R k.o.= 9 1.d.b z !.!.!.9XuXuXuXrX<X(./.2XuXyX;X",
",X1X1X<X1X<X<X3XwXwXuXuXuXuXJ . y ' ..>.w.w.e.e.y.l.l.r.>.%.&.&.&.&.&.&.&.3.a.d.f.t.l.v w ~.~.~.qXuXuXuXuX-X_.!.9XuXwX8X",
"1X1XXXXX`._.XXXX%XOXwXrXrXrXJ & y ' ..>.w.e.w.w.t.t.t.t.w.<.2.2.2.2.2.2.2.w.e.a.t.w.l.v w 2X2X8XrXuXuXrXuXwX2X2XwXuXwX%X",
"1X<X_./.^./././.^.!.9XuXuXZ.w 7 d ] ..*.>.w.e.w.w.e.w.w.e.w.e.w.e.w.e.w.e.w.w.e.e.e.l.v w rXrXrXrXuXuXuXuXuXuXuXuXuXeXXX",
":X:XOX%X%X%X%X%X%X%XqXuXuXn ; d } } ..$.*.w.w.e.w.w.w.e.w.w.e.w.w.e.w.e.w.e.e.w.w.e.l.b 4 uXuXuXwXwXwXrXuXuXuXuXuXuXrX%X",
")._.qXrXrX0XuXyXwXrXuXyXwXn ; } ..} ..$.*.2.w.e.w.w.w.w.w.9.x.x.x.x.x.x.x.u.w.e.w.e.s.O.m }.qXrX8X;X8XrXuXuXuXuXuXrXrXwX",
").!.eXuXuXrXrXrXrXrXuXuXrXm s >...} ..$.$.*.2.w.w.w.w.w.>.x.5X0X0XwXwX0X7Xg.2.u.w.w.e.a.#.3 |.uX8X1X1XeXrXuXuXuXrXrXrXrX",
"2X2XrXrXrXrXuX0X9X8XrXrXw o.=.*...} } ..$.$.*.*.>.2.*.:.T.@X6XiXiXiXiXiXiX#X+XR.1.w.e.a.9.> Q.8X1X,X1X8X9X8X9X9X*X+X%X%X",
"rXrXuXuXuXrXuX9X1X1XwXrXo { *... .' ' } ..$.$.$.*.:.%.T.@XtXyXiXiXiXiXiXiXiXiX#XR.4.3.y.1.q C W.1X1X1X<X;X1X1X1XXX/././.",
"rXrXuXuXrXrXrX8X,X1X|.D.9 { $. .] ] ] ] } $.$.$.$.:.g.#XiXiXiXiXiXiXiXiXiXiXiXiX,X9.<.e.,.[ r 7.Q.2X8X;X1X<X>X>X%X`.XXXX",
"rXuXuXuXrX1X,X1X1X<XF.= ,.:. .] ] ' ] ] } $.$.$.$.0.4X6XtXiXiXiXiXiXiXiXiXiXiXiX#X0.2.w.,. .u.q H rXwX;X1X&X).).3XrXwXwX",
"uXuXuXuXwX,X1X,X1X1XF.* $.$.} ' ' i ' ] } $.$.$.$.g.4X6XiXiXiXiXiXiXiXiXiXiXiXiXyXoX0.>.,.| 1.q G rXrX;X,X%X/./.qXuXrXrX",
"uXuX9X9X9X1X1X1XS.V Z h X.' d i i f ' ] ] } } ..0.].7X6X6XtXiXiXiXiXiXiXiXiXiXiXtX6X0.:.,.} &.;.5.A S 9XqX2X<X1XeXrXuXuX",
"uXuX;X1X1X1X1X1XV . 7 ' ' i 7 ; u ' ] ] ] ] ] } g.6X6X6X6XtXtXtXiXiXiXiXiXyXtXtX6X5X0.=.-.&.X.,.@.9 X rXuXuXyXuXrXrXuXuX",
"uXuX1X1X1X1X1X1XN & 6 6 6 6 - ; y d ' ] ] ] [ [ q.4X6X6X6X6X6XtXtXyXtXiXiXtX6X6X6X6XT.9.*.<.a a j s X rXuXuXuXuXuXrXrXuX",
"uXrX_./.(.,X1X%XV + + + + + ; 8 y y h ] ] ] [ { k.4X6X6X6X6X6X6X6X6X6X6X6X6X6X6X6X6X5XT.:.-.= o + + > uXuXuXuXuXuXuXrX8X",
"uXrX_.)._.<X1X+X/./.9XrXrXuX7.* l p u f [ ] g j.[.6X6X6X6X6X6X6X6XtX6X6X6X6X6X6XtX6X6XT.:.-., K.uXuXuXrXuXuXuXuXuXuXrX1X",
"uXuX*X&X&X%X+X+X&X*X0XrXrX0XJ X l u 8 i d ' g j.[.6X6X6X6X6X6X6XtX6X6X6X6X6X6X6X6X6X XZ.*.$.; H.qX9X9XrXuXuXuXuXqX0X9X;X",
"uXuXuXrX9X_./.<XrXrXrXuXrX;XF = l p y y u d a 6.P..X6X6X6X6X6X6X6X6X6X6X6XtX6X6X6X.X'.q.$...* D.1X1X1XrXrXuXuXuX8X1X;X1X",
"uXuXuXuXqX_.(.>XuXuXrXrXrXW.V : l p y 7 7 7 7 m D A.H.P.P.[.6X6X6X6X6X6X6X6X6X6X4X'.P.k.+.j Z E.1X1X8XeXrXuXuXuX8X1X<X<X",
"uXuXuXuXrXwXwXwXuXuX9X;X1XN 2 l l p 8 = # # $ % 1 1 4 1 1 D [.6X6X6X6X6X6X6X6X6X4X'.L.q.j = F.@X1X1X1X1X1X0XuXyX7X1X;X_.",
"uXrXuXuXuXuXuXuXuXyX7X#X1Xn 2 l p y & 4 I Q Q W Y Q Q Q W P M  X6X6X6X6XtX6X6X4X[.P.q.-.h . < L.1X,X1X1X;X9XyXuX1X1X<X_.",
"0X0XqX0X0XuXuXuXuXyX XZ.Z.Z q p 8 - 5 L U ! ! ) _ _ _ _ _ ^ P B P.[.[.[.[.[.[.'.P.P.8.f 3 K % F.0X8X1X:X*X2XyXuX<X&X:X&X",
"1X1X1X,X8XrXuXuX@XP.Z., 2 e a y 7   K U U U U ! ~ ~ / / _ _ W % J H.H.H.H.H.H.H.A.J r ; % 5 % J.uXuX2X_.!.*XrXuX$X!._.9X",
"8X1X>X<X,XuXuXwXC.3 w t k q 7 8 -   K L L L L L I L I I I W I $ N H H D H H H H S 3 3 1 3 3 4 Q.uXuXqX_._.*XrXrX%X_._.wX",
"wXwXXX_.%XeXuXuXyXrXQ.> @ o @ @ o o O O O O O O # O O O O O O @ O @ @ @ @ @ = O 4  XwX8X5XqXuXuXuXuXrX9X2XwXuXuX9X9X9XyX",
"uXrX_.!.XXwXrXuXuXuX5X].].].].Q.].Q.].[.Q.G.F.G.].].Q.W.W.].].].].].].].].].].].|.0XyX1X1X9XuXrXrXrXuXuXuXuXuXuXuXuXuXuX",
"uXuX+X$X-XrXrXuXuXuXwX0XqX2X-XqXuXrXuXuXeX*X%X-XuXuX9X,X1X9XeX0XuXuXuXuXuXuXuXuXrXqX0X;X1X1X<X1XrXrXuXuXuXrX0XwXrXuXrXwX",
"uXuXrXwXrXuXrXuXuXuX2X1X-X_.!.&XuXuXuXuXuXrXrXrXuXuX9X1X1X1X1X1XuXuXuXuXuXuXuXuX1X1X;X;X1XOX)._.eXuXuXuXrX0X;X;XwXrXrX8X",
"uXuXrXuXrXrXuXuXuXuX2X<X<X!.!.$XuXuXuXuXrXuXuXuXuXuXqX,X1X1X1X1XuXuXrXuXuXrXuXwX8X;X;X1X<X%X/.~.qXuXrXrXrXqX;X;X0XuXrX1X",
"rXrX9X9X9XyXuXuXuXrX$X`.%X2X9X0XuXuX9X1X9XwXuXuXuXuX9X1X1X%X`.`.+XOX*XuXrXuXuXuXwXwX2X`.`.&X2X9XrXrXrX9X8X;X1X1XrXuXwX$X",
"uXrX1X1X1XrXuXuXuXrX_.!._.eXrXuXuXuX2X;X1XrXuXuXuXuX9X,X<X`.!.)././.oXuXuXuXuXuXrXuX2X!./.*XrXuXrXrXwX1X;X1X1X1XrXuXqX_.",
"rXeX1X1X;X9X0XrXrXuX&XXXXXqXrXrX0XuX2X1X1XwXuXuXrXrX9X>X>XOX~.$X_._.*XuXuXuXwXwXrXuXqXXXXX1XuXuXuXuXwX1X1X<X<X:XeXuXeX$X",
"1X-X,X,X*X/.!.*XuXuXuXrXuXuXrXeX-X;X1X1X1XrXrXuXuXuX*X/.~.2XuXuXuXuXuXuXrX8X;X1XuXyXuXuXuXuXuXuXuXyXuX1X1X&X/.!.2XuXuXuX",
"1X;X,X1X:X(.^.*XuXuXuXuXuXuXuXwX1X1X1X1X,XrXrXrXuXuX*X/.~.2XuXuXuXuXrXuXuX8X1X1XrXuXuXuXuXuXuXuXuXuXrX1X<X&X/.!.2XrXuXuX",
"1X1XOXOXOX1X1XqXuXuXuXuXuXuXuXwX,X1X1X1X1X9X9X9XuXuX8X1X;XwXuXuXuXuXwX9X8X1X1X1X9X8X8XuXuXuXuXuXuXuXqXOX%X$X2X;XrXuXrXuX",
"1X1X).^.XXrXuXrXuXuXuXuXuXuXrXwX1X1X1X1X,X>X,X1XrXuXuXuXuXuXuXuXuXuXqX;X1X1X1X1X;X1X7XuXuXrXuXrXuXuXqX(.!.&XrXrXrXrXuXuX"
};
